<svg xmlns="http://www.w3.org/2000/svg" width="820" height="520" viewBox="0 0 820 520">
<rect width="100%" height="100%" fill="white"/>
<text x="80" y="28" font-family="Arial" font-size="18">attention.o_proj</text>
<line x1="80" y1="45" x2="80" y2="445" stroke="#333"/>
<line x1="80" y1="445" x2="790" y2="445" stroke="#333"/>
<text x="350.0" y="495" font-family="Arial" font-size="13">normalized singular-value rank</text>
<text x="18" y="325.0" transform="rotate(-90 18,325.0)" font-family="Arial" font-size="13">singular value / largest</text>
<line x1="80" y1="45.0" x2="790" y2="45.0" stroke="#ddd"/>
<text x="34" y="49.0" font-family="Arial" font-size="11">1</text>
<line x1="80" y1="145.0" x2="790" y2="145.0" stroke="#ddd"/>
<text x="34" y="149.0" font-family="Arial" font-size="11">1e-1</text>
<line x1="80" y1="245.0" x2="790" y2="245.0" stroke="#ddd"/>
<text x="34" y="249.0" font-family="Arial" font-size="11">1e-2</text>
<line x1="80" y1="345.0" x2="790" y2="345.0" stroke="#ddd"/>
<text x="34" y="349.0" font-family="Arial" font-size="11">1e-3</text>
<line x1="80" y1="445.0" x2="790" y2="445.0" stroke="#ddd"/>
<text x="34" y="449.0" font-family="Arial" font-size="11">1e-4</text>
<polyline fill="none" stroke="#1f77b4" stroke-width="2.2" points="80.0,45.0 85.6,51.1 91.2,52.4 96.8,55.1 102.4,56.5 108.0,57.8 113.5,59.0 119.1,59.9 124.7,61.0 130.3,62.4 135.9,63.8 141.5,64.7 147.1,65.1 152.7,66.6 158.3,67.0 163.9,67.9 169.4,68.8 175.0,69.4 180.6,70.0 186.2,71.3 191.8,71.9 197.4,72.4 203.0,73.6 208.6,74.4 214.2,74.6 219.8,75.9 225.4,76.4 230.9,77.5 236.5,78.2 242.1,78.9 247.7,79.6 253.3,80.5 258.9,81.3 264.5,81.7 270.1,82.5 275.7,83.6 281.3,84.0 286.9,84.6 292.4,85.3 298.0,85.9 303.6,86.6 309.2,87.5 314.8,88.4 320.4,89.2 326.0,89.6 331.6,90.2 337.2,90.8 342.8,91.5 348.3,92.4 353.9,93.1 359.5,93.6 365.1,94.8 370.7,95.5 376.3,96.0 381.9,96.8 387.5,97.3 393.1,98.3 398.7,99.1 404.3,99.6 409.8,100.6 415.4,101.2 421.0,101.6 426.6,102.2 432.2,103.1 437.8,104.2 443.4,105.0 449.0,105.9 454.6,106.8 460.2,107.4 465.7,108.5 471.3,109.2 476.9,110.3 482.5,111.3 488.1,112.0 493.7,112.9 499.3,113.6 504.9,114.4 510.5,115.6 516.1,116.1 521.7,117.3 527.2,118.3 532.8,119.2 538.4,120.1 544.0,121.5 549.6,122.8 555.2,124.0 560.8,125.1 566.4,125.6 572.0,126.8 577.6,127.9 583.1,129.0 588.7,130.6 594.3,132.2 599.9,133.2 605.5,134.2 611.1,135.4 616.7,137.3 622.3,138.0 627.9,139.7 633.5,142.0 639.1,143.1 644.6,145.0 650.2,146.7 655.8,148.2 661.4,149.6 667.0,152.0 672.6,153.7 678.2,155.2 683.8,158.3 689.4,160.9 695.0,164.3 700.6,167.0 706.1,170.5 711.7,173.2 717.3,176.6 722.9,179.8 728.5,183.6 734.1,186.0 739.7,189.7 745.3,196.2 750.9,201.5 756.5,208.1 762.0,214.9 767.6,225.9 773.2,232.8 778.8,254.0 784.4,272.4 790.0,355.3"/>
<line x1="530" y1="53" x2="550" y2="53" stroke="#1f77b4" stroke-width="3"/>
<text x="556" y="57" font-family="Arial" font-size="11">inverse-kv-zipf-baseline</text>
<polyline fill="none" stroke="#d62728" stroke-width="2.2" points="80.0,45.0 85.6,49.3 91.2,51.9 96.8,53.3 102.4,54.4 108.0,55.7 113.5,56.6 119.1,57.8 124.7,59.2 130.3,60.4 135.9,62.2 141.5,63.1 147.1,63.9 152.7,65.1 158.3,65.9 163.9,66.5 169.4,67.2 175.0,68.5 180.6,69.4 186.2,70.4 191.8,71.3 197.4,71.6 203.0,72.6 208.6,73.7 214.2,74.1 219.8,74.8 225.4,76.1 230.9,76.7 236.5,77.3 242.1,77.8 247.7,78.6 253.3,79.5 258.9,80.2 264.5,80.7 270.1,81.8 275.7,82.5 281.3,83.0 286.9,83.6 292.4,84.4 298.0,84.9 303.6,85.5 309.2,86.5 314.8,86.8 320.4,87.8 326.0,88.1 331.6,89.4 337.2,90.0 342.8,90.8 348.3,91.5 353.9,92.3 359.5,92.9 365.1,93.8 370.7,94.4 376.3,95.1 381.9,95.7 387.5,96.7 393.1,97.4 398.7,97.8 404.3,98.4 409.8,99.3 415.4,99.9 421.0,100.5 426.6,101.4 432.2,101.9 437.8,102.7 443.4,103.9 449.0,104.6 454.6,105.3 460.2,106.1 465.7,106.9 471.3,107.6 476.9,108.5 482.5,109.4 488.1,110.4 493.7,111.6 499.3,112.5 504.9,113.8 510.5,114.4 516.1,115.6 521.7,116.6 527.2,117.3 532.8,118.1 538.4,119.3 544.0,120.0 549.6,121.3 555.2,122.2 560.8,122.9 566.4,123.9 572.0,126.3 577.6,127.0 583.1,128.2 588.7,129.2 594.3,130.6 599.9,132.1 605.5,133.5 611.1,134.3 616.7,137.4 622.3,138.6 627.9,139.8 633.5,141.8 639.1,143.0 644.6,144.2 650.2,146.3 655.8,148.1 661.4,149.2 667.0,152.4 672.6,154.8 678.2,155.7 683.8,157.9 689.4,159.9 695.0,163.4 700.6,165.1 706.1,168.4 711.7,171.3 717.3,173.4 722.9,176.4 728.5,180.4 734.1,186.8 739.7,191.5 745.3,195.5 750.9,198.9 756.5,205.3 762.0,213.9 767.6,224.0 773.2,237.2 778.8,259.5 784.4,282.8 790.0,305.5"/>
<line x1="530" y1="71" x2="550" y2="71" stroke="#d62728" stroke-width="3"/>
<text x="556" y="75" font-family="Arial" font-size="11">inverse-kv-zipf-attn-output-router</text>
<polyline fill="none" stroke="#2ca02c" stroke-width="2.2" points="80.0,45.0 85.6,49.9 91.2,51.2 96.8,53.0 102.4,54.7 108.0,55.6 113.5,57.1 119.1,58.6 124.7,59.7 130.3,60.8 135.9,61.6 141.5,62.7 147.1,63.3 152.7,64.3 158.3,64.7 163.9,65.8 169.4,66.4 175.0,67.3 180.6,68.3 186.2,69.0 191.8,70.3 197.4,71.0 203.0,71.7 208.6,72.9 214.2,73.3 219.8,74.3 225.4,75.0 230.9,75.5 236.5,76.4 242.1,77.3 247.7,77.9 253.3,78.4 258.9,79.8 264.5,80.5 270.1,81.3 275.7,82.2 281.3,82.8 286.9,83.4 292.4,84.2 298.0,84.8 303.6,85.6 309.2,86.3 314.8,87.1 320.4,87.7 326.0,88.4 331.6,88.9 337.2,89.7 342.8,90.4 348.3,91.5 353.9,92.1 359.5,92.9 365.1,93.3 370.7,94.6 376.3,95.0 381.9,95.7 387.5,96.6 393.1,97.3 398.7,98.7 404.3,99.1 409.8,100.0 415.4,100.8 421.0,101.7 426.6,102.3 432.2,103.1 437.8,103.8 443.4,104.8 449.0,105.8 454.6,106.4 460.2,106.8 465.7,107.5 471.3,108.2 476.9,108.9 482.5,110.1 488.1,111.2 493.7,112.2 499.3,113.3 504.9,114.0 510.5,115.1 516.1,115.8 521.7,116.8 527.2,118.0 532.8,119.3 538.4,119.9 544.0,120.8 549.6,122.1 555.2,122.7 560.8,124.0 566.4,125.2 572.0,125.9 577.6,126.3 583.1,127.7 588.7,129.5 594.3,130.7 599.9,132.0 605.5,133.1 611.1,134.3 616.7,135.8 622.3,137.7 627.9,139.8 633.5,141.4 639.1,142.4 644.6,144.0 650.2,145.4 655.8,148.1 661.4,149.8 667.0,151.4 672.6,154.0 678.2,155.8 683.8,157.6 689.4,160.2 695.0,163.7 700.6,167.1 706.1,169.3 711.7,170.6 717.3,175.1 722.9,177.1 728.5,183.1 734.1,189.3 739.7,191.2 745.3,196.9 750.9,202.0 756.5,211.2 762.0,217.6 767.6,226.1 773.2,230.7 778.8,250.8 784.4,271.6 790.0,301.5"/>
<line x1="530" y1="89" x2="550" y2="89" stroke="#2ca02c" stroke-width="3"/>
<text x="556" y="93" font-family="Arial" font-size="11">inverse-kv-zipf-head-moe-hidden-router</text>
<polyline fill="none" stroke="#9467bd" stroke-width="2.2" points="80.0,45.0 85.6,53.4 91.2,55.7 96.8,57.6 102.4,59.5 108.0,60.4 113.5,61.9 119.1,62.8 124.7,63.9 130.3,65.0 135.9,66.2 141.5,67.1 147.1,67.8 152.7,68.8 158.3,69.4 163.9,70.6 169.4,71.7 175.0,72.4 180.6,73.2 186.2,73.6 191.8,74.7 197.4,75.3 203.0,76.1 208.6,76.9 214.2,77.5 219.8,78.5 225.4,79.4 230.9,79.9 236.5,81.1 242.1,81.5 247.7,82.2 253.3,82.8 258.9,83.9 264.5,84.5 270.1,85.1 275.7,85.8 281.3,86.7 286.9,87.9 292.4,88.3 298.0,88.9 303.6,89.9 309.2,90.9 314.8,91.1 320.4,91.7 326.0,92.8 331.6,93.1 337.2,94.2 342.8,94.7 348.3,95.4 353.9,96.2 359.5,96.7 365.1,97.5 370.7,98.3 376.3,99.4 381.9,99.8 387.5,101.1 393.1,101.6 398.7,102.5 404.3,103.1 409.8,104.3 415.4,105.1 421.0,105.6 426.6,106.5 432.2,107.2 437.8,107.6 443.4,108.3 449.0,109.8 454.6,110.5 460.2,111.3 465.7,112.1 471.3,113.2 476.9,113.9 482.5,114.4 488.1,115.8 493.7,116.2 499.3,117.0 504.9,117.9 510.5,119.2 516.1,119.7 521.7,120.8 527.2,121.7 532.8,122.5 538.4,124.2 544.0,125.3 549.6,126.4 555.2,127.3 560.8,128.6 566.4,129.7 572.0,130.3 577.6,132.3 583.1,132.9 588.7,134.5 594.3,135.6 599.9,136.8 605.5,137.7 611.1,138.8 616.7,141.2 622.3,142.0 627.9,143.0 633.5,145.0 639.1,147.2 644.6,148.9 650.2,151.7 655.8,153.7 661.4,155.9 667.0,157.5 672.6,159.7 678.2,161.3 683.8,164.5 689.4,166.2 695.0,168.3 700.6,170.9 706.1,173.3 711.7,175.9 717.3,178.2 722.9,182.9 728.5,186.0 734.1,189.1 739.7,192.4 745.3,197.9 750.9,203.1 756.5,214.2 762.0,218.2 767.6,227.3 773.2,236.6 778.8,249.1 784.4,268.4 790.0,330.4"/>
<line x1="530" y1="107" x2="550" y2="107" stroke="#9467bd" stroke-width="3"/>
<text x="556" y="111" font-family="Arial" font-size="11">inverse-kv-zipf-attn-output-head-moe</text>
</svg>