<svg xmlns="http://www.w3.org/2000/svg" width="820" height="520" viewBox="0 0 820 520">
<rect width="100%" height="100%" fill="white"/>
<text x="80" y="28" font-family="Arial" font-size="18">attention.k_proj</text>
<line x1="80" y1="45" x2="80" y2="445" stroke="#333"/>
<line x1="80" y1="445" x2="790" y2="445" stroke="#333"/>
<text x="350.0" y="495" font-family="Arial" font-size="13">normalized singular-value rank</text>
<text x="18" y="325.0" transform="rotate(-90 18,325.0)" font-family="Arial" font-size="13">singular value / largest</text>
<line x1="80" y1="45.0" x2="790" y2="45.0" stroke="#ddd"/>
<text x="34" y="49.0" font-family="Arial" font-size="11">1</text>
<line x1="80" y1="145.0" x2="790" y2="145.0" stroke="#ddd"/>
<text x="34" y="149.0" font-family="Arial" font-size="11">1e-1</text>
<line x1="80" y1="245.0" x2="790" y2="245.0" stroke="#ddd"/>
<text x="34" y="249.0" font-family="Arial" font-size="11">1e-2</text>
<line x1="80" y1="345.0" x2="790" y2="345.0" stroke="#ddd"/>
<text x="34" y="349.0" font-family="Arial" font-size="11">1e-3</text>
<line x1="80" y1="445.0" x2="790" y2="445.0" stroke="#ddd"/>
<text x="34" y="449.0" font-family="Arial" font-size="11">1e-4</text>
<polyline fill="none" stroke="#1f77b4" stroke-width="2.2" points="80.0,45.0 85.6,50.3 91.2,56.3 96.8,59.4 102.4,62.6 108.0,64.0 113.5,65.4 119.1,66.6 124.7,67.8 130.3,68.5 135.9,69.2 141.5,69.8 147.1,70.4 152.7,71.3 158.3,72.2 163.9,73.3 169.4,74.5 175.0,75.1 180.6,75.7 186.2,76.3 191.8,76.9 197.4,77.6 203.0,78.3 208.6,78.8 214.2,79.2 219.8,79.8 225.4,80.5 230.9,81.1 236.5,81.8 242.1,82.4 247.7,83.0 253.3,83.6 258.9,84.2 264.5,84.7 270.1,85.2 275.7,85.5 281.3,85.7 286.9,86.5 292.4,87.7 298.0,88.3 303.6,88.7 309.2,89.1 314.8,89.5 320.4,90.1 326.0,90.7 331.6,91.3 337.2,91.7 342.8,92.0 348.3,92.3 353.9,92.8 359.5,93.6 365.1,94.1 370.7,94.6 376.3,95.0 381.9,95.5 387.5,96.0 393.1,96.5 398.7,97.2 404.3,97.9 409.8,98.4 415.4,98.7 421.0,99.1 426.6,99.7 432.2,100.4 437.8,101.4 443.4,102.0 449.0,102.4 454.6,102.7 460.2,103.0 465.7,103.2 471.3,103.6 476.9,104.0 482.5,104.8 488.1,105.4 493.7,105.7 499.3,106.2 504.9,106.7 510.5,107.3 516.1,108.1 521.7,108.9 527.2,109.6 532.8,110.3 538.4,111.0 544.0,111.6 549.6,112.1 555.2,112.6 560.8,113.0 566.4,113.5 572.0,114.0 577.6,114.6 583.1,115.0 588.7,115.6 594.3,116.4 599.9,117.2 605.5,117.9 611.1,118.6 616.7,119.3 622.3,120.0 627.9,120.7 633.5,121.4 639.1,122.1 644.6,122.7 650.2,123.1 655.8,123.6 661.4,124.7 667.0,125.8 672.6,126.1 678.2,126.6 683.8,127.3 689.4,128.1 695.0,128.5 700.6,129.1 706.1,130.5 711.7,131.9 717.3,132.7 722.9,133.6 728.5,134.6 734.1,135.7 739.7,137.1 745.3,138.6 750.9,139.8 756.5,141.0 762.0,141.9 767.6,142.8 773.2,144.6 778.8,146.6 784.4,149.1 790.0,151.8"/>
<line x1="530" y1="53" x2="550" y2="53" stroke="#1f77b4" stroke-width="3"/>
<text x="556" y="57" font-family="Arial" font-size="11">inverse-kv-zipf-baseline</text>
<polyline fill="none" stroke="#d62728" stroke-width="2.2" points="80.0,45.0 85.6,50.7 91.2,57.3 96.8,59.0 102.4,60.6 108.0,62.4 113.5,64.2 119.1,65.0 124.7,65.8 130.3,66.7 135.9,67.6 141.5,68.8 147.1,70.2 152.7,71.0 158.3,71.7 163.9,72.1 169.4,72.6 175.0,73.4 180.6,74.4 186.2,75.2 191.8,76.0 197.4,76.3 203.0,76.7 208.6,77.2 214.2,77.8 219.8,78.8 225.4,79.9 230.9,80.5 236.5,81.0 242.1,81.8 247.7,82.7 253.3,83.2 258.9,83.7 264.5,84.2 270.1,84.8 275.7,85.2 281.3,85.6 286.9,86.0 292.4,86.5 298.0,86.9 303.6,87.3 309.2,87.8 314.8,88.4 320.4,89.0 326.0,89.6 331.6,90.1 337.2,90.5 342.8,91.1 348.3,91.9 353.9,92.5 359.5,92.8 365.1,93.4 370.7,94.0 376.3,94.5 381.9,94.8 387.5,95.1 393.1,95.3 398.7,95.8 404.3,96.6 409.8,97.1 415.4,97.5 421.0,97.9 426.6,98.5 432.2,99.0 437.8,99.3 443.4,99.6 449.0,100.0 454.6,100.4 460.2,100.9 465.7,101.6 471.3,102.5 476.9,103.1 482.5,103.5 488.1,103.9 493.7,104.5 499.3,105.1 504.9,105.6 510.5,106.1 516.1,106.5 521.7,107.1 527.2,107.8 532.8,108.4 538.4,108.9 544.0,109.4 549.6,109.7 555.2,110.1 560.8,110.8 566.4,111.4 572.0,112.0 577.6,112.5 583.1,113.0 588.7,113.6 594.3,114.2 599.9,114.8 605.5,115.5 611.1,116.2 616.7,116.9 622.3,117.7 627.9,118.5 633.5,119.2 639.1,119.7 644.6,120.4 650.2,121.7 655.8,122.9 661.4,123.3 667.0,123.8 672.6,124.6 678.2,125.5 683.8,126.3 689.4,127.0 695.0,127.8 700.6,128.6 706.1,129.6 711.7,130.6 717.3,131.2 722.9,131.9 728.5,133.8 734.1,135.7 739.7,136.6 745.3,137.6 750.9,138.5 756.5,139.5 762.0,140.2 767.6,140.9 773.2,143.8 778.8,146.9 784.4,147.8 790.0,148.8"/>
<line x1="530" y1="71" x2="550" y2="71" stroke="#d62728" stroke-width="3"/>
<text x="556" y="75" font-family="Arial" font-size="11">inverse-kv-zipf-attn-output-router</text>
<polyline fill="none" stroke="#2ca02c" stroke-width="2.2" points="80.0,45.0 85.6,49.6 91.2,54.8 96.8,57.2 102.4,59.8 108.0,60.2 113.5,60.5 119.1,62.0 124.7,63.7 130.3,64.8 135.9,65.8 141.5,66.2 147.1,66.6 152.7,67.0 158.3,67.5 163.9,68.5 169.4,69.6 175.0,70.1 180.6,70.4 186.2,71.1 191.8,71.9 197.4,72.5 203.0,73.0 208.6,73.3 214.2,73.6 219.8,74.2 225.4,74.8 230.9,75.4 236.5,75.9 242.1,76.5 247.7,77.2 253.3,77.7 258.9,78.1 264.5,78.3 270.1,78.5 275.7,79.1 281.3,79.9 286.9,80.6 292.4,81.2 298.0,81.8 303.6,82.4 309.2,82.9 314.8,83.3 320.4,83.7 326.0,84.0 331.6,84.4 337.2,84.9 342.8,85.5 348.3,86.1 353.9,86.7 359.5,87.4 365.1,88.0 370.7,88.5 376.3,89.1 381.9,89.7 387.5,90.2 393.1,90.5 398.7,90.9 404.3,91.2 409.8,91.7 415.4,92.3 421.0,92.9 426.6,93.4 432.2,93.8 437.8,94.3 443.4,94.9 449.0,95.6 454.6,96.2 460.2,96.8 465.7,97.2 471.3,97.6 476.9,98.1 482.5,98.9 488.1,99.6 493.7,100.2 499.3,100.7 504.9,101.2 510.5,101.7 516.1,102.3 521.7,102.8 527.2,103.2 532.8,103.6 538.4,104.0 544.0,104.4 549.6,104.8 555.2,105.5 560.8,106.3 566.4,107.1 572.0,107.6 577.6,108.2 583.1,108.8 588.7,109.4 594.3,109.8 599.9,110.4 605.5,111.4 611.1,112.2 616.7,112.4 622.3,112.9 627.9,114.2 633.5,115.4 639.1,116.0 644.6,116.6 650.2,117.3 655.8,117.9 661.4,118.4 667.0,119.0 672.6,119.7 678.2,120.5 683.8,121.0 689.4,121.6 695.0,123.0 700.6,124.4 706.1,125.4 711.7,126.3 717.3,127.2 722.9,128.2 728.5,128.9 734.1,129.8 739.7,131.2 745.3,132.7 750.9,133.7 756.5,134.8 762.0,136.0 767.6,137.2 773.2,139.2 778.8,141.3 784.4,143.6 790.0,146.0"/>
<line x1="530" y1="89" x2="550" y2="89" stroke="#2ca02c" stroke-width="3"/>
<text x="556" y="93" font-family="Arial" font-size="11">inverse-kv-zipf-head-moe-hidden-router</text>
<polyline fill="none" stroke="#9467bd" stroke-width="2.2" points="80.0,45.0 85.6,51.0 91.2,58.0 96.8,59.3 102.4,60.6 108.0,62.3 113.5,64.1 119.1,64.9 124.7,65.7 130.3,66.6 135.9,67.5 141.5,68.4 147.1,69.3 152.7,70.1 158.3,70.9 163.9,71.4 169.4,71.9 175.0,72.5 180.6,73.0 186.2,73.8 191.8,74.7 197.4,75.2 203.0,75.7 208.6,76.2 214.2,76.7 219.8,77.3 225.4,77.9 230.9,78.3 236.5,78.6 242.1,79.1 247.7,79.6 253.3,80.1 258.9,80.5 264.5,81.2 270.1,82.0 275.7,82.6 281.3,83.2 286.9,83.8 292.4,84.4 298.0,84.9 303.6,85.2 309.2,85.8 314.8,86.4 320.4,86.8 326.0,87.1 331.6,87.6 337.2,88.2 342.8,88.7 348.3,89.2 353.9,89.8 359.5,90.5 365.1,90.9 370.7,91.3 376.3,91.7 381.9,92.1 387.5,92.6 393.1,92.9 398.7,93.3 404.3,93.7 409.8,94.1 415.4,94.5 421.0,95.0 426.6,95.6 432.2,96.2 437.8,96.8 443.4,97.3 449.0,97.7 454.6,98.1 460.2,98.4 465.7,98.8 471.3,99.2 476.9,99.7 482.5,100.3 488.1,101.0 493.7,101.8 499.3,102.5 504.9,103.3 510.5,103.9 516.1,104.6 521.7,105.0 527.2,105.3 532.8,105.7 538.4,106.5 544.0,107.1 549.6,107.4 555.2,107.8 560.8,108.6 566.4,109.4 572.0,110.1 577.6,110.8 583.1,111.3 588.7,111.9 594.3,112.5 599.9,113.2 605.5,113.9 611.1,114.6 616.7,115.2 622.3,115.9 627.9,116.7 633.5,117.6 639.1,118.2 644.6,118.8 650.2,119.5 655.8,120.2 661.4,121.1 667.0,122.0 672.6,122.8 678.2,123.7 683.8,124.5 689.4,125.3 695.0,126.3 700.6,127.4 706.1,128.2 711.7,129.0 717.3,129.8 722.9,130.5 728.5,131.3 734.1,132.1 739.7,133.5 745.3,134.9 750.9,135.8 756.5,136.7 762.0,138.4 767.6,140.2 773.2,141.5 778.8,142.8 784.4,144.2 790.0,145.6"/>
<line x1="530" y1="107" x2="550" y2="107" stroke="#9467bd" stroke-width="3"/>
<text x="556" y="111" font-family="Arial" font-size="11">inverse-kv-zipf-attn-output-head-moe</text>
</svg>