<svg xmlns="http://www.w3.org/2000/svg" width="820" height="520" viewBox="0 0 820 520">
<rect width="100%" height="100%" fill="white"/>
<text x="80" y="28" font-family="Arial" font-size="18">attention.q_proj</text>
<line x1="80" y1="45" x2="80" y2="445" stroke="#333"/>
<line x1="80" y1="445" x2="790" y2="445" stroke="#333"/>
<text x="350.0" y="495" font-family="Arial" font-size="13">normalized singular-value rank</text>
<text x="18" y="325.0" transform="rotate(-90 18,325.0)" font-family="Arial" font-size="13">singular value / largest</text>
<line x1="80" y1="45.0" x2="790" y2="45.0" stroke="#ddd"/>
<text x="34" y="49.0" font-family="Arial" font-size="11">1</text>
<line x1="80" y1="145.0" x2="790" y2="145.0" stroke="#ddd"/>
<text x="34" y="149.0" font-family="Arial" font-size="11">1e-1</text>
<line x1="80" y1="245.0" x2="790" y2="245.0" stroke="#ddd"/>
<text x="34" y="249.0" font-family="Arial" font-size="11">1e-2</text>
<line x1="80" y1="345.0" x2="790" y2="345.0" stroke="#ddd"/>
<text x="34" y="349.0" font-family="Arial" font-size="11">1e-3</text>
<line x1="80" y1="445.0" x2="790" y2="445.0" stroke="#ddd"/>
<text x="34" y="449.0" font-family="Arial" font-size="11">1e-4</text>
<polyline fill="none" stroke="#1f77b4" stroke-width="2.2" points="80.0,45.0 85.6,54.2 91.2,58.0 96.8,59.6 102.4,61.9 108.0,62.6 113.5,64.4 119.1,65.7 124.7,67.3 130.3,68.7 135.9,69.3 141.5,70.3 147.1,71.5 152.7,72.2 158.3,72.8 163.9,74.3 169.4,75.1 175.0,76.3 180.6,77.0 186.2,78.0 191.8,79.0 197.4,79.5 203.0,80.0 208.6,81.1 214.2,82.0 219.8,82.9 225.4,83.7 230.9,84.4 236.5,85.1 242.1,85.4 247.7,86.5 253.3,87.0 258.9,87.9 264.5,89.5 270.1,90.2 275.7,90.6 281.3,91.4 286.9,92.1 292.4,93.0 298.0,93.5 303.6,94.2 309.2,94.8 314.8,95.7 320.4,96.7 326.0,97.0 331.6,97.4 337.2,98.2 342.8,98.9 348.3,99.5 353.9,100.1 359.5,101.0 365.1,101.4 370.7,102.1 376.3,103.1 381.9,103.6 387.5,104.4 393.1,105.5 398.7,106.3 404.3,107.5 409.8,108.0 415.4,108.7 421.0,109.4 426.6,110.1 432.2,111.0 437.8,111.8 443.4,112.5 449.0,113.4 454.6,114.1 460.2,115.1 465.7,116.2 471.3,117.3 476.9,118.2 482.5,118.9 488.1,119.5 493.7,120.1 499.3,121.1 504.9,122.0 510.5,123.3 516.1,124.6 521.7,125.9 527.2,126.5 532.8,128.0 538.4,129.0 544.0,130.5 549.6,131.4 555.2,132.4 560.8,133.2 566.4,135.1 572.0,135.9 577.6,137.5 583.1,138.0 588.7,139.5 594.3,140.7 599.9,142.0 605.5,143.1 611.1,144.6 616.7,146.5 622.3,147.4 627.9,148.7 633.5,150.5 639.1,151.8 644.6,153.6 650.2,155.3 655.8,157.3 661.4,159.2 667.0,160.6 672.6,162.3 678.2,164.1 683.8,166.0 689.4,169.0 695.0,170.2 700.6,174.4 706.1,176.2 711.7,178.1 717.3,180.9 722.9,185.7 728.5,189.3 734.1,191.9 739.7,197.0 745.3,201.7 750.9,207.2 756.5,214.3 762.0,220.3 767.6,226.9 773.2,236.9 778.8,259.4 784.4,278.8 790.0,312.8"/>
<line x1="530" y1="53" x2="550" y2="53" stroke="#1f77b4" stroke-width="3"/>
<text x="556" y="57" font-family="Arial" font-size="11">inverse-kv-zipf-baseline</text>
<polyline fill="none" stroke="#d62728" stroke-width="2.2" points="80.0,45.0 85.6,54.6 91.2,57.1 96.8,59.3 102.4,60.8 108.0,61.4 113.5,63.2 119.1,65.0 124.7,66.0 130.3,67.0 135.9,67.9 141.5,68.4 147.1,69.5 152.7,70.2 158.3,71.3 163.9,72.2 169.4,73.2 175.0,73.9 180.6,74.3 186.2,75.6 191.8,76.6 197.4,77.1 203.0,77.8 208.6,78.2 214.2,79.6 219.8,80.1 225.4,80.9 230.9,81.5 236.5,82.6 242.1,83.5 247.7,84.1 253.3,85.0 258.9,85.9 264.5,86.6 270.1,87.3 275.7,88.2 281.3,88.7 286.9,89.4 292.4,89.8 298.0,90.6 303.6,91.8 309.2,92.4 314.8,92.7 320.4,93.3 326.0,94.6 331.6,95.3 337.2,96.0 342.8,96.5 348.3,97.4 353.9,98.3 359.5,98.7 365.1,99.6 370.7,100.3 376.3,101.3 381.9,101.7 387.5,102.6 393.1,103.4 398.7,103.7 404.3,104.5 409.8,105.4 415.4,106.3 421.0,107.3 426.6,108.3 432.2,109.3 437.8,109.8 443.4,111.0 449.0,111.4 454.6,112.5 460.2,113.4 465.7,113.9 471.3,114.8 476.9,115.2 482.5,116.4 488.1,117.3 493.7,118.6 499.3,119.2 504.9,120.2 510.5,121.4 516.1,122.0 521.7,123.1 527.2,123.8 532.8,125.0 538.4,126.0 544.0,126.9 549.6,128.0 555.2,129.9 560.8,130.5 566.4,131.7 572.0,132.7 577.6,133.5 583.1,134.6 588.7,136.2 594.3,137.3 599.9,138.5 605.5,139.7 611.1,141.4 616.7,142.9 622.3,144.2 627.9,145.2 633.5,146.4 639.1,148.2 644.6,150.1 650.2,152.5 655.8,153.6 661.4,155.9 667.0,157.4 672.6,159.0 678.2,160.9 683.8,162.6 689.4,165.2 695.0,168.6 700.6,170.9 706.1,175.3 711.7,177.9 717.3,181.2 722.9,184.4 728.5,188.2 734.1,192.4 739.7,197.7 745.3,201.8 750.9,206.9 756.5,212.4 762.0,223.3 767.6,233.4 773.2,243.7 778.8,262.9 784.4,309.4 790.0,348.9"/>
<line x1="530" y1="71" x2="550" y2="71" stroke="#d62728" stroke-width="3"/>
<text x="556" y="75" font-family="Arial" font-size="11">inverse-kv-zipf-attn-output-router</text>
<polyline fill="none" stroke="#2ca02c" stroke-width="2.2" points="80.0,45.0 85.6,51.7 91.2,54.8 96.8,56.9 102.4,58.2 108.0,59.5 113.5,60.7 119.1,61.4 124.7,62.7 130.3,63.2 135.9,64.5 141.5,65.4 147.1,66.6 152.7,67.4 158.3,68.3 163.9,69.0 169.4,69.9 175.0,70.6 180.6,71.5 186.2,72.5 191.8,72.8 197.4,73.3 203.0,74.3 208.6,75.2 214.2,76.0 219.8,77.1 225.4,77.6 230.9,78.5 236.5,79.3 242.1,79.9 247.7,80.5 253.3,81.3 258.9,81.8 264.5,83.2 270.1,84.1 275.7,84.5 281.3,85.1 286.9,86.3 292.4,87.1 298.0,87.5 303.6,87.8 309.2,88.6 314.8,89.6 320.4,90.2 326.0,91.0 331.6,91.6 337.2,92.2 342.8,93.0 348.3,93.5 353.9,94.3 359.5,95.2 365.1,96.0 370.7,96.6 376.3,97.3 381.9,98.0 387.5,98.8 393.1,99.2 398.7,100.4 404.3,100.9 409.8,102.0 415.4,102.8 421.0,103.4 426.6,104.3 432.2,105.2 437.8,105.9 443.4,106.9 449.0,107.6 454.6,108.4 460.2,109.4 465.7,110.1 471.3,110.9 476.9,111.7 482.5,113.1 488.1,114.1 493.7,114.7 499.3,115.6 504.9,116.9 510.5,117.5 516.1,118.4 521.7,119.2 527.2,120.1 532.8,120.8 538.4,122.0 544.0,122.9 549.6,125.0 555.2,125.8 560.8,126.7 566.4,127.5 572.0,128.6 577.6,130.3 583.1,131.6 588.7,132.9 594.3,134.3 599.9,134.9 605.5,136.8 611.1,137.9 616.7,140.0 622.3,141.0 627.9,143.2 633.5,144.6 639.1,145.6 644.6,148.0 650.2,150.5 655.8,151.3 661.4,152.9 667.0,156.0 672.6,157.3 678.2,159.1 683.8,161.3 689.4,163.3 695.0,165.9 700.6,167.8 706.1,169.7 711.7,174.2 717.3,175.8 722.9,179.7 728.5,183.9 734.1,186.9 739.7,191.6 745.3,194.5 750.9,202.1 756.5,208.3 762.0,215.7 767.6,227.6 773.2,241.5 778.8,261.6 784.4,279.5 790.0,331.6"/>
<line x1="530" y1="89" x2="550" y2="89" stroke="#2ca02c" stroke-width="3"/>
<text x="556" y="93" font-family="Arial" font-size="11">inverse-kv-zipf-head-moe-hidden-router</text>
<polyline fill="none" stroke="#9467bd" stroke-width="2.2" points="80.0,45.0 85.6,51.5 91.2,55.4 96.8,58.1 102.4,58.9 108.0,60.9 113.5,61.8 119.1,62.8 124.7,63.6 130.3,64.7 135.9,65.5 141.5,66.4 147.1,67.1 152.7,68.1 158.3,69.2 163.9,69.8 169.4,70.7 175.0,71.4 180.6,72.6 186.2,73.0 191.8,74.2 197.4,74.7 203.0,75.5 208.6,76.6 214.2,77.2 219.8,78.0 225.4,78.7 230.9,79.3 236.5,79.9 242.1,80.8 247.7,81.6 253.3,82.0 258.9,82.9 264.5,84.3 270.1,85.0 275.7,85.6 281.3,86.0 286.9,86.6 292.4,87.5 298.0,88.2 303.6,88.7 309.2,89.4 314.8,90.2 320.4,90.8 326.0,91.8 331.6,92.3 337.2,92.9 342.8,93.4 348.3,94.6 353.9,95.7 359.5,96.6 365.1,97.1 370.7,97.6 376.3,98.2 381.9,99.1 387.5,100.4 393.1,101.0 398.7,101.8 404.3,102.6 409.8,103.3 415.4,103.9 421.0,104.8 426.6,105.7 432.2,106.7 437.8,107.1 443.4,107.7 449.0,108.8 454.6,109.4 460.2,110.3 465.7,111.3 471.3,112.3 476.9,112.8 482.5,113.5 488.1,114.8 493.7,115.5 499.3,116.0 504.9,117.2 510.5,118.1 516.1,119.2 521.7,120.3 527.2,121.2 532.8,121.8 538.4,122.8 544.0,124.0 549.6,125.7 555.2,126.6 560.8,127.8 566.4,128.6 572.0,129.5 577.6,130.9 583.1,132.6 588.7,133.5 594.3,134.9 599.9,136.3 605.5,137.0 611.1,137.9 616.7,140.0 622.3,141.6 627.9,142.8 633.5,143.9 639.1,145.6 644.6,147.2 650.2,148.2 655.8,150.4 661.4,152.2 667.0,154.8 672.6,156.1 678.2,158.4 683.8,160.0 689.4,161.5 695.0,164.1 700.6,167.4 706.1,169.3 711.7,173.6 717.3,176.4 722.9,179.3 728.5,181.7 734.1,186.5 739.7,189.5 745.3,197.3 750.9,203.2 756.5,211.1 762.0,215.6 767.6,228.3 773.2,234.6 778.8,261.2 784.4,292.8 790.0,327.1"/>
<line x1="530" y1="107" x2="550" y2="107" stroke="#9467bd" stroke-width="3"/>
<text x="556" y="111" font-family="Arial" font-size="11">inverse-kv-zipf-attn-output-head-moe</text>
</svg>