<svg xmlns="http://www.w3.org/2000/svg" width="820" height="520" viewBox="0 0 820 520">
<rect width="100%" height="100%" fill="white"/>
<text x="80" y="28" font-family="Arial" font-size="18">attention.v_proj</text>
<line x1="80" y1="45" x2="80" y2="445" stroke="#333"/>
<line x1="80" y1="445" x2="790" y2="445" stroke="#333"/>
<text x="350.0" y="495" font-family="Arial" font-size="13">normalized singular-value rank</text>
<text x="18" y="325.0" transform="rotate(-90 18,325.0)" font-family="Arial" font-size="13">singular value / largest</text>
<line x1="80" y1="45.0" x2="790" y2="45.0" stroke="#ddd"/>
<text x="34" y="49.0" font-family="Arial" font-size="11">1</text>
<line x1="80" y1="145.0" x2="790" y2="145.0" stroke="#ddd"/>
<text x="34" y="149.0" font-family="Arial" font-size="11">1e-1</text>
<line x1="80" y1="245.0" x2="790" y2="245.0" stroke="#ddd"/>
<text x="34" y="249.0" font-family="Arial" font-size="11">1e-2</text>
<line x1="80" y1="345.0" x2="790" y2="345.0" stroke="#ddd"/>
<text x="34" y="349.0" font-family="Arial" font-size="11">1e-3</text>
<line x1="80" y1="445.0" x2="790" y2="445.0" stroke="#ddd"/>
<text x="34" y="449.0" font-family="Arial" font-size="11">1e-4</text>
<polyline fill="none" stroke="#1f77b4" stroke-width="2.2" points="80.0,45.0 85.6,46.8 91.2,48.7 96.8,49.7 102.4,50.8 108.0,51.5 113.5,52.2 119.1,52.8 124.7,53.4 130.3,54.0 135.9,54.6 141.5,55.3 147.1,56.0 152.7,56.4 158.3,56.8 163.9,57.4 169.4,57.9 175.0,58.5 180.6,59.0 186.2,59.8 191.8,60.6 197.4,61.2 203.0,61.9 208.6,62.5 214.2,63.1 219.8,63.7 225.4,64.3 230.9,64.6 236.5,64.9 242.1,65.4 247.7,65.9 253.3,66.3 258.9,66.7 264.5,67.2 270.1,67.8 275.7,68.3 281.3,68.7 286.9,69.1 292.4,69.5 298.0,69.9 303.6,70.3 309.2,70.7 314.8,71.1 320.4,71.7 326.0,72.5 331.6,73.1 337.2,73.7 342.8,74.1 348.3,74.3 353.9,74.5 359.5,74.9 365.1,75.4 370.7,76.0 376.3,76.4 381.9,76.7 387.5,77.2 393.1,77.7 398.7,78.3 404.3,78.8 409.8,79.3 415.4,79.8 421.0,80.3 426.6,80.7 432.2,81.2 437.8,81.7 443.4,82.3 449.0,83.0 454.6,83.5 460.2,83.9 465.7,84.4 471.3,85.1 476.9,85.7 482.5,86.1 488.1,86.5 493.7,87.0 499.3,87.4 504.9,87.8 510.5,88.2 516.1,88.6 521.7,89.2 527.2,90.2 532.8,91.1 538.4,91.6 544.0,92.1 549.6,92.5 555.2,93.0 560.8,93.8 566.4,94.6 572.0,95.5 577.6,96.3 583.1,96.5 588.7,96.8 594.3,97.2 599.9,97.8 605.5,98.7 611.1,99.7 616.7,100.6 622.3,101.4 627.9,101.9 633.5,102.4 639.1,103.0 644.6,103.6 650.2,104.3 655.8,105.0 661.4,105.6 667.0,106.2 672.6,107.2 678.2,108.1 683.8,109.1 689.4,110.0 695.0,110.6 700.6,111.1 706.1,111.6 711.7,112.1 717.3,113.0 722.9,114.0 728.5,115.2 734.1,116.4 739.7,117.4 745.3,118.3 750.9,119.1 756.5,119.9 762.0,121.4 767.6,123.1 773.2,126.0 778.8,129.0 784.4,130.7 790.0,132.4"/>
<line x1="530" y1="53" x2="550" y2="53" stroke="#1f77b4" stroke-width="3"/>
<text x="556" y="57" font-family="Arial" font-size="11">inverse-kv-zipf-baseline</text>
<polyline fill="none" stroke="#d62728" stroke-width="2.2" points="80.0,45.0 85.6,45.8 91.2,46.6 96.8,47.8 102.4,49.0 108.0,50.2 113.5,51.4 119.1,52.0 124.7,52.6 130.3,53.2 135.9,53.7 141.5,54.7 147.1,55.7 152.7,56.2 158.3,56.6 163.9,57.2 169.4,57.9 175.0,58.4 180.6,58.8 186.2,59.2 191.8,59.5 197.4,60.0 203.0,60.5 208.6,60.8 214.2,61.1 219.8,61.6 225.4,62.1 230.9,62.8 236.5,63.4 242.1,63.9 247.7,64.3 253.3,64.8 258.9,65.3 264.5,65.9 270.1,66.6 275.7,67.1 281.3,67.6 286.9,67.9 292.4,68.3 298.0,68.7 303.6,69.2 309.2,69.7 314.8,70.2 320.4,70.7 326.0,71.1 331.6,71.5 337.2,71.9 342.8,72.3 348.3,72.6 353.9,73.0 359.5,73.5 365.1,74.2 370.7,75.2 376.3,75.9 381.9,76.3 387.5,76.7 393.1,77.1 398.7,77.5 404.3,77.9 409.8,78.2 415.4,78.5 421.0,78.8 426.6,79.2 432.2,79.7 437.8,80.3 443.4,80.8 449.0,81.2 454.6,81.7 460.2,82.2 465.7,82.6 471.3,83.0 476.9,83.4 482.5,83.9 488.1,84.4 493.7,85.2 499.3,85.8 504.9,86.3 510.5,86.8 516.1,87.3 521.7,87.9 527.2,88.6 532.8,89.3 538.4,89.9 544.0,90.6 549.6,91.3 555.2,91.9 560.8,92.1 566.4,92.4 572.0,92.8 577.6,93.3 583.1,93.8 588.7,94.4 594.3,95.3 599.9,96.1 605.5,96.6 611.1,97.2 616.7,97.8 622.3,98.5 627.9,98.9 633.5,99.4 639.1,100.3 644.6,101.2 650.2,102.0 655.8,102.8 661.4,103.5 667.0,104.2 672.6,104.9 678.2,105.7 683.8,106.7 689.4,107.7 695.0,108.4 700.6,109.0 706.1,109.6 711.7,110.3 717.3,111.2 722.9,112.1 728.5,113.4 734.1,114.7 739.7,115.3 745.3,115.9 750.9,116.7 756.5,117.6 762.0,119.3 767.6,121.0 773.2,122.5 778.8,124.0 784.4,126.2 790.0,128.5"/>
<line x1="530" y1="71" x2="550" y2="71" stroke="#d62728" stroke-width="3"/>
<text x="556" y="75" font-family="Arial" font-size="11">inverse-kv-zipf-attn-output-router</text>
<polyline fill="none" stroke="#2ca02c" stroke-width="2.2" points="80.0,45.0 85.6,46.5 91.2,48.0 96.8,49.0 102.4,49.9 108.0,50.6 113.5,51.3 119.1,52.0 124.7,52.8 130.3,53.7 135.9,54.7 141.5,55.0 147.1,55.4 152.7,55.8 158.3,56.1 163.9,56.6 169.4,57.0 175.0,57.6 180.6,58.2 186.2,58.8 191.8,59.3 197.4,59.7 203.0,60.0 208.6,60.5 214.2,61.1 219.8,61.6 225.4,62.1 230.9,62.4 236.5,62.8 242.1,63.3 247.7,63.9 253.3,64.5 258.9,65.1 264.5,65.5 270.1,65.8 275.7,66.4 281.3,67.0 286.9,67.4 292.4,67.7 298.0,68.1 303.6,68.6 309.2,69.0 314.8,69.4 320.4,69.9 326.0,70.4 331.6,70.8 337.2,71.0 342.8,71.3 348.3,71.6 353.9,72.1 359.5,72.7 365.1,73.3 370.7,73.9 376.3,74.4 381.9,74.8 387.5,75.3 393.1,75.9 398.7,76.5 404.3,77.0 409.8,77.4 415.4,77.7 421.0,78.1 426.6,78.7 432.2,79.1 437.8,79.4 443.4,79.9 449.0,80.7 454.6,81.2 460.2,81.5 465.7,81.9 471.3,82.7 476.9,83.5 482.5,84.2 488.1,84.8 493.7,85.2 499.3,85.5 504.9,86.0 510.5,86.4 516.1,86.7 521.7,87.1 527.2,87.7 532.8,88.3 538.4,88.8 544.0,89.3 549.6,89.9 555.2,90.6 560.8,91.3 566.4,91.9 572.0,92.2 577.6,92.6 583.1,93.2 588.7,93.8 594.3,94.4 599.9,95.0 605.5,95.5 611.1,96.0 616.7,96.9 622.3,97.7 627.9,98.3 633.5,98.9 639.1,99.8 644.6,100.6 650.2,101.4 655.8,102.1 661.4,103.0 667.0,103.9 672.6,105.2 678.2,106.4 683.8,107.2 689.4,108.1 695.0,109.2 700.6,110.2 706.1,110.7 711.7,111.3 717.3,111.8 722.9,112.4 728.5,113.4 734.1,114.4 739.7,115.2 745.3,115.9 750.9,117.2 756.5,118.6 762.0,120.3 767.6,122.1 773.2,122.9 778.8,123.8 784.4,125.2 790.0,126.5"/>
<line x1="530" y1="89" x2="550" y2="89" stroke="#2ca02c" stroke-width="3"/>
<text x="556" y="93" font-family="Arial" font-size="11">inverse-kv-zipf-head-moe-hidden-router</text>
<polyline fill="none" stroke="#9467bd" stroke-width="2.2" points="80.0,45.0 85.6,47.3 91.2,49.8 96.8,50.7 102.4,51.6 108.0,52.4 113.5,53.3 119.1,53.8 124.7,54.4 130.3,55.0 135.9,55.7 141.5,56.2 147.1,56.7 152.7,57.2 158.3,57.7 163.9,58.2 169.4,58.8 175.0,59.2 180.6,59.7 186.2,60.2 191.8,60.6 197.4,61.2 203.0,61.9 208.6,62.2 214.2,62.5 219.8,62.9 225.4,63.3 230.9,64.0 236.5,64.7 242.1,65.0 247.7,65.2 253.3,65.6 258.9,66.1 264.5,66.5 270.1,66.8 275.7,67.3 281.3,67.9 286.9,68.3 292.4,68.7 298.0,69.3 303.6,69.8 309.2,70.4 314.8,71.0 320.4,71.5 326.0,72.1 331.6,72.5 337.2,72.9 342.8,73.3 348.3,73.8 353.9,74.1 359.5,74.4 365.1,74.7 370.7,75.1 376.3,75.5 381.9,76.0 387.5,76.6 393.1,77.1 398.7,77.7 404.3,78.4 409.8,78.9 415.4,79.4 421.0,79.7 426.6,80.0 432.2,80.5 437.8,81.1 443.4,81.7 449.0,82.1 454.6,82.8 460.2,83.6 465.7,84.1 471.3,84.3 476.9,84.7 482.5,85.2 488.1,85.8 493.7,86.3 499.3,86.8 504.9,87.3 510.5,87.8 516.1,88.6 521.7,89.3 527.2,90.0 532.8,90.6 538.4,91.1 544.0,91.5 549.6,92.0 555.2,92.5 560.8,93.1 566.4,93.6 572.0,94.0 577.6,94.6 583.1,95.5 588.7,96.3 594.3,97.0 599.9,97.7 605.5,98.4 611.1,99.1 616.7,99.5 622.3,99.9 627.9,100.3 633.5,100.8 639.1,101.4 644.6,102.1 650.2,103.1 655.8,104.0 661.4,104.9 667.0,105.6 672.6,106.2 678.2,106.8 683.8,107.6 689.4,108.4 695.0,110.0 700.6,111.5 706.1,112.0 711.7,112.5 717.3,113.3 722.9,114.2 728.5,115.2 734.1,116.2 739.7,117.0 745.3,117.8 750.9,118.9 756.5,120.1 762.0,121.5 767.6,123.1 773.2,124.9 778.8,126.9 784.4,129.5 790.0,132.3"/>
<line x1="530" y1="107" x2="550" y2="107" stroke="#9467bd" stroke-width="3"/>
<text x="556" y="111" font-family="Arial" font-size="11">inverse-kv-zipf-attn-output-head-moe</text>
</svg>