<svg xmlns="http://www.w3.org/2000/svg" width="820" height="520" viewBox="0 0 820 520">
<rect width="100%" height="100%" fill="white"/>
<text x="80" y="28" font-family="Arial" font-size="18">moe_expert.down_proj</text>
<line x1="80" y1="45" x2="80" y2="445" stroke="#333"/>
<line x1="80" y1="445" x2="790" y2="445" stroke="#333"/>
<text x="350.0" y="495" font-family="Arial" font-size="13">normalized singular-value rank</text>
<text x="18" y="325.0" transform="rotate(-90 18,325.0)" font-family="Arial" font-size="13">singular value / largest</text>
<line x1="80" y1="45.0" x2="790" y2="45.0" stroke="#ddd"/>
<text x="34" y="49.0" font-family="Arial" font-size="11">1</text>
<line x1="80" y1="145.0" x2="790" y2="145.0" stroke="#ddd"/>
<text x="34" y="149.0" font-family="Arial" font-size="11">1e-1</text>
<line x1="80" y1="245.0" x2="790" y2="245.0" stroke="#ddd"/>
<text x="34" y="249.0" font-family="Arial" font-size="11">1e-2</text>
<line x1="80" y1="345.0" x2="790" y2="345.0" stroke="#ddd"/>
<text x="34" y="349.0" font-family="Arial" font-size="11">1e-3</text>
<line x1="80" y1="445.0" x2="790" y2="445.0" stroke="#ddd"/>
<text x="34" y="449.0" font-family="Arial" font-size="11">1e-4</text>
<polyline fill="none" stroke="#1f77b4" stroke-width="2.2" points="80.0,45.0 85.6,51.1 91.2,53.6 96.8,55.6 102.4,57.9 108.0,59.3 113.5,60.8 119.1,61.8 124.7,62.9 130.3,64.0 135.9,64.7 141.5,65.6 147.1,66.7 152.7,67.6 158.3,68.3 163.9,69.4 169.4,70.2 175.0,71.1 180.6,72.2 186.2,73.0 191.8,73.7 197.4,74.4 203.0,75.1 208.6,76.0 214.2,76.6 219.8,77.6 225.4,78.4 230.9,79.2 236.5,80.1 242.1,80.9 247.7,81.6 253.3,82.5 258.9,83.1 264.5,83.8 270.1,84.7 275.7,85.7 281.3,86.4 286.9,87.3 292.4,88.2 298.0,89.1 303.6,89.8 309.2,90.8 314.8,91.5 320.4,92.4 326.0,93.4 331.6,94.2 337.2,94.9 342.8,95.6 348.3,96.3 353.9,97.4 359.5,97.9 365.1,99.0 370.7,99.8 376.3,100.7 381.9,101.3 387.5,102.2 393.1,103.1 398.7,104.2 404.3,105.1 409.8,105.8 415.4,106.6 421.0,107.4 426.6,108.5 432.2,109.2 437.8,110.1 443.4,111.1 449.0,111.9 454.6,112.8 460.2,113.8 465.7,114.7 471.3,115.4 476.9,116.5 482.5,117.4 488.1,118.4 493.7,119.3 499.3,120.3 504.9,121.2 510.5,122.3 516.1,123.4 521.7,124.3 527.2,125.4 532.8,126.6 538.4,127.5 544.0,128.8 549.6,129.9 555.2,131.3 560.8,132.3 566.4,133.4 572.0,134.4 577.6,135.5 583.1,136.9 588.7,138.3 594.3,139.5 599.9,141.3 605.5,142.7 611.1,143.9 616.7,145.2 622.3,146.6 627.9,147.8 633.5,149.4 639.1,151.3 644.6,153.0 650.2,154.4 655.8,156.5 661.4,158.3 667.0,160.0 672.6,162.6 678.2,164.2 683.8,166.1 689.4,169.2 695.0,171.2 700.6,173.7 706.1,177.3 711.7,179.7 717.3,183.0 722.9,186.5 728.5,190.9 734.1,194.1 739.7,198.0 745.3,203.8 750.9,209.0 756.5,217.1 762.0,224.7 767.6,232.0 773.2,244.3 778.8,259.6 784.4,287.8 790.0,323.8"/>
<line x1="530" y1="53" x2="550" y2="53" stroke="#1f77b4" stroke-width="3"/>
<text x="556" y="57" font-family="Arial" font-size="11">inverse-kv-zipf-baseline</text>
<polyline fill="none" stroke="#d62728" stroke-width="2.2" points="80.0,45.0 85.6,51.4 91.2,54.4 96.8,56.1 102.4,57.6 108.0,59.1 113.5,60.3 119.1,61.2 124.7,62.2 130.3,63.0 135.9,64.5 141.5,65.2 147.1,65.9 152.7,66.7 158.3,67.6 163.9,68.5 169.4,69.3 175.0,70.0 180.6,70.7 186.2,71.5 191.8,72.2 197.4,73.0 203.0,73.6 208.6,74.6 214.2,75.2 219.8,75.8 225.4,76.7 230.9,77.4 236.5,78.1 242.1,78.9 247.7,79.4 253.3,80.1 258.9,80.8 264.5,81.7 270.1,82.3 275.7,83.0 281.3,83.8 286.9,84.5 292.4,85.2 298.0,86.1 303.6,86.9 309.2,87.6 314.8,88.5 320.4,89.1 326.0,89.8 331.6,90.6 337.2,91.2 342.8,92.0 348.3,92.7 353.9,93.4 359.5,94.2 365.1,95.1 370.7,95.8 376.3,96.7 381.9,97.7 387.5,98.5 393.1,99.2 398.7,100.0 404.3,101.2 409.8,102.0 415.4,102.9 421.0,103.6 426.6,104.4 432.2,104.9 437.8,106.1 443.4,107.0 449.0,108.0 454.6,108.8 460.2,110.1 465.7,111.0 471.3,111.8 476.9,112.6 482.5,113.6 488.1,114.5 493.7,115.4 499.3,116.4 504.9,117.6 510.5,118.4 516.1,119.6 521.7,120.8 527.2,121.7 532.8,122.8 538.4,123.9 544.0,125.3 549.6,126.3 555.2,127.3 560.8,128.3 566.4,129.7 572.0,130.9 577.6,131.9 583.1,133.3 588.7,134.5 594.3,136.0 599.9,137.2 605.5,138.4 611.1,139.6 616.7,141.0 622.3,142.5 627.9,144.1 633.5,145.5 639.1,147.6 644.6,148.9 650.2,150.9 655.8,152.6 661.4,154.8 667.0,156.4 672.6,158.2 678.2,160.8 683.8,163.3 689.4,165.7 695.0,168.1 700.6,170.1 706.1,173.3 711.7,176.6 717.3,179.6 722.9,183.2 728.5,186.7 734.1,190.2 739.7,195.8 745.3,201.3 750.9,207.2 756.5,214.3 762.0,219.6 767.6,231.4 773.2,241.8 778.8,258.2 784.4,283.7 790.0,321.6"/>
<line x1="530" y1="71" x2="550" y2="71" stroke="#d62728" stroke-width="3"/>
<text x="556" y="75" font-family="Arial" font-size="11">inverse-kv-zipf-attn-output-router</text>
<polyline fill="none" stroke="#2ca02c" stroke-width="2.2" points="80.0,45.0 85.6,46.4 91.2,47.8 96.8,49.3 102.4,50.9 108.0,51.9 113.5,52.9 119.1,53.9 124.7,54.9 130.3,55.8 135.9,56.6 141.5,57.5 147.1,58.4 152.7,59.3 158.3,60.1 163.9,61.0 169.4,61.8 175.0,62.7 180.6,63.5 186.2,64.2 191.8,65.1 197.4,65.8 203.0,66.6 208.6,67.3 214.2,68.1 219.8,68.9 225.4,69.8 230.9,70.7 236.5,71.7 242.1,72.5 247.7,73.1 253.3,73.8 258.9,74.4 264.5,75.1 270.1,75.8 275.7,76.5 281.3,77.3 286.9,78.1 292.4,78.8 298.0,79.5 303.6,80.3 309.2,81.0 314.8,81.9 320.4,82.7 326.0,83.5 331.6,84.4 337.2,85.1 342.8,85.9 348.3,86.6 353.9,87.4 359.5,88.1 365.1,88.8 370.7,89.5 376.3,90.2 381.9,90.8 387.5,91.5 393.1,92.1 398.7,92.7 404.3,93.3 409.8,93.9 415.4,94.6 421.0,95.2 426.6,95.8 432.2,96.3 437.8,96.9 443.4,97.4 449.0,98.0 454.6,98.7 460.2,99.3 465.7,100.0 471.3,100.7 476.9,101.4 482.5,102.0 488.1,102.7 493.7,103.4 499.3,104.0 504.9,104.5 510.5,105.1 516.1,105.6 521.7,106.1 527.2,106.6 532.8,107.2 538.4,107.7 544.0,108.2 549.6,108.8 555.2,109.4 560.8,110.0 566.4,110.5 572.0,111.0 577.6,111.5 583.1,112.0 588.7,112.6 594.3,113.1 599.9,113.7 605.5,114.3 611.1,114.8 616.7,115.4 622.3,116.0 627.9,116.6 633.5,117.1 639.1,117.6 644.6,118.1 650.2,118.7 655.8,119.2 661.4,119.8 667.0,120.4 672.6,121.0 678.2,121.7 683.8,122.3 689.4,122.9 695.0,123.5 700.6,124.2 706.1,124.8 711.7,125.4 717.3,126.1 722.9,126.7 728.5,127.3 734.1,128.0 739.7,128.6 745.3,129.3 750.9,130.2 756.5,131.1 762.0,132.0 767.6,132.9 773.2,133.8 778.8,134.8 784.4,135.7 790.0,136.7"/>
<line x1="530" y1="89" x2="550" y2="89" stroke="#2ca02c" stroke-width="3"/>
<text x="556" y="93" font-family="Arial" font-size="11">inverse-kv-zipf-head-moe-hidden-router</text>
<polyline fill="none" stroke="#9467bd" stroke-width="2.2" points="80.0,45.0 85.6,46.3 91.2,47.6 96.8,49.0 102.4,50.4 108.0,51.5 113.5,52.5 119.1,53.6 124.7,54.7 130.3,55.5 135.9,56.2 141.5,57.0 147.1,57.7 152.7,58.5 158.3,59.3 163.9,60.1 169.4,60.9 175.0,61.8 180.6,62.6 186.2,63.4 191.8,64.3 197.4,65.0 203.0,65.6 208.6,66.2 214.2,66.9 219.8,67.6 225.4,68.3 230.9,69.0 236.5,69.8 242.1,70.5 247.7,71.2 253.3,71.8 258.9,72.5 264.5,73.1 270.1,73.8 275.7,74.6 281.3,75.3 286.9,76.1 292.4,76.9 298.0,77.7 303.6,78.6 309.2,79.5 314.8,80.1 320.4,80.7 326.0,81.3 331.6,82.0 337.2,82.6 342.8,83.3 348.3,84.0 353.9,84.6 359.5,85.3 365.1,85.9 370.7,86.6 376.3,87.3 381.9,88.0 387.5,88.7 393.1,89.4 398.7,90.2 404.3,90.8 409.8,91.4 415.4,92.1 421.0,92.7 426.6,93.3 432.2,94.0 437.8,94.7 443.4,95.3 449.0,96.0 454.6,96.6 460.2,97.1 465.7,97.7 471.3,98.3 476.9,98.9 482.5,99.4 488.1,100.0 493.7,100.6 499.3,101.1 504.9,101.7 510.5,102.3 516.1,102.9 521.7,103.5 527.2,104.1 532.8,104.6 538.4,105.2 544.0,105.8 549.6,106.4 555.2,107.0 560.8,107.6 566.4,108.2 572.0,108.8 577.6,109.3 583.1,109.9 588.7,110.4 594.3,110.9 599.9,111.4 605.5,111.9 611.1,112.5 616.7,113.1 622.3,113.7 627.9,114.4 633.5,115.0 639.1,115.6 644.6,116.2 650.2,116.9 655.8,117.5 661.4,118.1 667.0,118.7 672.6,119.3 678.2,119.9 683.8,120.6 689.4,121.3 695.0,122.0 700.6,122.7 706.1,123.4 711.7,124.1 717.3,124.9 722.9,125.6 728.5,126.3 734.1,126.9 739.7,127.6 745.3,128.3 750.9,129.0 756.5,129.8 762.0,130.5 767.6,131.3 773.2,132.2 778.8,133.2 784.4,134.3 790.0,135.3"/>
<line x1="530" y1="107" x2="550" y2="107" stroke="#9467bd" stroke-width="3"/>
<text x="556" y="111" font-family="Arial" font-size="11">inverse-kv-zipf-attn-output-head-moe</text>
</svg>