<svg xmlns="http://www.w3.org/2000/svg" width="820" height="520" viewBox="0 0 820 520">
<rect width="100%" height="100%" fill="white"/>
<text x="80" y="28" font-family="Arial" font-size="18">moe_expert.up_proj</text>
<line x1="80" y1="45" x2="80" y2="445" stroke="#333"/>
<line x1="80" y1="445" x2="790" y2="445" stroke="#333"/>
<text x="350.0" y="495" font-family="Arial" font-size="13">normalized singular-value rank</text>
<text x="18" y="325.0" transform="rotate(-90 18,325.0)" font-family="Arial" font-size="13">singular value / largest</text>
<line x1="80" y1="45.0" x2="790" y2="45.0" stroke="#ddd"/>
<text x="34" y="49.0" font-family="Arial" font-size="11">1</text>
<line x1="80" y1="145.0" x2="790" y2="145.0" stroke="#ddd"/>
<text x="34" y="149.0" font-family="Arial" font-size="11">1e-1</text>
<line x1="80" y1="245.0" x2="790" y2="245.0" stroke="#ddd"/>
<text x="34" y="249.0" font-family="Arial" font-size="11">1e-2</text>
<line x1="80" y1="345.0" x2="790" y2="345.0" stroke="#ddd"/>
<text x="34" y="349.0" font-family="Arial" font-size="11">1e-3</text>
<line x1="80" y1="445.0" x2="790" y2="445.0" stroke="#ddd"/>
<text x="34" y="449.0" font-family="Arial" font-size="11">1e-4</text>
<polyline fill="none" stroke="#1f77b4" stroke-width="2.2" points="80.0,45.0 85.6,47.2 91.2,48.6 96.8,50.3 102.4,51.6 108.0,52.8 113.5,53.9 119.1,55.2 124.7,56.1 130.3,57.1 135.9,58.3 141.5,59.1 147.1,60.2 152.7,61.1 158.3,62.1 163.9,63.0 169.4,63.8 175.0,64.9 180.6,65.6 186.2,66.4 191.8,67.3 197.4,68.2 203.0,68.8 208.6,69.7 214.2,70.4 219.8,71.1 225.4,72.0 230.9,73.0 236.5,73.5 242.1,74.3 247.7,75.1 253.3,76.1 258.9,76.8 264.5,77.8 270.1,78.5 275.7,79.2 281.3,79.9 286.9,80.8 292.4,81.4 298.0,82.4 303.6,83.1 309.2,83.8 314.8,84.5 320.4,85.1 326.0,85.9 331.6,86.8 337.2,87.6 342.8,88.3 348.3,88.9 353.9,90.0 359.5,90.6 365.1,91.3 370.7,92.2 376.3,92.9 381.9,93.6 387.5,94.3 393.1,95.2 398.7,95.9 404.3,96.9 409.8,97.6 415.4,98.4 421.0,99.2 426.6,99.8 432.2,100.8 437.8,101.6 443.4,102.4 449.0,103.3 454.6,104.3 460.2,104.9 465.7,105.8 471.3,106.5 476.9,107.5 482.5,108.3 488.1,109.3 493.7,110.0 499.3,110.8 504.9,111.7 510.5,112.7 516.1,113.5 521.7,114.6 527.2,115.7 532.8,116.7 538.4,117.8 544.0,118.8 549.6,120.1 555.2,121.1 560.8,122.2 566.4,123.6 572.0,124.7 577.6,125.8 583.1,127.1 588.7,128.4 594.3,129.7 599.9,130.8 605.5,132.2 611.1,133.7 616.7,135.2 622.3,136.4 627.9,138.0 633.5,139.4 639.1,141.0 644.6,142.9 650.2,144.8 655.8,146.5 661.4,148.2 667.0,150.4 672.6,152.4 678.2,154.5 683.8,156.5 689.4,158.8 695.0,161.4 700.6,164.7 706.1,168.0 711.7,170.7 717.3,174.2 722.9,177.9 728.5,181.4 734.1,184.9 739.7,189.8 745.3,194.0 750.9,199.3 756.5,206.7 762.0,212.2 767.6,223.5 773.2,236.5 778.8,258.8 784.4,279.9 790.0,325.0"/>
<line x1="530" y1="53" x2="550" y2="53" stroke="#1f77b4" stroke-width="3"/>
<text x="556" y="57" font-family="Arial" font-size="11">inverse-kv-zipf-baseline</text>
<polyline fill="none" stroke="#d62728" stroke-width="2.2" points="80.0,45.0 85.6,47.4 91.2,48.9 96.8,50.2 102.4,51.4 108.0,52.9 113.5,54.0 119.1,54.7 124.7,55.7 130.3,56.5 135.9,57.7 141.5,58.8 147.1,59.9 152.7,60.5 158.3,61.5 163.9,62.2 169.4,63.1 175.0,63.9 180.6,64.8 186.2,65.5 191.8,66.6 197.4,67.4 203.0,68.3 208.6,69.2 214.2,69.8 219.8,70.5 225.4,71.2 230.9,72.0 236.5,72.8 242.1,73.4 247.7,74.1 253.3,75.2 258.9,75.8 264.5,76.5 270.1,77.3 275.7,78.0 281.3,78.9 286.9,79.6 292.4,80.2 298.0,80.9 303.6,81.8 309.2,82.6 314.8,83.2 320.4,84.1 326.0,85.0 331.6,85.7 337.2,86.3 342.8,87.1 348.3,87.8 353.9,88.4 359.5,89.3 365.1,90.1 370.7,90.8 376.3,91.6 381.9,92.5 387.5,93.1 393.1,94.0 398.7,94.7 404.3,95.5 409.8,96.0 415.4,96.8 421.0,97.5 426.6,98.4 432.2,99.4 437.8,100.1 443.4,101.1 449.0,102.0 454.6,103.0 460.2,103.8 465.7,104.7 471.3,105.4 476.9,106.7 482.5,107.5 488.1,108.3 493.7,109.1 499.3,110.3 504.9,111.3 510.5,112.0 516.1,112.9 521.7,113.8 527.2,114.9 532.8,116.0 538.4,116.9 544.0,118.1 549.6,119.0 555.2,120.1 560.8,121.4 566.4,122.5 572.0,123.4 577.6,124.6 583.1,125.7 588.7,127.0 594.3,128.3 599.9,129.6 605.5,130.8 611.1,132.1 616.7,133.5 622.3,135.1 627.9,136.6 633.5,138.6 639.1,139.9 644.6,141.5 650.2,143.5 655.8,145.3 661.4,146.7 667.0,148.6 672.6,150.8 678.2,152.6 683.8,155.1 689.4,157.3 695.0,159.9 700.6,162.2 706.1,165.1 711.7,169.4 717.3,171.4 722.9,175.0 728.5,178.6 734.1,182.3 739.7,187.1 745.3,191.7 750.9,197.9 756.5,204.4 762.0,212.3 767.6,222.7 773.2,233.9 778.8,250.5 784.4,272.5 790.0,321.7"/>
<line x1="530" y1="71" x2="550" y2="71" stroke="#d62728" stroke-width="3"/>
<text x="556" y="75" font-family="Arial" font-size="11">inverse-kv-zipf-attn-output-router</text>
<polyline fill="none" stroke="#2ca02c" stroke-width="2.2" points="80.0,45.0 85.6,46.2 91.2,47.4 96.8,48.7 102.4,50.0 108.0,50.9 113.5,51.8 119.1,52.6 124.7,53.5 130.3,54.4 135.9,55.4 141.5,56.3 147.1,57.3 152.7,58.1 158.3,58.8 163.9,59.6 169.4,60.3 175.0,61.1 180.6,62.0 186.2,62.9 191.8,63.8 197.4,64.7 203.0,65.6 208.6,66.5 214.2,67.4 219.8,68.4 225.4,69.2 230.9,70.1 236.5,71.0 242.1,71.9 247.7,72.7 253.3,73.4 258.9,74.2 264.5,75.0 270.1,75.8 275.7,76.6 281.3,77.5 286.9,78.3 292.4,79.1 298.0,79.9 303.6,80.7 309.2,81.6 314.8,82.4 320.4,83.1 326.0,83.9 331.6,84.7 337.2,85.5 342.8,86.2 348.3,87.0 353.9,87.7 359.5,88.5 365.1,89.2 370.7,89.9 376.3,90.7 381.9,91.3 387.5,92.0 393.1,92.7 398.7,93.3 404.3,94.0 409.8,94.7 415.4,95.5 421.0,96.2 426.6,96.9 432.2,97.6 437.8,98.3 443.4,99.0 449.0,99.7 454.6,100.3 460.2,101.0 465.7,101.6 471.3,102.3 476.9,103.0 482.5,103.8 488.1,104.5 493.7,105.2 499.3,105.7 504.9,106.3 510.5,106.8 516.1,107.4 521.7,107.9 527.2,108.4 532.8,109.0 538.4,109.5 544.0,110.1 549.6,110.7 555.2,111.3 560.8,112.0 566.4,112.6 572.0,113.2 577.6,113.7 583.1,114.3 588.7,115.0 594.3,115.6 599.9,116.2 605.5,116.9 611.1,117.4 616.7,118.0 622.3,118.6 627.9,119.1 633.5,119.7 639.1,120.4 644.6,121.0 650.2,121.6 655.8,122.2 661.4,122.9 667.0,123.5 672.6,124.1 678.2,124.8 683.8,125.3 689.4,125.9 695.0,126.5 700.6,127.1 706.1,127.8 711.7,128.5 717.3,129.2 722.9,129.9 728.5,130.6 734.1,131.3 739.7,132.0 745.3,132.7 750.9,133.5 756.5,134.4 762.0,135.2 767.6,136.1 773.2,137.2 778.8,138.3 784.4,139.5 790.0,140.6"/>
<line x1="530" y1="89" x2="550" y2="89" stroke="#2ca02c" stroke-width="3"/>
<text x="556" y="93" font-family="Arial" font-size="11">inverse-kv-zipf-head-moe-hidden-router</text>
<polyline fill="none" stroke="#9467bd" stroke-width="2.2" points="80.0,45.0 85.6,45.9 91.2,46.9 96.8,47.8 102.4,48.8 108.0,49.7 113.5,50.6 119.1,51.5 124.7,52.5 130.3,53.4 135.9,54.2 141.5,55.1 147.1,56.1 152.7,56.8 158.3,57.6 163.9,58.3 169.4,59.1 175.0,59.8 180.6,60.7 186.2,61.5 191.8,62.3 197.4,63.2 203.0,64.1 208.6,65.0 214.2,65.9 219.8,66.8 225.4,67.6 230.9,68.5 236.5,69.3 242.1,70.1 247.7,70.9 253.3,71.6 258.9,72.4 264.5,73.2 270.1,73.9 275.7,74.8 281.3,75.6 286.9,76.4 292.4,77.2 298.0,78.1 303.6,79.0 309.2,79.8 314.8,80.6 320.4,81.3 326.0,82.1 331.6,82.9 337.2,83.6 342.8,84.3 348.3,85.0 353.9,85.7 359.5,86.5 365.1,87.3 370.7,88.1 376.3,88.9 381.9,89.6 387.5,90.2 393.1,90.8 398.7,91.5 404.3,92.1 409.8,92.8 415.4,93.5 421.0,94.2 426.6,94.9 432.2,95.6 437.8,96.3 443.4,97.1 449.0,97.8 454.6,98.4 460.2,99.0 465.7,99.6 471.3,100.2 476.9,100.9 482.5,101.7 488.1,102.4 493.7,103.1 499.3,103.7 504.9,104.3 510.5,104.9 516.1,105.5 521.7,106.1 527.2,106.6 532.8,107.2 538.4,107.8 544.0,108.4 549.6,109.1 555.2,109.7 560.8,110.4 566.4,111.0 572.0,111.6 577.6,112.1 583.1,112.7 588.7,113.3 594.3,113.9 599.9,114.4 605.5,115.0 611.1,115.7 616.7,116.4 622.3,117.1 627.9,117.9 633.5,118.5 639.1,119.1 644.6,119.6 650.2,120.2 655.8,120.8 661.4,121.3 667.0,121.8 672.6,122.3 678.2,122.9 683.8,123.6 689.4,124.3 695.0,125.1 700.6,125.8 706.1,126.5 711.7,127.1 717.3,127.8 722.9,128.5 728.5,129.1 734.1,129.7 739.7,130.4 745.3,131.0 750.9,131.7 756.5,132.4 762.0,133.1 767.6,133.8 773.2,134.9 778.8,135.9 784.4,137.0 790.0,138.1"/>
<line x1="530" y1="107" x2="550" y2="107" stroke="#9467bd" stroke-width="3"/>
<text x="556" y="111" font-family="Arial" font-size="11">inverse-kv-zipf-attn-output-head-moe</text>
</svg>