<svg xmlns="http://www.w3.org/2000/svg" width="820" height="520" viewBox="0 0 820 520">
<rect width="100%" height="100%" fill="white"/>
<text x="80" y="28" font-family="Arial" font-size="18">moe_expert.gate_proj</text>
<line x1="80" y1="45" x2="80" y2="445" stroke="#333"/>
<line x1="80" y1="445" x2="790" y2="445" stroke="#333"/>
<text x="350.0" y="495" font-family="Arial" font-size="13">normalized singular-value rank</text>
<text x="18" y="325.0" transform="rotate(-90 18,325.0)" font-family="Arial" font-size="13">singular value / largest</text>
<line x1="80" y1="45.0" x2="790" y2="45.0" stroke="#ddd"/>
<text x="34" y="49.0" font-family="Arial" font-size="11">1</text>
<line x1="80" y1="145.0" x2="790" y2="145.0" stroke="#ddd"/>
<text x="34" y="149.0" font-family="Arial" font-size="11">1e-1</text>
<line x1="80" y1="245.0" x2="790" y2="245.0" stroke="#ddd"/>
<text x="34" y="249.0" font-family="Arial" font-size="11">1e-2</text>
<line x1="80" y1="345.0" x2="790" y2="345.0" stroke="#ddd"/>
<text x="34" y="349.0" font-family="Arial" font-size="11">1e-3</text>
<line x1="80" y1="445.0" x2="790" y2="445.0" stroke="#ddd"/>
<text x="34" y="449.0" font-family="Arial" font-size="11">1e-4</text>
<polyline fill="none" stroke="#1f77b4" stroke-width="2.2" points="80.0,45.0 85.6,48.0 91.2,49.9 96.8,51.2 102.4,52.4 108.0,54.0 113.5,55.0 119.1,56.0 124.7,57.1 130.3,58.0 135.9,59.0 141.5,60.2 147.1,61.1 152.7,62.0 158.3,62.9 163.9,63.7 169.4,64.6 175.0,65.5 180.6,66.3 186.2,67.1 191.8,67.8 197.4,68.6 203.0,69.4 208.6,70.3 214.2,71.2 219.8,72.3 225.4,73.0 230.9,73.7 236.5,74.9 242.1,75.7 247.7,76.4 253.3,77.1 258.9,77.8 264.5,78.5 270.1,79.3 275.7,80.0 281.3,80.8 286.9,81.5 292.4,82.2 298.0,83.0 303.6,83.7 309.2,84.7 314.8,85.4 320.4,86.2 326.0,86.8 331.6,87.7 337.2,88.7 342.8,89.4 348.3,90.3 353.9,91.0 359.5,91.8 365.1,92.5 370.7,93.4 376.3,94.1 381.9,95.0 387.5,95.8 393.1,96.5 398.7,97.3 404.3,98.0 409.8,98.7 415.4,99.5 421.0,100.3 426.6,100.9 432.2,101.7 437.8,102.5 443.4,103.4 449.0,104.4 454.6,105.1 460.2,106.0 465.7,106.9 471.3,107.9 476.9,108.7 482.5,109.6 488.1,110.4 493.7,111.3 499.3,112.4 504.9,113.2 510.5,114.4 516.1,115.2 521.7,116.3 527.2,117.0 532.8,118.4 538.4,119.3 544.0,120.2 549.6,121.3 555.2,122.2 560.8,123.6 566.4,124.5 572.0,125.7 577.6,127.0 583.1,128.2 588.7,129.2 594.3,130.4 599.9,131.6 605.5,133.1 611.1,134.7 616.7,136.1 622.3,137.7 627.9,139.1 633.5,140.4 639.1,141.8 644.6,143.5 650.2,145.9 655.8,147.6 661.4,149.5 667.0,151.4 672.6,153.9 678.2,155.8 683.8,158.1 689.4,160.1 695.0,161.9 700.6,164.1 706.1,167.4 711.7,169.6 717.3,172.9 722.9,176.0 728.5,181.0 734.1,184.8 739.7,188.6 745.3,195.1 750.9,199.4 756.5,207.2 762.0,213.2 767.6,220.7 773.2,232.5 778.8,249.9 784.4,274.8 790.0,322.1"/>
<line x1="530" y1="53" x2="550" y2="53" stroke="#1f77b4" stroke-width="3"/>
<text x="556" y="57" font-family="Arial" font-size="11">inverse-kv-zipf-baseline</text>
<polyline fill="none" stroke="#d62728" stroke-width="2.2" points="80.0,45.0 85.6,47.5 91.2,49.3 96.8,50.8 102.4,51.9 108.0,53.2 113.5,54.4 119.1,55.2 124.7,56.3 130.3,57.3 135.9,58.3 141.5,58.9 147.1,59.8 152.7,60.6 158.3,61.5 163.9,62.3 169.4,63.4 175.0,64.5 180.6,65.2 186.2,66.2 191.8,66.8 197.4,67.5 203.0,68.2 208.6,68.9 214.2,69.8 219.8,70.6 225.4,71.5 230.9,72.1 236.5,72.9 242.1,73.8 247.7,74.5 253.3,75.3 258.9,76.0 264.5,76.6 270.1,77.4 275.7,78.0 281.3,78.7 286.9,79.7 292.4,80.5 298.0,81.3 303.6,81.8 309.2,82.8 314.8,83.3 320.4,84.3 326.0,85.1 331.6,85.5 337.2,86.4 342.8,87.1 348.3,87.8 353.9,88.6 359.5,89.3 365.1,90.1 370.7,90.9 376.3,91.8 381.9,92.4 387.5,93.3 393.1,94.2 398.7,95.0 404.3,95.7 409.8,96.4 415.4,97.3 421.0,97.9 426.6,98.8 432.2,99.8 437.8,100.3 443.4,101.3 449.0,102.0 454.6,102.7 460.2,103.3 465.7,104.4 471.3,105.5 476.9,106.6 482.5,107.3 488.1,108.1 493.7,108.9 499.3,109.9 504.9,111.0 510.5,111.9 516.1,112.8 521.7,113.9 527.2,114.8 532.8,115.7 538.4,116.5 544.0,118.1 549.6,118.8 555.2,120.2 560.8,121.1 566.4,122.5 572.0,123.5 577.6,124.9 583.1,126.0 588.7,127.0 594.3,128.5 599.9,129.6 605.5,130.9 611.1,132.4 616.7,133.8 622.3,134.9 627.9,136.5 633.5,138.2 639.1,140.0 644.6,141.9 650.2,143.6 655.8,145.3 661.4,147.0 667.0,149.0 672.6,150.9 678.2,153.4 683.8,155.5 689.4,158.1 695.0,159.6 700.6,162.8 706.1,165.8 711.7,168.2 717.3,171.5 722.9,174.3 728.5,177.1 734.1,181.0 739.7,187.3 745.3,191.4 750.9,196.9 756.5,204.4 762.0,213.6 767.6,221.1 773.2,231.6 778.8,244.7 784.4,264.7 790.0,330.3"/>
<line x1="530" y1="71" x2="550" y2="71" stroke="#d62728" stroke-width="3"/>
<text x="556" y="75" font-family="Arial" font-size="11">inverse-kv-zipf-attn-output-router</text>
<polyline fill="none" stroke="#2ca02c" stroke-width="2.2" points="80.0,45.0 85.6,46.2 91.2,47.3 96.8,48.5 102.4,49.8 108.0,50.7 113.5,51.6 119.1,52.5 124.7,53.5 130.3,54.3 135.9,55.2 141.5,56.0 147.1,56.9 152.7,57.7 158.3,58.6 163.9,59.4 169.4,60.3 175.0,61.2 180.6,62.0 186.2,62.9 191.8,63.8 197.4,64.7 203.0,65.6 208.6,66.5 214.2,67.5 219.8,68.3 225.4,68.9 230.9,69.6 236.5,70.2 242.1,70.9 247.7,71.6 253.3,72.4 258.9,73.2 264.5,74.0 270.1,74.9 275.7,75.8 281.3,76.7 286.9,77.6 292.4,78.4 298.0,79.3 303.6,80.1 309.2,81.0 314.8,81.8 320.4,82.6 326.0,83.4 331.6,84.2 337.2,85.0 342.8,85.8 348.3,86.7 353.9,87.6 359.5,88.3 365.1,88.9 370.7,89.6 376.3,90.2 381.9,90.9 387.5,91.6 393.1,92.3 398.7,93.0 404.3,93.7 409.8,94.4 415.4,95.1 421.0,95.9 426.6,96.6 432.2,97.2 437.8,97.9 443.4,98.5 449.0,99.2 454.6,99.8 460.2,100.4 465.7,101.1 471.3,101.8 476.9,102.5 482.5,103.2 488.1,104.0 493.7,104.7 499.3,105.2 504.9,105.8 510.5,106.4 516.1,107.0 521.7,107.6 527.2,108.3 532.8,108.9 538.4,109.6 544.0,110.1 549.6,110.7 555.2,111.3 560.8,111.9 566.4,112.5 572.0,113.0 577.6,113.5 583.1,114.1 588.7,114.6 594.3,115.1 599.9,115.6 605.5,116.1 611.1,116.7 616.7,117.3 622.3,117.9 627.9,118.5 633.5,119.1 639.1,119.8 644.6,120.5 650.2,121.2 655.8,121.8 661.4,122.5 667.0,123.1 672.6,123.7 678.2,124.3 683.8,124.8 689.4,125.4 695.0,126.0 700.6,126.6 706.1,127.3 711.7,128.0 717.3,128.7 722.9,129.4 728.5,130.1 734.1,130.8 739.7,131.5 745.3,132.3 750.9,133.1 756.5,133.9 762.0,134.7 767.6,135.6 773.2,136.6 778.8,137.7 784.4,138.7 790.0,139.8"/>
<line x1="530" y1="89" x2="550" y2="89" stroke="#2ca02c" stroke-width="3"/>
<text x="556" y="93" font-family="Arial" font-size="11">inverse-kv-zipf-head-moe-hidden-router</text>
<polyline fill="none" stroke="#9467bd" stroke-width="2.2" points="80.0,45.0 85.6,46.0 91.2,47.0 96.8,48.0 102.4,49.1 108.0,50.0 113.5,50.9 119.1,51.8 124.7,52.7 130.3,53.5 135.9,54.3 141.5,55.1 147.1,55.9 152.7,56.7 158.3,57.6 163.9,58.4 169.4,59.3 175.0,60.2 180.6,61.1 186.2,62.0 191.8,62.9 197.4,63.8 203.0,64.6 208.6,65.4 214.2,66.3 219.8,67.1 225.4,67.9 230.9,68.7 236.5,69.5 242.1,70.3 247.7,71.0 253.3,71.8 258.9,72.5 264.5,73.3 270.1,74.1 275.7,75.0 281.3,75.9 286.9,76.8 292.4,77.6 298.0,78.5 303.6,79.3 309.2,80.2 314.8,80.9 320.4,81.6 326.0,82.3 331.6,83.0 337.2,83.8 342.8,84.6 348.3,85.5 353.9,86.3 359.5,87.0 365.1,87.6 370.7,88.3 376.3,89.0 381.9,89.6 387.5,90.3 393.1,91.1 398.7,91.8 404.3,92.5 409.8,93.3 415.4,94.0 421.0,94.8 426.6,95.5 432.2,96.2 437.8,96.9 443.4,97.6 449.0,98.3 454.6,98.9 460.2,99.6 465.7,100.3 471.3,100.9 476.9,101.6 482.5,102.2 488.1,102.8 493.7,103.5 499.3,104.0 504.9,104.6 510.5,105.2 516.1,105.8 521.7,106.4 527.2,107.0 532.8,107.6 538.4,108.2 544.0,108.8 549.6,109.4 555.2,110.0 560.8,110.6 566.4,111.2 572.0,111.8 577.6,112.4 583.1,113.0 588.7,113.6 594.3,114.2 599.9,114.9 605.5,115.5 611.1,116.1 616.7,116.6 622.3,117.1 627.9,117.7 633.5,118.3 639.1,118.8 644.6,119.4 650.2,120.0 655.8,120.6 661.4,121.2 667.0,121.8 672.6,122.4 678.2,123.0 683.8,123.7 689.4,124.4 695.0,125.1 700.6,125.7 706.1,126.4 711.7,127.0 717.3,127.7 722.9,128.3 728.5,129.0 734.1,129.8 739.7,130.5 745.3,131.2 750.9,131.9 756.5,132.7 762.0,133.5 767.6,134.3 773.2,135.4 778.8,136.6 784.4,137.9 790.0,139.1"/>
<line x1="530" y1="107" x2="550" y2="107" stroke="#9467bd" stroke-width="3"/>
<text x="556" y="111" font-family="Arial" font-size="11">inverse-kv-zipf-attn-output-head-moe</text>
</svg>