<svg xmlns="http://www.w3.org/2000/svg" width="820" height="520" viewBox="0 0 820 520">
<rect width="100%" height="100%" fill="white"/>
<text x="80" y="28" font-family="Arial" font-size="18">moe_router</text>
<line x1="80" y1="45" x2="80" y2="445" stroke="#333"/>
<line x1="80" y1="445" x2="790" y2="445" stroke="#333"/>
<text x="350.0" y="495" font-family="Arial" font-size="13">normalized singular-value rank</text>
<text x="18" y="325.0" transform="rotate(-90 18,325.0)" font-family="Arial" font-size="13">singular value / largest</text>
<line x1="80" y1="45.0" x2="790" y2="45.0" stroke="#ddd"/>
<text x="34" y="49.0" font-family="Arial" font-size="11">1</text>
<line x1="80" y1="145.0" x2="790" y2="145.0" stroke="#ddd"/>
<text x="34" y="149.0" font-family="Arial" font-size="11">1e-1</text>
<line x1="80" y1="245.0" x2="790" y2="245.0" stroke="#ddd"/>
<text x="34" y="249.0" font-family="Arial" font-size="11">1e-2</text>
<line x1="80" y1="345.0" x2="790" y2="345.0" stroke="#ddd"/>
<text x="34" y="349.0" font-family="Arial" font-size="11">1e-3</text>
<line x1="80" y1="445.0" x2="790" y2="445.0" stroke="#ddd"/>
<text x="34" y="449.0" font-family="Arial" font-size="11">1e-4</text>
<polyline fill="none" stroke="#1f77b4" stroke-width="2.2" points="80.0,45.0 85.6,45.0 91.2,45.1 96.8,45.1 102.4,45.2 108.0,45.2 113.5,45.3 119.1,45.3 124.7,45.4 130.3,45.4 135.9,45.4 141.5,45.5 147.1,45.5 152.7,45.6 158.3,45.6 163.9,45.7 169.4,45.7 175.0,45.8 180.6,45.8 186.2,45.8 191.8,45.9 197.4,45.9 203.0,46.0 208.6,46.0 214.2,46.1 219.8,46.1 225.4,46.2 230.9,46.2 236.5,46.3 242.1,46.3 247.7,46.3 253.3,46.4 258.9,46.4 264.5,46.5 270.1,46.5 275.7,46.6 281.3,46.6 286.9,46.7 292.4,46.7 298.0,46.8 303.6,46.8 309.2,46.8 314.8,46.9 320.4,47.0 326.0,47.1 331.6,47.2 337.2,47.3 342.8,47.4 348.3,47.5 353.9,47.7 359.5,47.8 365.1,47.9 370.7,48.0 376.3,48.1 381.9,48.2 387.5,48.3 393.1,48.5 398.7,48.6 404.3,48.7 409.8,48.8 415.4,48.9 421.0,49.0 426.6,49.2 432.2,49.3 437.8,49.4 443.4,49.5 449.0,49.6 454.6,49.7 460.2,49.9 465.7,50.0 471.3,50.1 476.9,50.2 482.5,50.3 488.1,50.5 493.7,50.6 499.3,50.7 504.9,50.8 510.5,50.9 516.1,51.1 521.7,51.2 527.2,51.3 532.8,51.4 538.4,51.6 544.0,51.7 549.6,51.8 555.2,51.9 560.8,51.9 566.4,52.0 572.0,52.0 577.6,52.1 583.1,52.1 588.7,52.1 594.3,52.2 599.9,52.2 605.5,52.3 611.1,52.3 616.7,52.3 622.3,52.4 627.9,52.4 633.5,52.5 639.1,52.5 644.6,52.5 650.2,52.6 655.8,52.6 661.4,52.7 667.0,52.7 672.6,52.7 678.2,52.8 683.8,52.8 689.4,52.9 695.0,52.9 700.6,52.9 706.1,53.0 711.7,53.0 717.3,53.1 722.9,53.1 728.5,53.1 734.1,53.2 739.7,53.2 745.3,53.3 750.9,53.3 756.5,53.3 762.0,53.4 767.6,53.4 773.2,53.5 778.8,53.5 784.4,53.5 790.0,53.6"/>
<line x1="530" y1="53" x2="550" y2="53" stroke="#1f77b4" stroke-width="3"/>
<text x="556" y="57" font-family="Arial" font-size="11">inverse-kv-zipf-baseline</text>
<polyline fill="none" stroke="#d62728" stroke-width="2.2" points="80.0,45.0 85.6,45.1 91.2,45.1 96.8,45.2 102.4,45.2 108.0,45.3 113.5,45.3 119.1,45.4 124.7,45.5 130.3,45.5 135.9,45.6 141.5,45.6 147.1,45.7 152.7,45.7 158.3,45.8 163.9,45.9 169.4,45.9 175.0,46.0 180.6,46.0 186.2,46.1 191.8,46.2 197.4,46.2 203.0,46.3 208.6,46.3 214.2,46.4 219.8,46.4 225.4,46.5 230.9,46.6 236.5,46.6 242.1,46.7 247.7,46.7 253.3,46.8 258.9,46.9 264.5,46.9 270.1,47.0 275.7,47.0 281.3,47.1 286.9,47.2 292.4,47.2 298.0,47.3 303.6,47.3 309.2,47.4 314.8,47.5 320.4,47.5 326.0,47.6 331.6,47.6 337.2,47.7 342.8,47.8 348.3,47.8 353.9,47.9 359.5,47.9 365.1,48.0 370.7,48.0 376.3,48.1 381.9,48.2 387.5,48.2 393.1,48.3 398.7,48.3 404.3,48.4 409.8,48.5 415.4,48.5 421.0,48.6 426.6,48.6 432.2,48.7 437.8,48.8 443.4,48.8 449.0,48.9 454.6,48.9 460.2,49.0 465.7,49.1 471.3,49.1 476.9,49.2 482.5,49.2 488.1,49.3 493.7,49.4 499.3,49.4 504.9,49.5 510.5,49.5 516.1,49.6 521.7,49.7 527.2,49.7 532.8,49.8 538.4,49.8 544.0,49.9 549.6,50.0 555.2,50.0 560.8,50.1 566.4,50.2 572.0,50.2 577.6,50.3 583.1,50.3 588.7,50.4 594.3,50.5 599.9,50.5 605.5,50.6 611.1,50.7 616.7,50.7 622.3,50.8 627.9,50.9 633.5,50.9 639.1,51.0 644.6,51.0 650.2,51.1 655.8,51.2 661.4,51.2 667.0,51.3 672.6,51.4 678.2,51.4 683.8,51.5 689.4,51.6 695.0,51.6 700.6,51.7 706.1,51.8 711.7,51.8 717.3,51.9 722.9,52.0 728.5,52.0 734.1,52.1 739.7,52.2 745.3,52.2 750.9,52.3 756.5,52.4 762.0,52.4 767.6,52.5 773.2,52.6 778.8,52.6 784.4,52.7 790.0,52.8"/>
<line x1="530" y1="71" x2="550" y2="71" stroke="#d62728" stroke-width="3"/>
<text x="556" y="75" font-family="Arial" font-size="11">inverse-kv-zipf-attn-output-router</text>
<polyline fill="none" stroke="#2ca02c" stroke-width="2.2" points="80.0,45.0 85.6,45.2 91.2,45.3 96.8,45.5 102.4,45.6 108.0,45.8 113.5,45.9 119.1,46.1 124.7,46.2 130.3,46.4 135.9,46.6 141.5,46.7 147.1,46.9 152.7,47.0 158.3,47.2 163.9,47.4 169.4,47.5 175.0,47.7 180.6,47.8 186.2,48.0 191.8,48.2 197.4,48.3 203.0,48.5 208.6,48.7 214.2,48.8 219.8,49.0 225.4,49.2 230.9,49.3 236.5,49.5 242.1,49.7 247.7,49.9 253.3,50.0 258.9,50.2 264.5,50.4 270.1,50.5 275.7,50.7 281.3,50.9 286.9,51.1 292.4,51.2 298.0,51.4 303.6,51.6 309.2,51.8 314.8,52.0 320.4,52.1 326.0,52.3 331.6,52.4 337.2,52.6 342.8,52.7 348.3,52.9 353.9,53.0 359.5,53.2 365.1,53.3 370.7,53.5 376.3,53.7 381.9,53.8 387.5,54.0 393.1,54.1 398.7,54.3 404.3,54.5 409.8,54.6 415.4,54.8 421.0,54.9 426.6,55.1 432.2,55.3 437.8,55.4 443.4,55.6 449.0,55.8 454.6,55.9 460.2,56.1 465.7,56.2 471.3,56.4 476.9,56.6 482.5,56.8 488.1,56.9 493.7,57.1 499.3,57.3 504.9,57.4 510.5,57.6 516.1,57.8 521.7,57.9 527.2,58.1 532.8,58.3 538.4,58.5 544.0,58.6 549.6,58.8 555.2,59.0 560.8,59.2 566.4,59.3 572.0,59.5 577.6,59.6 583.1,59.8 588.7,60.0 594.3,60.1 599.9,60.3 605.5,60.5 611.1,60.6 616.7,60.8 622.3,61.0 627.9,61.1 633.5,61.3 639.1,61.5 644.6,61.6 650.2,61.8 655.8,62.0 661.4,62.1 667.0,62.3 672.6,62.5 678.2,62.7 683.8,62.8 689.4,63.0 695.0,63.2 700.6,63.4 706.1,63.5 711.7,63.7 717.3,63.9 722.9,64.1 728.5,64.2 734.1,64.4 739.7,64.6 745.3,64.8 750.9,65.0 756.5,65.2 762.0,65.3 767.6,65.5 773.2,65.7 778.8,65.9 784.4,66.1 790.0,66.3"/>
<line x1="530" y1="89" x2="550" y2="89" stroke="#2ca02c" stroke-width="3"/>
<text x="556" y="93" font-family="Arial" font-size="11">inverse-kv-zipf-head-moe-hidden-router</text>
<polyline fill="none" stroke="#9467bd" stroke-width="2.2" points="80.0,45.0 85.6,45.1 91.2,45.3 96.8,45.4 102.4,45.5 108.0,45.6 113.5,45.8 119.1,45.9 124.7,46.0 130.3,46.2 135.9,46.3 141.5,46.4 147.1,46.5 152.7,46.7 158.3,46.8 163.9,46.9 169.4,47.1 175.0,47.2 180.6,47.3 186.2,47.5 191.8,47.6 197.4,47.7 203.0,47.9 208.6,48.0 214.2,48.1 219.8,48.3 225.4,48.4 230.9,48.6 236.5,48.7 242.1,48.8 247.7,49.0 253.3,49.1 258.9,49.2 264.5,49.4 270.1,49.5 275.7,49.7 281.3,49.8 286.9,49.9 292.4,50.1 298.0,50.2 303.6,50.4 309.2,50.5 314.8,50.7 320.4,50.8 326.0,51.0 331.6,51.1 337.2,51.3 342.8,51.4 348.3,51.6 353.9,51.7 359.5,51.9 365.1,52.0 370.7,52.2 376.3,52.3 381.9,52.5 387.5,52.6 393.1,52.8 398.7,53.0 404.3,53.1 409.8,53.3 415.4,53.4 421.0,53.6 426.6,53.8 432.2,53.9 437.8,54.1 443.4,54.2 449.0,54.4 454.6,54.6 460.2,54.7 465.7,54.9 471.3,55.1 476.9,55.2 482.5,55.4 488.1,55.6 493.7,55.7 499.3,55.9 504.9,56.1 510.5,56.2 516.1,56.4 521.7,56.6 527.2,56.8 532.8,56.9 538.4,57.1 544.0,57.3 549.6,57.5 555.2,57.6 560.8,57.7 566.4,57.9 572.0,58.0 577.6,58.1 583.1,58.3 588.7,58.4 594.3,58.6 599.9,58.7 605.5,58.8 611.1,59.0 616.7,59.1 622.3,59.2 627.9,59.4 633.5,59.5 639.1,59.7 644.6,59.8 650.2,59.9 655.8,60.1 661.4,60.2 667.0,60.4 672.6,60.5 678.2,60.6 683.8,60.8 689.4,60.9 695.0,61.1 700.6,61.2 706.1,61.4 711.7,61.5 717.3,61.7 722.9,61.8 728.5,62.0 734.1,62.1 739.7,62.2 745.3,62.4 750.9,62.5 756.5,62.7 762.0,62.8 767.6,63.0 773.2,63.1 778.8,63.3 784.4,63.4 790.0,63.6"/>
<line x1="530" y1="107" x2="550" y2="107" stroke="#9467bd" stroke-width="3"/>
<text x="556" y="111" font-family="Arial" font-size="11">inverse-kv-zipf-attn-output-head-moe</text>
</svg>