<svg xmlns="http://www.w3.org/2000/svg" width="820" height="520" viewBox="0 0 820 520">
<rect width="100%" height="100%" fill="white"/>
<text x="80" y="28" font-family="Arial" font-size="18">attention.k_proj</text>
<line x1="80" y1="45" x2="80" y2="445" stroke="#333"/>
<line x1="80" y1="445" x2="790" y2="445" stroke="#333"/>
<text x="350.0" y="495" font-family="Arial" font-size="13">normalized singular-value rank</text>
<text x="18" y="325.0" transform="rotate(-90 18,325.0)" font-family="Arial" font-size="13">singular value / largest</text>
<line x1="80" y1="45.0" x2="790" y2="45.0" stroke="#ddd"/>
<text x="34" y="49.0" font-family="Arial" font-size="11">1</text>
<line x1="80" y1="145.0" x2="790" y2="145.0" stroke="#ddd"/>
<text x="34" y="149.0" font-family="Arial" font-size="11">1e-1</text>
<line x1="80" y1="245.0" x2="790" y2="245.0" stroke="#ddd"/>
<text x="34" y="249.0" font-family="Arial" font-size="11">1e-2</text>
<line x1="80" y1="345.0" x2="790" y2="345.0" stroke="#ddd"/>
<text x="34" y="349.0" font-family="Arial" font-size="11">1e-3</text>
<line x1="80" y1="445.0" x2="790" y2="445.0" stroke="#ddd"/>
<text x="34" y="449.0" font-family="Arial" font-size="11">1e-4</text>
<polyline fill="none" stroke="#1f77b4" stroke-width="2.2" points="80.0,45.0 85.6,51.8 91.2,59.9 96.8,62.6 102.4,65.3 108.0,66.3 113.5,67.3 119.1,68.7 124.7,70.2 130.3,71.1 135.9,72.0 141.5,73.0 147.1,74.1 152.7,75.0 158.3,75.9 163.9,76.7 169.4,77.6 175.0,78.3 180.6,79.0 186.2,80.0 191.8,81.0 197.4,81.8 203.0,82.5 208.6,83.1 214.2,83.8 219.8,84.2 225.4,84.5 230.9,84.9 236.5,85.3 242.1,86.1 247.7,87.1 253.3,87.7 258.9,88.1 264.5,88.9 270.1,89.8 275.7,90.2 281.3,90.6 286.9,91.0 292.4,91.5 298.0,92.2 303.6,93.0 309.2,93.6 314.8,94.1 320.4,94.6 326.0,95.1 331.6,95.6 337.2,96.0 342.8,96.5 348.3,97.1 353.9,97.5 359.5,97.8 365.1,98.3 370.7,99.1 376.3,99.7 381.9,100.2 387.5,100.8 393.1,101.4 398.7,102.1 404.3,103.0 409.8,103.7 415.4,104.1 421.0,104.9 426.6,105.9 432.2,106.6 437.8,106.8 443.4,107.2 449.0,107.7 454.6,108.3 460.2,109.0 465.7,109.8 471.3,110.7 476.9,111.4 482.5,111.7 488.1,111.9 493.7,112.2 499.3,112.7 504.9,113.4 510.5,114.0 516.1,114.4 521.7,115.1 527.2,116.1 532.8,116.9 538.4,117.5 544.0,118.1 549.6,118.6 555.2,119.0 560.8,119.4 566.4,120.1 572.0,121.5 577.6,122.7 583.1,123.4 588.7,124.0 594.3,124.4 599.9,125.0 605.5,125.9 611.1,126.7 616.7,127.2 622.3,127.8 627.9,128.6 633.5,129.2 639.1,129.7 644.6,130.2 650.2,130.7 655.8,131.3 661.4,131.8 667.0,132.5 672.6,133.8 678.2,135.2 683.8,136.2 689.4,137.1 695.0,137.7 700.6,138.3 706.1,139.0 711.7,139.8 717.3,141.1 722.9,142.5 728.5,143.6 734.1,144.8 739.7,145.8 745.3,146.9 750.9,147.9 756.5,148.9 762.0,150.1 767.6,151.3 773.2,153.0 778.8,154.8 784.4,157.1 790.0,159.6"/>
<line x1="530" y1="53" x2="550" y2="53" stroke="#1f77b4" stroke-width="3"/>
<text x="556" y="57" font-family="Arial" font-size="11">inverse-kv-local-h128-l3-top1</text>
<polyline fill="none" stroke="#d62728" stroke-width="2.2" points="80.0,45.0 85.6,53.1 91.2,63.1 96.8,64.3 102.4,65.4 108.0,67.3 113.5,69.4 119.1,70.2 124.7,71.0 130.3,71.7 135.9,72.4 141.5,73.0 147.1,73.6 152.7,74.6 158.3,75.7 163.9,76.5 169.4,77.4 175.0,78.2 180.6,79.1 186.2,79.7 191.8,80.3 197.4,80.8 203.0,81.3 208.6,81.7 214.2,82.2 219.8,82.7 225.4,83.2 230.9,84.0 236.5,84.9 242.1,85.5 247.7,86.1 253.3,86.8 258.9,87.6 264.5,88.2 270.1,88.8 275.7,89.2 281.3,89.5 286.9,90.0 292.4,90.6 298.0,91.2 303.6,91.7 309.2,92.4 314.8,93.1 320.4,93.7 326.0,94.2 331.6,94.5 337.2,94.8 342.8,95.3 348.3,96.0 353.9,96.7 359.5,97.4 365.1,98.1 370.7,98.8 376.3,99.3 381.9,99.7 387.5,100.2 393.1,100.8 398.7,101.2 404.3,101.5 409.8,102.0 415.4,102.6 421.0,103.4 426.6,104.2 432.2,104.9 437.8,105.4 443.4,106.0 449.0,106.7 454.6,107.4 460.2,108.2 465.7,108.9 471.3,109.4 476.9,109.9 482.5,110.2 488.1,110.6 493.7,111.2 499.3,111.7 504.9,112.0 510.5,112.4 516.1,112.9 521.7,113.7 527.2,114.9 532.8,115.9 538.4,116.7 544.0,117.3 549.6,117.6 555.2,117.9 560.8,118.6 566.4,119.2 572.0,120.1 577.6,120.9 583.1,121.6 588.7,122.3 594.3,122.9 599.9,123.5 605.5,124.2 611.1,124.9 616.7,125.9 622.3,126.9 627.9,127.6 633.5,128.3 639.1,128.7 644.6,129.1 650.2,129.8 655.8,130.5 661.4,131.5 667.0,132.5 672.6,133.6 678.2,134.7 683.8,135.3 689.4,136.0 695.0,137.1 700.6,138.2 706.1,138.9 711.7,139.6 717.3,140.8 722.9,142.1 728.5,143.1 734.1,144.1 739.7,145.3 745.3,146.4 750.9,147.0 756.5,147.6 762.0,149.1 767.6,150.6 773.2,152.4 778.8,154.2 784.4,155.7 790.0,157.3"/>
<line x1="530" y1="71" x2="550" y2="71" stroke="#d62728" stroke-width="3"/>
<text x="556" y="75" font-family="Arial" font-size="11">inverse-kv-attn-output-router</text>
<polyline fill="none" stroke="#2ca02c" stroke-width="2.2" points="80.0,45.0 85.6,52.3 91.2,61.1 96.8,62.2 102.4,63.2 108.0,64.2 113.5,65.3 119.1,65.9 124.7,66.5 130.3,67.3 135.9,68.1 141.5,68.8 147.1,69.5 152.7,70.0 158.3,70.5 163.9,71.5 169.4,72.6 175.0,73.2 180.6,73.8 186.2,74.5 191.8,75.3 197.4,75.8 203.0,76.1 208.6,77.0 214.2,78.0 219.8,78.6 225.4,79.1 230.9,79.5 236.5,80.0 242.1,80.7 247.7,81.5 253.3,82.2 258.9,82.9 264.5,83.4 270.1,83.9 275.7,84.4 281.3,85.0 286.9,85.5 292.4,86.0 298.0,86.5 303.6,87.1 309.2,87.8 314.8,88.7 320.4,89.1 326.0,89.3 331.6,89.8 337.2,90.4 342.8,91.1 348.3,91.9 353.9,92.5 359.5,93.0 365.1,93.5 370.7,94.0 376.3,94.6 381.9,95.2 387.5,95.9 393.1,96.6 398.7,97.1 404.3,97.4 409.8,97.9 415.4,98.4 421.0,99.0 426.6,99.6 432.2,100.1 437.8,100.5 443.4,100.9 449.0,101.4 454.6,102.0 460.2,102.5 465.7,103.0 471.3,103.4 476.9,103.8 482.5,104.4 488.1,105.2 493.7,106.2 499.3,106.9 504.9,107.3 510.5,107.9 516.1,108.8 521.7,109.5 527.2,110.0 532.8,110.5 538.4,110.9 544.0,111.4 549.6,111.7 555.2,112.1 560.8,112.7 566.4,113.3 572.0,113.9 577.6,114.6 583.1,115.5 588.7,116.4 594.3,117.1 599.9,117.9 605.5,118.8 611.1,119.7 616.7,120.6 622.3,121.4 627.9,122.0 633.5,122.6 639.1,123.2 644.6,123.9 650.2,124.5 655.8,125.2 661.4,126.2 667.0,127.2 672.6,127.8 678.2,128.6 683.8,129.8 689.4,131.0 695.0,131.9 700.6,132.8 706.1,133.5 711.7,134.2 717.3,135.0 722.9,135.8 728.5,136.4 734.1,137.1 739.7,138.4 745.3,139.7 750.9,141.0 756.5,142.3 762.0,143.3 767.6,144.3 773.2,146.0 778.8,147.8 784.4,149.3 790.0,150.9"/>
<line x1="530" y1="89" x2="550" y2="89" stroke="#2ca02c" stroke-width="3"/>
<text x="556" y="93" font-family="Arial" font-size="11">inverse-kv-head-moe-hidden-router</text>
<polyline fill="none" stroke="#9467bd" stroke-width="2.2" points="80.0,45.0 85.6,52.1 91.2,60.6 96.8,62.5 102.4,64.5 108.0,65.1 113.5,65.6 119.1,66.8 124.7,68.0 130.3,68.5 135.9,69.1 141.5,69.8 147.1,70.6 152.7,71.2 158.3,71.8 163.9,72.7 169.4,73.6 175.0,74.3 180.6,74.9 186.2,75.3 191.8,75.6 197.4,76.2 203.0,76.9 208.6,77.9 214.2,79.1 219.8,79.7 225.4,80.2 230.9,80.7 236.5,81.2 242.1,81.7 247.7,82.4 253.3,82.8 258.9,83.2 264.5,83.4 270.1,83.5 275.7,84.1 281.3,84.9 286.9,85.3 292.4,85.5 298.0,86.1 303.6,86.7 309.2,87.3 314.8,87.7 320.4,88.0 326.0,88.3 331.6,88.7 337.2,89.3 342.8,89.8 348.3,90.4 353.9,90.8 359.5,91.2 365.1,91.8 370.7,92.6 376.3,93.2 381.9,93.6 387.5,94.0 393.1,94.4 398.7,94.8 404.3,95.4 409.8,96.0 415.4,96.6 421.0,97.2 426.6,97.8 432.2,98.2 437.8,98.4 443.4,98.7 449.0,99.1 454.6,99.7 460.2,100.5 465.7,101.2 471.3,101.7 476.9,102.3 482.5,103.1 488.1,103.7 493.7,104.2 499.3,104.6 504.9,105.0 510.5,105.5 516.1,106.1 521.7,106.7 527.2,107.4 532.8,108.1 538.4,108.7 544.0,109.3 549.6,109.6 555.2,110.1 560.8,110.6 566.4,111.2 572.0,112.0 577.6,112.7 583.1,113.3 588.7,113.9 594.3,114.7 599.9,115.5 605.5,116.4 611.1,117.3 616.7,118.1 622.3,118.9 627.9,119.5 633.5,120.2 639.1,120.7 644.6,121.3 650.2,122.2 655.8,123.0 661.4,123.7 667.0,124.4 672.6,125.0 678.2,125.6 683.8,126.6 689.4,127.5 695.0,128.3 700.6,129.1 706.1,129.7 711.7,130.4 717.3,131.2 722.9,132.1 728.5,133.1 734.1,134.1 739.7,135.3 745.3,136.5 750.9,137.4 756.5,138.4 762.0,140.3 767.6,142.2 773.2,143.5 778.8,144.9 784.4,147.0 790.0,149.3"/>
<line x1="530" y1="107" x2="550" y2="107" stroke="#9467bd" stroke-width="3"/>
<text x="556" y="111" font-family="Arial" font-size="11">inverse-kv-attn-output-head-moe</text>
</svg>