<svg xmlns="http://www.w3.org/2000/svg" width="820" height="520" viewBox="0 0 820 520">
<rect width="100%" height="100%" fill="white"/>
<text x="80" y="28" font-family="Arial" font-size="18">attention.o_proj</text>
<line x1="80" y1="45" x2="80" y2="445" stroke="#333"/>
<line x1="80" y1="445" x2="790" y2="445" stroke="#333"/>
<text x="350.0" y="495" font-family="Arial" font-size="13">normalized singular-value rank</text>
<text x="18" y="325.0" transform="rotate(-90 18,325.0)" font-family="Arial" font-size="13">singular value / largest</text>
<line x1="80" y1="45.0" x2="790" y2="45.0" stroke="#ddd"/>
<text x="34" y="49.0" font-family="Arial" font-size="11">1</text>
<line x1="80" y1="145.0" x2="790" y2="145.0" stroke="#ddd"/>
<text x="34" y="149.0" font-family="Arial" font-size="11">1e-1</text>
<line x1="80" y1="245.0" x2="790" y2="245.0" stroke="#ddd"/>
<text x="34" y="249.0" font-family="Arial" font-size="11">1e-2</text>
<line x1="80" y1="345.0" x2="790" y2="345.0" stroke="#ddd"/>
<text x="34" y="349.0" font-family="Arial" font-size="11">1e-3</text>
<line x1="80" y1="445.0" x2="790" y2="445.0" stroke="#ddd"/>
<text x="34" y="449.0" font-family="Arial" font-size="11">1e-4</text>
<polyline fill="none" stroke="#1f77b4" stroke-width="2.2" points="80.0,45.0 85.6,48.8 91.2,50.0 96.8,52.2 102.4,53.8 108.0,54.6 113.5,56.5 119.1,57.0 124.7,58.7 130.3,59.5 135.9,60.8 141.5,62.1 147.1,63.0 152.7,63.7 158.3,64.3 163.9,65.7 169.4,66.7 175.0,67.5 180.6,68.2 186.2,69.4 191.8,69.9 197.4,70.8 203.0,71.3 208.6,72.2 214.2,73.2 219.8,74.2 225.4,75.3 230.9,76.3 236.5,76.8 242.1,77.5 247.7,78.2 253.3,78.8 258.9,79.8 264.5,81.1 270.1,82.2 275.7,82.6 281.3,83.1 286.9,84.4 292.4,85.4 298.0,86.3 303.6,86.8 309.2,87.4 314.8,88.4 320.4,89.0 326.0,89.5 331.6,90.3 337.2,91.0 342.8,91.8 348.3,92.3 353.9,93.2 359.5,94.1 365.1,94.8 370.7,96.0 376.3,97.0 381.9,98.0 387.5,98.9 393.1,99.5 398.7,100.2 404.3,101.1 409.8,101.8 415.4,102.7 421.0,103.4 426.6,104.1 432.2,104.8 437.8,106.1 443.4,107.0 449.0,107.7 454.6,108.9 460.2,109.5 465.7,110.5 471.3,111.2 476.9,112.1 482.5,113.5 488.1,114.7 493.7,115.3 499.3,116.0 504.9,116.7 510.5,118.0 516.1,118.9 521.7,119.7 527.2,120.9 532.8,122.0 538.4,122.9 544.0,124.4 549.6,125.3 555.2,125.9 560.8,126.8 566.4,128.3 572.0,129.8 577.6,130.5 583.1,131.7 588.7,133.1 594.3,134.6 599.9,136.1 605.5,137.1 611.1,137.8 616.7,138.8 622.3,141.5 627.9,142.5 633.5,144.3 639.1,145.0 644.6,146.8 650.2,150.0 655.8,152.5 661.4,153.5 667.0,155.0 672.6,157.5 678.2,159.9 683.8,162.5 689.4,164.9 695.0,168.3 700.6,170.5 706.1,174.2 711.7,177.1 717.3,178.8 722.9,181.9 728.5,184.3 734.1,189.0 739.7,193.0 745.3,198.5 750.9,205.6 756.5,212.5 762.0,221.2 767.6,235.4 773.2,243.2 778.8,260.7 784.4,277.6 790.0,325.2"/>
<line x1="530" y1="53" x2="550" y2="53" stroke="#1f77b4" stroke-width="3"/>
<text x="556" y="57" font-family="Arial" font-size="11">inverse-kv-local-h128-l3-top1</text>
<polyline fill="none" stroke="#d62728" stroke-width="2.2" points="80.0,45.0 85.6,50.9 91.2,52.8 96.8,54.3 102.4,55.6 108.0,56.8 113.5,57.4 119.1,59.4 124.7,60.0 130.3,61.1 135.9,62.2 141.5,62.9 147.1,64.4 152.7,65.2 158.3,66.2 163.9,67.2 169.4,67.8 175.0,68.8 180.6,69.6 186.2,70.4 191.8,71.5 197.4,72.0 203.0,73.0 208.6,73.8 214.2,74.5 219.8,75.1 225.4,75.8 230.9,76.3 236.5,77.4 242.1,78.1 247.7,78.9 253.3,79.3 258.9,80.2 264.5,81.0 270.1,82.4 275.7,83.2 281.3,83.8 286.9,84.6 292.4,85.5 298.0,86.4 303.6,87.1 309.2,87.7 314.8,88.9 320.4,89.8 326.0,90.6 331.6,91.5 337.2,92.2 342.8,93.3 348.3,93.9 353.9,94.4 359.5,95.4 365.1,95.8 370.7,96.6 376.3,97.4 381.9,98.2 387.5,99.2 393.1,100.1 398.7,100.8 404.3,101.6 409.8,102.3 415.4,103.1 421.0,103.5 426.6,104.6 432.2,105.6 437.8,106.6 443.4,107.3 449.0,108.4 454.6,109.2 460.2,110.5 465.7,111.2 471.3,112.1 476.9,112.8 482.5,114.3 488.1,114.9 493.7,115.8 499.3,116.6 504.9,117.3 510.5,118.2 516.1,119.2 521.7,120.2 527.2,121.5 532.8,122.5 538.4,123.3 544.0,124.9 549.6,125.9 555.2,127.2 560.8,128.2 566.4,129.4 572.0,131.0 577.6,131.9 583.1,133.2 588.7,134.7 594.3,136.0 599.9,137.0 605.5,139.4 611.1,140.2 616.7,141.4 622.3,142.5 627.9,143.8 633.5,145.5 639.1,147.0 644.6,148.4 650.2,151.1 655.8,152.4 661.4,153.8 667.0,155.3 672.6,157.5 678.2,159.1 683.8,161.4 689.4,165.6 695.0,168.4 700.6,170.4 706.1,173.1 711.7,175.3 717.3,179.4 722.9,181.7 728.5,185.7 734.1,189.4 739.7,192.3 745.3,194.7 750.9,201.8 756.5,208.4 762.0,216.6 767.6,226.7 773.2,232.7 778.8,251.7 784.4,269.1 790.0,322.3"/>
<line x1="530" y1="71" x2="550" y2="71" stroke="#d62728" stroke-width="3"/>
<text x="556" y="75" font-family="Arial" font-size="11">inverse-kv-attn-output-router</text>
<polyline fill="none" stroke="#2ca02c" stroke-width="2.2" points="80.0,45.0 85.6,55.8 91.2,58.3 96.8,59.4 102.4,60.4 108.0,61.6 113.5,63.1 119.1,64.4 124.7,65.6 130.3,66.8 135.9,67.8 141.5,69.2 147.1,69.8 152.7,70.3 158.3,71.0 163.9,72.4 169.4,73.3 175.0,73.8 180.6,74.7 186.2,75.4 191.8,76.7 197.4,77.3 203.0,77.8 208.6,78.4 214.2,79.5 219.8,80.3 225.4,80.7 230.9,81.6 236.5,82.2 242.1,82.9 247.7,83.5 253.3,84.7 258.9,85.5 264.5,86.3 270.1,86.8 275.7,87.4 281.3,88.3 286.9,88.8 292.4,89.7 298.0,90.7 303.6,91.3 309.2,91.8 314.8,92.8 320.4,93.3 326.0,94.0 331.6,94.7 337.2,95.9 342.8,96.8 348.3,97.4 353.9,98.4 359.5,99.1 365.1,99.8 370.7,100.4 376.3,101.5 381.9,102.3 387.5,103.2 393.1,103.9 398.7,104.9 404.3,106.1 409.8,106.6 415.4,107.4 421.0,108.0 426.6,108.6 432.2,109.1 437.8,110.1 443.4,110.8 449.0,111.8 454.6,112.6 460.2,113.4 465.7,114.5 471.3,115.5 476.9,117.1 482.5,117.8 488.1,118.7 493.7,119.3 499.3,120.0 504.9,121.1 510.5,122.0 516.1,123.2 521.7,124.0 527.2,124.8 532.8,126.4 538.4,127.7 544.0,128.3 549.6,129.7 555.2,130.5 560.8,131.8 566.4,132.9 572.0,134.5 577.6,135.4 583.1,136.5 588.7,137.7 594.3,138.7 599.9,141.1 605.5,142.0 611.1,143.8 616.7,144.7 622.3,146.3 627.9,148.6 633.5,149.9 639.1,151.5 644.6,153.3 650.2,155.1 655.8,157.4 661.4,158.7 667.0,159.9 672.6,162.0 678.2,165.3 683.8,167.0 689.4,169.5 695.0,170.5 700.6,173.1 706.1,177.5 711.7,180.2 717.3,184.0 722.9,186.2 728.5,189.1 734.1,195.7 739.7,198.8 745.3,203.4 750.9,208.8 756.5,213.4 762.0,223.4 767.6,230.3 773.2,239.4 778.8,252.4 784.4,270.6 790.0,336.9"/>
<line x1="530" y1="89" x2="550" y2="89" stroke="#2ca02c" stroke-width="3"/>
<text x="556" y="93" font-family="Arial" font-size="11">inverse-kv-head-moe-hidden-router</text>
<polyline fill="none" stroke="#9467bd" stroke-width="2.2" points="80.0,45.0 85.6,56.6 91.2,58.0 96.8,59.2 102.4,60.4 108.0,62.0 113.5,63.4 119.1,64.0 124.7,65.3 130.3,66.7 135.9,67.5 141.5,68.6 147.1,69.7 152.7,70.4 158.3,71.5 163.9,72.4 169.4,72.8 175.0,73.6 180.6,74.2 186.2,75.0 191.8,75.7 197.4,76.7 203.0,77.5 208.6,78.5 214.2,79.3 219.8,80.1 225.4,80.7 230.9,81.4 236.5,81.9 242.1,82.4 247.7,83.1 253.3,83.7 258.9,84.9 264.5,85.6 270.1,86.1 275.7,87.0 281.3,87.7 286.9,88.2 292.4,89.1 298.0,89.7 303.6,90.3 309.2,91.8 314.8,92.4 320.4,92.9 326.0,93.5 331.6,94.2 337.2,95.1 342.8,95.8 348.3,96.5 353.9,97.0 359.5,97.6 365.1,98.6 370.7,99.2 376.3,100.1 381.9,101.3 387.5,101.7 393.1,102.4 398.7,103.3 404.3,104.1 409.8,104.7 415.4,105.4 421.0,106.3 426.6,107.0 432.2,107.9 437.8,108.7 443.4,109.9 449.0,110.6 454.6,111.2 460.2,112.2 465.7,113.1 471.3,114.3 476.9,115.1 482.5,115.9 488.1,117.2 493.7,117.8 499.3,118.5 504.9,119.6 510.5,120.8 516.1,121.3 521.7,122.0 527.2,123.4 532.8,124.7 538.4,126.3 544.0,127.1 549.6,128.1 555.2,128.6 560.8,129.7 566.4,130.7 572.0,131.8 577.6,132.9 583.1,134.5 588.7,136.3 594.3,137.8 599.9,138.7 605.5,139.9 611.1,141.4 616.7,142.6 622.3,144.3 627.9,145.6 633.5,147.4 639.1,148.4 644.6,150.0 650.2,151.0 655.8,153.7 661.4,156.4 667.0,158.1 672.6,160.0 678.2,163.0 683.8,164.9 689.4,169.6 695.0,170.6 700.6,173.2 706.1,175.9 711.7,177.6 717.3,180.9 722.9,183.8 728.5,187.2 734.1,189.2 739.7,194.7 745.3,199.1 750.9,209.7 756.5,214.3 762.0,217.0 767.6,230.9 773.2,238.4 778.8,258.1 784.4,297.6 790.0,329.4"/>
<line x1="530" y1="107" x2="550" y2="107" stroke="#9467bd" stroke-width="3"/>
<text x="556" y="111" font-family="Arial" font-size="11">inverse-kv-attn-output-head-moe</text>
</svg>