<svg xmlns="http://www.w3.org/2000/svg" width="820" height="520" viewBox="0 0 820 520">
<rect width="100%" height="100%" fill="white"/>
<text x="80" y="28" font-family="Arial" font-size="18">attention.v_proj</text>
<line x1="80" y1="45" x2="80" y2="445" stroke="#333"/>
<line x1="80" y1="445" x2="790" y2="445" stroke="#333"/>
<text x="350.0" y="495" font-family="Arial" font-size="13">normalized singular-value rank</text>
<text x="18" y="325.0" transform="rotate(-90 18,325.0)" font-family="Arial" font-size="13">singular value / largest</text>
<line x1="80" y1="45.0" x2="790" y2="45.0" stroke="#ddd"/>
<text x="34" y="49.0" font-family="Arial" font-size="11">1</text>
<line x1="80" y1="145.0" x2="790" y2="145.0" stroke="#ddd"/>
<text x="34" y="149.0" font-family="Arial" font-size="11">1e-1</text>
<line x1="80" y1="245.0" x2="790" y2="245.0" stroke="#ddd"/>
<text x="34" y="249.0" font-family="Arial" font-size="11">1e-2</text>
<line x1="80" y1="345.0" x2="790" y2="345.0" stroke="#ddd"/>
<text x="34" y="349.0" font-family="Arial" font-size="11">1e-3</text>
<line x1="80" y1="445.0" x2="790" y2="445.0" stroke="#ddd"/>
<text x="34" y="449.0" font-family="Arial" font-size="11">1e-4</text>
<polyline fill="none" stroke="#1f77b4" stroke-width="2.2" points="80.0,45.0 85.6,45.9 91.2,46.8 96.8,47.6 102.4,48.4 108.0,49.7 113.5,51.0 119.1,51.6 124.7,52.2 130.3,52.7 135.9,53.2 141.5,53.8 147.1,54.5 152.7,55.0 158.3,55.5 163.9,56.0 169.4,56.6 175.0,57.4 180.6,58.3 186.2,58.9 191.8,59.6 197.4,59.9 203.0,60.1 208.6,60.6 214.2,61.1 219.8,61.6 225.4,62.2 230.9,62.8 236.5,63.4 242.1,64.0 247.7,64.6 253.3,65.2 258.9,65.8 264.5,66.4 270.1,67.0 275.7,67.6 281.3,68.2 286.9,68.7 292.4,69.2 298.0,69.9 303.6,70.6 309.2,71.1 314.8,71.6 320.4,72.0 326.0,72.4 331.6,73.1 337.2,73.9 342.8,74.5 348.3,75.0 353.9,75.5 359.5,76.1 365.1,76.9 370.7,77.7 376.3,78.4 381.9,79.0 387.5,79.4 393.1,79.8 398.7,80.2 404.3,80.7 409.8,81.2 415.4,81.5 421.0,82.0 426.6,82.7 432.2,83.2 437.8,83.8 443.4,84.3 449.0,84.8 454.6,85.5 460.2,86.3 465.7,87.1 471.3,87.9 476.9,88.5 482.5,88.9 488.1,89.4 493.7,90.1 499.3,90.7 504.9,91.1 510.5,91.6 516.1,92.2 521.7,92.9 527.2,93.7 532.8,94.4 538.4,94.7 544.0,95.1 549.6,95.8 555.2,96.3 560.8,96.9 566.4,97.4 572.0,97.8 577.6,98.4 583.1,99.8 588.7,101.0 594.3,101.4 599.9,102.0 605.5,102.8 611.1,103.7 616.7,104.7 622.3,105.6 627.9,106.2 633.5,106.7 639.1,107.2 644.6,107.8 650.2,108.8 655.8,109.8 661.4,110.4 667.0,110.9 672.6,111.3 678.2,111.8 683.8,112.6 689.4,113.4 695.0,114.0 700.6,114.8 706.1,116.5 711.7,118.2 717.3,118.7 722.9,119.3 728.5,119.9 734.1,120.6 739.7,121.6 745.3,122.6 750.9,124.0 756.5,125.3 762.0,126.0 767.6,126.7 773.2,128.9 778.8,131.1 784.4,133.1 790.0,135.3"/>
<line x1="530" y1="53" x2="550" y2="53" stroke="#1f77b4" stroke-width="3"/>
<text x="556" y="57" font-family="Arial" font-size="11">inverse-kv-local-h128-l3-top1</text>
<polyline fill="none" stroke="#d62728" stroke-width="2.2" points="80.0,45.0 85.6,45.7 91.2,46.4 96.8,48.3 102.4,50.2 108.0,50.7 113.5,51.1 119.1,51.8 124.7,52.5 130.3,53.2 135.9,53.8 141.5,54.3 147.1,54.8 152.7,55.5 158.3,56.1 163.9,56.6 169.4,57.0 175.0,57.7 180.6,58.4 186.2,59.0 191.8,59.7 197.4,59.9 203.0,60.1 208.6,60.7 214.2,61.3 219.8,61.8 225.4,62.3 230.9,63.0 236.5,63.7 242.1,64.2 247.7,64.8 253.3,65.3 258.9,65.7 264.5,66.3 270.1,66.9 275.7,67.4 281.3,67.9 286.9,68.3 292.4,68.8 298.0,69.3 303.6,69.9 309.2,70.4 314.8,71.0 320.4,71.6 326.0,72.3 331.6,72.7 337.2,72.9 342.8,73.3 348.3,73.9 353.9,74.5 359.5,75.2 365.1,75.8 370.7,76.2 376.3,76.7 381.9,77.3 387.5,77.8 393.1,78.4 398.7,78.9 404.3,79.3 409.8,79.9 415.4,80.6 421.0,81.2 426.6,81.7 432.2,82.3 437.8,83.0 443.4,83.6 449.0,84.0 454.6,84.6 460.2,85.4 465.7,86.1 471.3,86.6 476.9,87.0 482.5,87.3 488.1,87.7 493.7,88.4 499.3,88.9 504.9,89.5 510.5,90.1 516.1,90.5 521.7,91.0 527.2,91.3 532.8,91.8 538.4,92.5 544.0,93.1 549.6,93.7 555.2,94.2 560.8,94.8 566.4,95.5 572.0,96.1 577.6,96.9 583.1,97.7 588.7,98.4 594.3,99.0 599.9,99.5 605.5,100.1 611.1,100.7 616.7,101.2 622.3,101.8 627.9,102.3 633.5,102.9 639.1,103.6 644.6,104.3 650.2,105.0 655.8,105.8 661.4,106.7 667.0,107.6 672.6,108.3 678.2,109.1 683.8,109.9 689.4,110.9 695.0,111.9 700.6,113.0 706.1,114.0 711.7,115.0 717.3,115.7 722.9,116.4 728.5,117.6 734.1,118.9 739.7,120.1 745.3,121.4 750.9,122.4 756.5,123.4 762.0,124.6 767.6,125.9 773.2,127.4 778.8,129.0 784.4,130.5 790.0,132.0"/>
<line x1="530" y1="71" x2="550" y2="71" stroke="#d62728" stroke-width="3"/>
<text x="556" y="75" font-family="Arial" font-size="11">inverse-kv-attn-output-router</text>
<polyline fill="none" stroke="#2ca02c" stroke-width="2.2" points="80.0,45.0 85.6,47.0 91.2,49.1 96.8,50.2 102.4,51.3 108.0,51.8 113.5,52.4 119.1,53.1 124.7,53.8 130.3,54.5 135.9,55.1 141.5,55.8 147.1,56.5 152.7,56.9 158.3,57.3 163.9,57.8 169.4,58.2 175.0,58.7 180.6,59.3 186.2,59.8 191.8,60.4 197.4,60.9 203.0,61.4 208.6,61.8 214.2,62.1 219.8,62.7 225.4,63.4 230.9,63.9 236.5,64.3 242.1,64.9 247.7,65.4 253.3,65.9 258.9,66.4 264.5,66.9 270.1,67.4 275.7,67.8 281.3,68.1 286.9,68.6 292.4,69.1 298.0,69.6 303.6,70.1 309.2,70.6 314.8,71.0 320.4,71.4 326.0,71.7 331.6,72.1 337.2,72.6 342.8,73.0 348.3,73.5 353.9,73.9 359.5,74.4 365.1,75.0 370.7,75.6 376.3,76.1 381.9,76.6 387.5,77.0 393.1,77.6 398.7,78.1 404.3,78.5 409.8,79.0 415.4,79.6 421.0,80.1 426.6,80.4 432.2,80.8 437.8,81.3 443.4,81.8 449.0,82.2 454.6,82.6 460.2,82.9 465.7,83.5 471.3,84.4 476.9,85.0 482.5,85.4 488.1,85.8 493.7,86.3 499.3,86.8 504.9,87.3 510.5,87.7 516.1,88.1 521.7,88.7 527.2,89.4 532.8,90.1 538.4,90.6 544.0,91.1 549.6,91.8 555.2,92.5 560.8,93.2 566.4,94.1 572.0,95.2 577.6,96.1 583.1,96.4 588.7,96.8 594.3,97.3 599.9,97.9 605.5,98.4 611.1,99.0 616.7,99.7 622.3,100.4 627.9,101.4 633.5,102.3 639.1,103.1 644.6,103.9 650.2,104.8 655.8,105.7 661.4,106.3 667.0,106.9 672.6,107.8 678.2,108.7 683.8,109.5 689.4,110.4 695.0,111.5 700.6,112.6 706.1,113.4 711.7,114.1 717.3,114.6 722.9,115.2 728.5,116.7 734.1,118.2 739.7,119.4 745.3,120.6 750.9,121.9 756.5,123.1 762.0,123.8 767.6,124.6 773.2,126.3 778.8,128.0 784.4,129.9 790.0,131.9"/>
<line x1="530" y1="89" x2="550" y2="89" stroke="#2ca02c" stroke-width="3"/>
<text x="556" y="93" font-family="Arial" font-size="11">inverse-kv-head-moe-hidden-router</text>
<polyline fill="none" stroke="#9467bd" stroke-width="2.2" points="80.0,45.0 85.6,47.0 91.2,49.0 96.8,49.8 102.4,50.6 108.0,51.3 113.5,52.0 119.1,52.7 124.7,53.3 130.3,53.9 135.9,54.5 141.5,55.1 147.1,55.6 152.7,56.3 158.3,57.0 163.9,57.6 169.4,58.2 175.0,58.4 180.6,58.7 186.2,59.1 191.8,59.5 197.4,60.1 203.0,60.6 208.6,61.0 214.2,61.2 219.8,61.6 225.4,62.0 230.9,62.3 236.5,62.7 242.1,63.2 247.7,63.6 253.3,64.2 258.9,64.9 264.5,65.3 270.1,65.5 275.7,65.9 281.3,66.3 286.9,66.7 292.4,67.1 298.0,67.4 303.6,67.8 309.2,68.2 314.8,68.6 320.4,69.1 326.0,69.6 331.6,70.2 337.2,70.8 342.8,71.3 348.3,71.8 353.9,72.3 359.5,72.9 365.1,73.4 370.7,73.9 376.3,74.5 381.9,75.1 387.5,75.5 393.1,75.8 398.7,76.0 404.3,76.3 409.8,76.7 415.4,77.3 421.0,77.8 426.6,78.2 432.2,78.7 437.8,79.5 443.4,80.1 449.0,80.6 454.6,81.0 460.2,81.5 465.7,81.9 471.3,82.2 476.9,82.6 482.5,82.9 488.1,83.5 493.7,84.2 499.3,84.9 504.9,85.3 510.5,85.7 516.1,86.0 521.7,86.3 527.2,86.8 532.8,87.3 538.4,87.9 544.0,88.4 549.6,89.0 555.2,89.6 560.8,90.2 566.4,90.9 572.0,91.7 577.6,92.5 583.1,93.2 588.7,93.9 594.3,94.9 599.9,95.7 605.5,95.9 611.1,96.4 616.7,97.7 622.3,98.7 627.9,99.0 633.5,99.4 639.1,100.1 644.6,100.8 650.2,101.5 655.8,102.2 661.4,102.6 667.0,103.1 672.6,103.9 678.2,104.8 683.8,105.7 689.4,106.6 695.0,107.6 700.6,108.5 706.1,109.0 711.7,109.5 717.3,110.3 722.9,111.1 728.5,112.2 734.1,113.3 739.7,114.2 745.3,115.2 750.9,116.5 756.5,117.9 762.0,118.7 767.6,119.7 773.2,121.1 778.8,122.6 784.4,124.5 790.0,126.5"/>
<line x1="530" y1="107" x2="550" y2="107" stroke="#9467bd" stroke-width="3"/>
<text x="556" y="111" font-family="Arial" font-size="11">inverse-kv-attn-output-head-moe</text>
</svg>