<svg xmlns="http://www.w3.org/2000/svg" width="820" height="520" viewBox="0 0 820 520">
<rect width="100%" height="100%" fill="white"/>
<text x="80" y="28" font-family="Arial" font-size="18">attention.q_proj</text>
<line x1="80" y1="45" x2="80" y2="445" stroke="#333"/>
<line x1="80" y1="445" x2="790" y2="445" stroke="#333"/>
<text x="350.0" y="495" font-family="Arial" font-size="13">normalized singular-value rank</text>
<text x="18" y="325.0" transform="rotate(-90 18,325.0)" font-family="Arial" font-size="13">singular value / largest</text>
<line x1="80" y1="45.0" x2="790" y2="45.0" stroke="#ddd"/>
<text x="34" y="49.0" font-family="Arial" font-size="11">1</text>
<line x1="80" y1="145.0" x2="790" y2="145.0" stroke="#ddd"/>
<text x="34" y="149.0" font-family="Arial" font-size="11">1e-1</text>
<line x1="80" y1="245.0" x2="790" y2="245.0" stroke="#ddd"/>
<text x="34" y="249.0" font-family="Arial" font-size="11">1e-2</text>
<line x1="80" y1="345.0" x2="790" y2="345.0" stroke="#ddd"/>
<text x="34" y="349.0" font-family="Arial" font-size="11">1e-3</text>
<line x1="80" y1="445.0" x2="790" y2="445.0" stroke="#ddd"/>
<text x="34" y="449.0" font-family="Arial" font-size="11">1e-4</text>
<polyline fill="none" stroke="#1f77b4" stroke-width="2.2" points="80.0,45.0 85.6,52.8 91.2,55.8 96.8,57.6 102.4,59.3 108.0,60.6 113.5,61.8 119.1,63.2 124.7,64.5 130.3,65.7 135.9,66.9 141.5,68.7 147.1,69.7 152.7,71.2 158.3,71.7 163.9,72.8 169.4,73.6 175.0,74.3 180.6,75.7 186.2,76.2 191.8,77.2 197.4,78.0 203.0,78.9 208.6,79.7 214.2,80.6 219.8,81.3 225.4,82.4 230.9,83.2 236.5,84.0 242.1,84.6 247.7,86.0 253.3,86.8 258.9,87.5 264.5,88.5 270.1,89.7 275.7,90.2 281.3,90.9 286.9,91.9 292.4,92.3 298.0,93.4 303.6,94.5 309.2,95.2 314.8,96.1 320.4,96.6 326.0,97.3 331.6,98.8 337.2,99.8 342.8,100.2 348.3,101.1 353.9,101.6 359.5,102.4 365.1,103.4 370.7,104.1 376.3,105.2 381.9,106.1 387.5,107.3 393.1,107.9 398.7,108.3 404.3,109.5 409.8,110.3 415.4,111.0 421.0,111.8 426.6,112.9 432.2,113.7 437.8,114.6 443.4,115.8 449.0,116.3 454.6,117.2 460.2,118.5 465.7,119.3 471.3,120.1 476.9,120.8 482.5,122.1 488.1,123.2 493.7,124.6 499.3,125.6 504.9,126.3 510.5,126.9 516.1,127.9 521.7,129.0 527.2,130.3 532.8,130.8 538.4,131.8 544.0,132.9 549.6,134.0 555.2,135.1 560.8,136.2 566.4,137.2 572.0,138.5 577.6,139.5 583.1,141.0 588.7,142.3 594.3,143.2 599.9,144.5 605.5,146.3 611.1,147.2 616.7,149.1 622.3,150.9 627.9,151.6 633.5,153.1 639.1,155.2 644.6,156.9 650.2,158.7 655.8,161.0 661.4,163.4 667.0,165.1 672.6,167.6 678.2,168.9 683.8,170.8 689.4,172.1 695.0,174.0 700.6,177.3 706.1,181.0 711.7,184.3 717.3,187.1 722.9,190.4 728.5,193.3 734.1,197.0 739.7,203.8 745.3,208.9 750.9,214.3 756.5,216.9 762.0,229.0 767.6,238.6 773.2,249.3 778.8,262.3 784.4,278.7 790.0,321.6"/>
<line x1="530" y1="53" x2="550" y2="53" stroke="#1f77b4" stroke-width="3"/>
<text x="556" y="57" font-family="Arial" font-size="11">inverse-kv-local-h128-l3-top1</text>
<polyline fill="none" stroke="#d62728" stroke-width="2.2" points="80.0,45.0 85.6,55.9 91.2,57.6 96.8,60.0 102.4,62.6 108.0,63.8 113.5,65.0 119.1,66.4 124.7,67.4 130.3,68.4 135.9,69.4 141.5,70.8 147.1,71.6 152.7,72.4 158.3,73.2 163.9,74.1 169.4,75.1 175.0,76.2 180.6,77.1 186.2,77.8 191.8,78.9 197.4,79.8 203.0,80.8 208.6,81.5 214.2,82.1 219.8,83.5 225.4,84.0 230.9,84.7 236.5,85.7 242.1,86.2 247.7,87.1 253.3,88.0 258.9,89.2 264.5,89.8 270.1,90.4 275.7,91.1 281.3,92.0 286.9,92.6 292.4,93.8 298.0,94.7 303.6,95.7 309.2,96.4 314.8,97.2 320.4,97.7 326.0,98.6 331.6,99.6 337.2,100.4 342.8,101.1 348.3,102.2 353.9,102.7 359.5,103.5 365.1,104.6 370.7,105.8 376.3,106.3 381.9,107.3 387.5,108.2 393.1,108.6 398.7,109.6 404.3,110.5 409.8,111.3 415.4,112.1 421.0,112.8 426.6,113.7 432.2,114.8 437.8,116.0 443.4,116.7 449.0,117.8 454.6,118.6 460.2,119.6 465.7,120.2 471.3,121.0 476.9,122.2 482.5,123.0 488.1,123.6 493.7,124.5 499.3,125.7 504.9,126.9 510.5,128.3 516.1,129.5 521.7,129.8 527.2,131.1 532.8,132.0 538.4,133.5 544.0,134.3 549.6,135.3 555.2,137.0 560.8,138.0 566.4,138.8 572.0,139.8 577.6,140.8 583.1,141.7 588.7,143.7 594.3,146.0 599.9,147.2 605.5,148.5 611.1,149.8 616.7,151.4 622.3,152.5 627.9,153.3 633.5,155.4 639.1,156.8 644.6,158.9 650.2,160.2 655.8,161.9 661.4,163.3 667.0,165.7 672.6,167.2 678.2,168.5 683.8,172.2 689.4,174.4 695.0,177.2 700.6,179.5 706.1,182.4 711.7,187.0 717.3,189.7 722.9,192.2 728.5,194.3 734.1,199.2 739.7,202.0 745.3,208.2 750.9,211.5 756.5,220.4 762.0,227.9 767.6,239.2 773.2,253.4 778.8,263.2 784.4,284.0 790.0,313.5"/>
<line x1="530" y1="71" x2="550" y2="71" stroke="#d62728" stroke-width="3"/>
<text x="556" y="75" font-family="Arial" font-size="11">inverse-kv-attn-output-router</text>
<polyline fill="none" stroke="#2ca02c" stroke-width="2.2" points="80.0,45.0 85.6,55.7 91.2,58.7 96.8,60.1 102.4,61.5 108.0,62.4 113.5,63.9 119.1,65.1 124.7,66.1 130.3,67.4 135.9,68.2 141.5,69.0 147.1,70.4 152.7,71.2 158.3,72.1 163.9,73.0 169.4,73.7 175.0,74.7 180.6,75.6 186.2,76.1 191.8,76.9 197.4,78.1 203.0,78.7 208.6,79.3 214.2,80.5 219.8,81.2 225.4,81.7 230.9,82.3 236.5,83.2 242.1,84.1 247.7,85.0 253.3,86.1 258.9,86.8 264.5,87.6 270.1,88.4 275.7,89.0 281.3,89.8 286.9,90.6 292.4,91.4 298.0,91.7 303.6,92.9 309.2,93.4 314.8,94.3 320.4,95.1 326.0,96.0 331.6,96.7 337.2,97.7 342.8,99.0 348.3,99.5 353.9,100.2 359.5,101.1 365.1,102.2 370.7,102.8 376.3,104.0 381.9,104.6 387.5,105.5 393.1,106.3 398.7,107.1 404.3,107.9 409.8,109.0 415.4,110.2 421.0,110.8 426.6,111.5 432.2,112.8 437.8,113.5 443.4,114.0 449.0,115.2 454.6,116.1 460.2,117.3 465.7,118.0 471.3,118.9 476.9,119.8 482.5,120.8 488.1,122.0 493.7,123.0 499.3,124.0 504.9,124.7 510.5,125.7 516.1,126.6 521.7,127.5 527.2,128.7 532.8,129.3 538.4,130.3 544.0,131.6 549.6,132.8 555.2,133.6 560.8,134.6 566.4,136.5 572.0,138.2 577.6,139.1 583.1,139.7 588.7,140.9 594.3,142.0 599.9,143.1 605.5,146.3 611.1,148.0 616.7,148.8 622.3,150.1 627.9,152.6 633.5,153.6 639.1,154.4 644.6,156.5 650.2,157.6 655.8,160.1 661.4,161.6 667.0,163.1 672.6,164.9 678.2,167.0 683.8,168.8 689.4,172.1 695.0,174.3 700.6,178.1 706.1,181.4 711.7,184.1 717.3,187.9 722.9,190.2 728.5,193.7 734.1,198.5 739.7,202.2 745.3,210.9 750.9,216.9 756.5,225.0 762.0,233.7 767.6,241.7 773.2,254.8 778.8,273.0 784.4,290.6 790.0,387.9"/>
<line x1="530" y1="89" x2="550" y2="89" stroke="#2ca02c" stroke-width="3"/>
<text x="556" y="93" font-family="Arial" font-size="11">inverse-kv-head-moe-hidden-router</text>
<polyline fill="none" stroke="#9467bd" stroke-width="2.2" points="80.0,45.0 85.6,57.2 91.2,59.1 96.8,60.6 102.4,62.2 108.0,63.9 113.5,65.0 119.1,66.7 124.7,67.2 130.3,68.5 135.9,69.1 141.5,70.4 147.1,71.0 152.7,71.7 158.3,72.7 163.9,73.7 169.4,74.2 175.0,75.1 180.6,76.1 186.2,76.8 191.8,77.8 197.4,78.2 203.0,78.9 208.6,80.0 214.2,80.5 219.8,81.5 225.4,82.2 230.9,83.0 236.5,83.9 242.1,84.9 247.7,86.1 253.3,86.4 258.9,87.1 264.5,88.0 270.1,88.8 275.7,89.5 281.3,90.7 286.9,91.3 292.4,91.8 298.0,92.3 303.6,93.0 309.2,93.6 314.8,94.7 320.4,95.5 326.0,96.1 331.6,96.6 337.2,97.5 342.8,98.2 348.3,98.7 353.9,99.5 359.5,100.2 365.1,101.0 370.7,101.6 376.3,102.6 381.9,103.4 387.5,104.1 393.1,104.8 398.7,105.6 404.3,106.3 409.8,107.2 415.4,108.0 421.0,108.8 426.6,109.9 432.2,110.4 437.8,111.1 443.4,111.8 449.0,112.7 454.6,113.7 460.2,114.0 465.7,114.5 471.3,115.4 476.9,116.6 482.5,117.7 488.1,118.4 493.7,119.4 499.3,120.7 504.9,121.5 510.5,122.2 516.1,122.7 521.7,123.8 527.2,125.3 532.8,126.3 538.4,127.5 544.0,128.2 549.6,129.2 555.2,130.8 560.8,131.9 566.4,132.7 572.0,134.1 577.6,135.0 583.1,136.2 588.7,137.3 594.3,138.4 599.9,139.8 605.5,141.0 611.1,142.4 616.7,143.7 622.3,145.3 627.9,146.6 633.5,148.5 639.1,150.8 644.6,152.5 650.2,154.0 655.8,155.4 661.4,157.0 667.0,158.6 672.6,161.3 678.2,163.5 683.8,164.6 689.4,167.2 695.0,170.4 700.6,171.9 706.1,175.0 711.7,178.0 717.3,179.6 722.9,183.0 728.5,188.1 734.1,192.5 739.7,198.2 745.3,200.6 750.9,207.7 756.5,213.0 762.0,220.8 767.6,227.6 773.2,241.2 778.8,257.3 784.4,279.5 790.0,328.4"/>
<line x1="530" y1="107" x2="550" y2="107" stroke="#9467bd" stroke-width="3"/>
<text x="556" y="111" font-family="Arial" font-size="11">inverse-kv-attn-output-head-moe</text>
</svg>