<svg xmlns="http://www.w3.org/2000/svg" width="820" height="520" viewBox="0 0 820 520">
<rect width="100%" height="100%" fill="white"/>
<text x="80" y="28" font-family="Arial" font-size="18">moe_expert.gate_proj</text>
<line x1="80" y1="45" x2="80" y2="445" stroke="#333"/>
<line x1="80" y1="445" x2="790" y2="445" stroke="#333"/>
<text x="350.0" y="495" font-family="Arial" font-size="13">normalized singular-value rank</text>
<text x="18" y="325.0" transform="rotate(-90 18,325.0)" font-family="Arial" font-size="13">singular value / largest</text>
<line x1="80" y1="45.0" x2="790" y2="45.0" stroke="#ddd"/>
<text x="34" y="49.0" font-family="Arial" font-size="11">1</text>
<line x1="80" y1="145.0" x2="790" y2="145.0" stroke="#ddd"/>
<text x="34" y="149.0" font-family="Arial" font-size="11">1e-1</text>
<line x1="80" y1="245.0" x2="790" y2="245.0" stroke="#ddd"/>
<text x="34" y="249.0" font-family="Arial" font-size="11">1e-2</text>
<line x1="80" y1="345.0" x2="790" y2="345.0" stroke="#ddd"/>
<text x="34" y="349.0" font-family="Arial" font-size="11">1e-3</text>
<line x1="80" y1="445.0" x2="790" y2="445.0" stroke="#ddd"/>
<text x="34" y="449.0" font-family="Arial" font-size="11">1e-4</text>
<polyline fill="none" stroke="#1f77b4" stroke-width="2.2" points="80.0,45.0 85.6,47.6 91.2,49.2 96.8,50.7 102.4,52.1 108.0,53.2 113.5,54.2 119.1,54.9 124.7,56.1 130.3,57.1 135.9,57.9 141.5,58.8 147.1,59.8 152.7,60.6 158.3,61.6 163.9,62.6 169.4,63.2 175.0,64.0 180.6,64.8 186.2,65.7 191.8,66.3 197.4,67.1 203.0,67.9 208.6,68.8 214.2,69.5 219.8,70.3 225.4,71.1 230.9,71.8 236.5,72.5 242.1,73.2 247.7,74.2 253.3,74.8 258.9,75.8 264.5,76.5 270.1,77.5 275.7,78.3 281.3,79.0 286.9,80.0 292.4,80.8 298.0,81.7 303.6,82.3 309.2,83.2 314.8,83.9 320.4,84.8 326.0,85.5 331.6,86.1 337.2,87.0 342.8,87.8 348.3,88.7 353.9,89.4 359.5,90.2 365.1,91.1 370.7,92.0 376.3,92.9 381.9,93.9 387.5,94.6 393.1,95.3 398.7,96.1 404.3,96.9 409.8,97.8 415.4,98.5 421.0,99.5 426.6,100.5 432.2,101.4 437.8,102.4 443.4,103.3 449.0,104.2 454.6,105.2 460.2,106.2 465.7,106.9 471.3,107.8 476.9,108.9 482.5,109.9 488.1,110.7 493.7,111.6 499.3,112.6 504.9,113.7 510.5,114.8 516.1,115.7 521.7,116.7 527.2,117.5 532.8,118.6 538.4,119.8 544.0,120.8 549.6,121.9 555.2,123.2 560.8,124.1 566.4,125.2 572.0,126.5 577.6,127.6 583.1,129.0 588.7,130.0 594.3,131.5 599.9,132.7 605.5,133.9 611.1,135.3 616.7,137.0 622.3,138.7 627.9,140.4 633.5,141.9 639.1,143.7 644.6,145.6 650.2,147.4 655.8,148.8 661.4,150.9 667.0,153.0 672.6,154.6 678.2,156.7 683.8,158.9 689.4,161.6 695.0,164.1 700.6,166.4 706.1,169.2 711.7,172.2 717.3,175.5 722.9,178.6 728.5,182.2 734.1,186.1 739.7,190.6 745.3,195.5 750.9,201.5 756.5,207.0 762.0,214.1 767.6,224.8 773.2,238.1 778.8,254.7 784.4,280.1 790.0,333.0"/>
<line x1="530" y1="53" x2="550" y2="53" stroke="#1f77b4" stroke-width="3"/>
<text x="556" y="57" font-family="Arial" font-size="11">inverse-kv-local-h128-l3-top1</text>
<polyline fill="none" stroke="#d62728" stroke-width="2.2" points="80.0,45.0 85.6,48.1 91.2,50.2 96.8,51.7 102.4,52.7 108.0,54.0 113.5,55.0 119.1,56.1 124.7,56.9 130.3,57.6 135.9,58.6 141.5,59.8 147.1,60.4 152.7,61.2 158.3,62.1 163.9,62.9 169.4,63.8 175.0,64.5 180.6,65.4 186.2,66.2 191.8,67.1 197.4,67.9 203.0,68.9 208.6,69.5 214.2,70.3 219.8,71.2 225.4,71.8 230.9,72.8 236.5,73.4 242.1,74.0 247.7,74.9 253.3,75.9 258.9,76.6 264.5,77.3 270.1,78.0 275.7,78.9 281.3,79.7 286.9,80.5 292.4,81.2 298.0,82.0 303.6,82.6 309.2,83.5 314.8,84.4 320.4,85.0 326.0,85.9 331.6,86.9 337.2,87.7 342.8,88.4 348.3,89.2 353.9,90.1 359.5,90.9 365.1,91.6 370.7,92.5 376.3,93.3 381.9,94.3 387.5,95.1 393.1,95.8 398.7,96.5 404.3,97.4 409.8,98.1 415.4,99.0 421.0,99.9 426.6,100.5 432.2,101.6 437.8,102.2 443.4,103.3 449.0,104.0 454.6,104.8 460.2,105.6 465.7,106.7 471.3,107.6 476.9,108.8 482.5,109.6 488.1,110.7 493.7,111.4 499.3,112.4 504.9,113.8 510.5,114.5 516.1,115.6 521.7,116.5 527.2,117.7 532.8,118.7 538.4,119.5 544.0,120.8 549.6,122.3 555.2,123.1 560.8,124.3 566.4,125.3 572.0,126.4 577.6,127.5 583.1,128.6 588.7,130.3 594.3,131.7 599.9,133.3 605.5,134.3 611.1,135.7 616.7,137.3 622.3,138.6 627.9,140.0 633.5,141.8 639.1,143.2 644.6,144.7 650.2,146.6 655.8,148.5 661.4,150.3 667.0,152.8 672.6,155.0 678.2,156.5 683.8,159.0 689.4,161.6 695.0,163.8 700.6,166.5 706.1,169.2 711.7,171.7 717.3,175.6 722.9,179.0 728.5,182.0 734.1,187.3 739.7,191.1 745.3,195.5 750.9,201.8 756.5,208.2 762.0,215.7 767.6,224.9 773.2,235.2 778.8,245.4 784.4,275.2 790.0,323.3"/>
<line x1="530" y1="71" x2="550" y2="71" stroke="#d62728" stroke-width="3"/>
<text x="556" y="75" font-family="Arial" font-size="11">inverse-kv-attn-output-router</text>
<polyline fill="none" stroke="#2ca02c" stroke-width="2.2" points="80.0,45.0 85.6,46.0 91.2,47.1 96.8,48.2 102.4,49.3 108.0,50.1 113.5,51.0 119.1,51.8 124.7,52.7 130.3,53.4 135.9,54.1 141.5,54.8 147.1,55.5 152.7,56.2 158.3,57.0 163.9,57.8 169.4,58.5 175.0,59.3 180.6,60.1 186.2,60.9 191.8,61.6 197.4,62.4 203.0,63.2 208.6,64.0 214.2,64.8 219.8,65.5 225.4,66.2 230.9,66.8 236.5,67.4 242.1,68.1 247.7,69.0 253.3,69.8 258.9,70.6 264.5,71.5 270.1,72.2 275.7,72.9 281.3,73.6 286.9,74.4 292.4,75.0 298.0,75.7 303.6,76.4 309.2,77.1 314.8,77.8 320.4,78.5 326.0,79.1 331.6,79.8 337.2,80.4 342.8,81.0 348.3,81.6 353.9,82.2 359.5,82.9 365.1,83.6 370.7,84.4 376.3,85.1 381.9,85.8 387.5,86.4 393.1,87.0 398.7,87.7 404.3,88.3 409.8,89.0 415.4,89.6 421.0,90.3 426.6,91.0 432.2,91.8 437.8,92.5 443.4,93.3 449.0,94.0 454.6,94.6 460.2,95.2 465.7,95.9 471.3,96.5 476.9,97.1 482.5,97.7 488.1,98.3 493.7,98.9 499.3,99.6 504.9,100.2 510.5,100.9 516.1,101.6 521.7,102.2 527.2,102.8 532.8,103.5 538.4,104.1 544.0,104.7 549.6,105.3 555.2,106.0 560.8,106.6 566.4,107.2 572.0,107.8 577.6,108.4 583.1,109.1 588.7,109.7 594.3,110.2 599.9,110.8 605.5,111.4 611.1,112.0 616.7,112.6 622.3,113.2 627.9,113.7 633.5,114.3 639.1,114.9 644.6,115.5 650.2,116.1 655.8,116.7 661.4,117.3 667.0,117.8 672.6,118.4 678.2,119.1 683.8,119.8 689.4,120.5 695.0,121.3 700.6,122.0 706.1,122.6 711.7,123.2 717.3,123.9 722.9,124.6 728.5,125.3 734.1,126.1 739.7,126.9 745.3,127.7 750.9,128.5 756.5,129.2 762.0,130.0 767.6,130.8 773.2,131.8 778.8,132.9 784.4,134.0 790.0,135.1"/>
<line x1="530" y1="89" x2="550" y2="89" stroke="#2ca02c" stroke-width="3"/>
<text x="556" y="93" font-family="Arial" font-size="11">inverse-kv-head-moe-hidden-router</text>
<polyline fill="none" stroke="#9467bd" stroke-width="2.2" points="80.0,45.0 85.6,46.2 91.2,47.3 96.8,48.6 102.4,49.8 108.0,50.7 113.5,51.7 119.1,52.6 124.7,53.5 130.3,54.3 135.9,55.1 141.5,55.8 147.1,56.6 152.7,57.5 158.3,58.5 163.9,59.6 169.4,60.6 175.0,61.5 180.6,62.3 186.2,63.1 191.8,63.9 197.4,64.7 203.0,65.5 208.6,66.3 214.2,67.2 219.8,68.0 225.4,68.8 230.9,69.5 236.5,70.3 242.1,71.1 247.7,71.8 253.3,72.6 258.9,73.3 264.5,74.1 270.1,74.9 275.7,75.7 281.3,76.5 286.9,77.3 292.4,78.0 298.0,78.7 303.6,79.4 309.2,80.2 314.8,80.9 320.4,81.7 326.0,82.4 331.6,83.2 337.2,84.0 342.8,84.9 348.3,85.7 353.9,86.6 359.5,87.3 365.1,88.0 370.7,88.7 376.3,89.4 381.9,90.1 387.5,90.9 393.1,91.7 398.7,92.5 404.3,93.2 409.8,93.8 415.4,94.4 421.0,95.1 426.6,95.7 432.2,96.3 437.8,96.9 443.4,97.4 449.0,98.1 454.6,98.7 460.2,99.4 465.7,100.1 471.3,100.8 476.9,101.4 482.5,102.0 488.1,102.7 493.7,103.3 499.3,104.0 504.9,104.7 510.5,105.4 516.1,106.1 521.7,106.7 527.2,107.4 532.8,108.0 538.4,108.7 544.0,109.3 549.6,109.9 555.2,110.5 560.8,111.2 566.4,111.7 572.0,112.3 577.6,112.9 583.1,113.5 588.7,114.0 594.3,114.5 599.9,115.0 605.5,115.6 611.1,116.1 616.7,116.7 622.3,117.3 627.9,117.9 633.5,118.5 639.1,119.1 644.6,119.7 650.2,120.3 655.8,120.9 661.4,121.5 667.0,122.2 672.6,122.8 678.2,123.5 683.8,124.1 689.4,124.8 695.0,125.5 700.6,126.1 706.1,126.7 711.7,127.3 717.3,127.9 722.9,128.5 728.5,129.2 734.1,129.8 739.7,130.5 745.3,131.2 750.9,132.0 756.5,132.9 762.0,133.8 767.6,134.7 773.2,135.8 778.8,136.9 784.4,138.1 790.0,139.2"/>
<line x1="530" y1="107" x2="550" y2="107" stroke="#9467bd" stroke-width="3"/>
<text x="556" y="111" font-family="Arial" font-size="11">inverse-kv-attn-output-head-moe</text>
</svg>