<svg xmlns="http://www.w3.org/2000/svg" width="820" height="520" viewBox="0 0 820 520">
<rect width="100%" height="100%" fill="white"/>
<text x="80" y="28" font-family="Arial" font-size="18">moe_expert.up_proj</text>
<line x1="80" y1="45" x2="80" y2="445" stroke="#333"/>
<line x1="80" y1="445" x2="790" y2="445" stroke="#333"/>
<text x="350.0" y="495" font-family="Arial" font-size="13">normalized singular-value rank</text>
<text x="18" y="325.0" transform="rotate(-90 18,325.0)" font-family="Arial" font-size="13">singular value / largest</text>
<line x1="80" y1="45.0" x2="790" y2="45.0" stroke="#ddd"/>
<text x="34" y="49.0" font-family="Arial" font-size="11">1</text>
<line x1="80" y1="145.0" x2="790" y2="145.0" stroke="#ddd"/>
<text x="34" y="149.0" font-family="Arial" font-size="11">1e-1</text>
<line x1="80" y1="245.0" x2="790" y2="245.0" stroke="#ddd"/>
<text x="34" y="249.0" font-family="Arial" font-size="11">1e-2</text>
<line x1="80" y1="345.0" x2="790" y2="345.0" stroke="#ddd"/>
<text x="34" y="349.0" font-family="Arial" font-size="11">1e-3</text>
<line x1="80" y1="445.0" x2="790" y2="445.0" stroke="#ddd"/>
<text x="34" y="449.0" font-family="Arial" font-size="11">1e-4</text>
<polyline fill="none" stroke="#1f77b4" stroke-width="2.2" points="80.0,45.0 85.6,47.6 91.2,49.1 96.8,50.3 102.4,51.6 108.0,52.5 113.5,53.8 119.1,54.6 124.7,55.7 130.3,56.5 135.9,57.5 141.5,58.3 147.1,59.2 152.7,60.1 158.3,60.7 163.9,61.6 169.4,62.4 175.0,63.2 180.6,64.0 186.2,64.9 191.8,65.9 197.4,66.9 203.0,67.6 208.6,68.3 214.2,69.3 219.8,70.1 225.4,71.1 230.9,71.6 236.5,72.5 242.1,73.3 247.7,74.0 253.3,75.0 258.9,75.7 264.5,76.5 270.1,77.2 275.7,78.0 281.3,78.9 286.9,79.6 292.4,80.4 298.0,81.1 303.6,82.0 309.2,83.1 314.8,83.9 320.4,84.7 326.0,85.4 331.6,86.2 337.2,87.1 342.8,87.8 348.3,88.6 353.9,89.3 359.5,90.3 365.1,91.1 370.7,91.6 376.3,92.6 381.9,93.4 387.5,94.4 393.1,95.0 398.7,95.9 404.3,96.6 409.8,97.5 415.4,98.5 421.0,99.2 426.6,100.1 432.2,101.1 437.8,102.1 443.4,102.6 449.0,103.5 454.6,104.5 460.2,105.5 465.7,106.1 471.3,107.3 476.9,108.4 482.5,109.3 488.1,110.1 493.7,111.2 499.3,112.3 504.9,112.9 510.5,113.9 516.1,114.9 521.7,116.0 527.2,116.9 532.8,118.0 538.4,119.2 544.0,120.5 549.6,121.2 555.2,122.5 560.8,123.9 566.4,124.7 572.0,125.8 577.6,127.0 583.1,128.4 588.7,129.9 594.3,131.4 599.9,132.8 605.5,134.5 611.1,135.5 616.7,137.2 622.3,138.4 627.9,140.4 633.5,142.2 639.1,143.4 644.6,145.3 650.2,146.9 655.8,148.4 661.4,150.5 667.0,152.5 672.6,154.4 678.2,156.4 683.8,159.0 689.4,161.5 695.0,163.8 700.6,166.1 706.1,168.8 711.7,172.0 717.3,175.1 722.9,178.4 728.5,182.7 734.1,187.2 739.7,191.3 745.3,196.0 750.9,200.9 756.5,208.2 762.0,215.9 767.6,222.6 773.2,235.4 778.8,248.7 784.4,273.4 790.0,334.8"/>
<line x1="530" y1="53" x2="550" y2="53" stroke="#1f77b4" stroke-width="3"/>
<text x="556" y="57" font-family="Arial" font-size="11">inverse-kv-local-h128-l3-top1</text>
<polyline fill="none" stroke="#d62728" stroke-width="2.2" points="80.0,45.0 85.6,47.2 91.2,48.8 96.8,49.9 102.4,50.9 108.0,52.2 113.5,53.4 119.1,54.3 124.7,55.2 130.3,56.2 135.9,56.8 141.5,57.7 147.1,58.7 152.7,59.6 158.3,60.5 163.9,61.3 169.4,62.1 175.0,63.0 180.6,63.7 186.2,64.6 191.8,65.3 197.4,66.1 203.0,66.8 208.6,67.5 214.2,68.3 219.8,69.3 225.4,70.2 230.9,71.0 236.5,71.7 242.1,72.4 247.7,73.2 253.3,73.9 258.9,74.6 264.5,75.4 270.1,76.2 275.7,77.0 281.3,77.7 286.9,78.6 292.4,79.5 298.0,80.1 303.6,81.1 309.2,81.6 314.8,82.4 320.4,83.3 326.0,84.0 331.6,85.0 337.2,85.7 342.8,86.3 348.3,87.3 353.9,88.0 359.5,88.8 365.1,89.8 370.7,90.4 376.3,91.3 381.9,92.1 387.5,92.7 393.1,93.6 398.7,94.5 404.3,95.1 409.8,96.0 415.4,96.8 421.0,97.9 426.6,98.6 432.2,99.6 437.8,100.0 443.4,101.3 449.0,102.0 454.6,102.8 460.2,103.7 465.7,104.6 471.3,105.4 476.9,106.5 482.5,107.5 488.1,108.8 493.7,109.6 499.3,110.4 504.9,111.3 510.5,112.5 516.1,113.1 521.7,114.2 527.2,115.1 532.8,116.5 538.4,117.5 544.0,118.7 549.6,119.7 555.2,120.8 560.8,122.0 566.4,123.5 572.0,124.6 577.6,126.3 583.1,127.4 588.7,128.7 594.3,129.9 599.9,131.1 605.5,132.6 611.1,133.9 616.7,135.3 622.3,137.0 627.9,138.5 633.5,139.8 639.1,141.3 644.6,142.7 650.2,144.7 655.8,146.4 661.4,148.4 667.0,150.5 672.6,153.0 678.2,155.0 683.8,156.8 689.4,159.4 695.0,161.7 700.6,164.4 706.1,167.6 711.7,169.9 717.3,172.9 722.9,177.6 728.5,181.1 734.1,184.4 739.7,189.2 745.3,193.0 750.9,199.2 756.5,205.2 762.0,212.7 767.6,221.3 773.2,235.8 778.8,252.4 784.4,279.2 790.0,316.3"/>
<line x1="530" y1="71" x2="550" y2="71" stroke="#d62728" stroke-width="3"/>
<text x="556" y="75" font-family="Arial" font-size="11">inverse-kv-attn-output-router</text>
<polyline fill="none" stroke="#2ca02c" stroke-width="2.2" points="80.0,45.0 85.6,46.2 91.2,47.4 96.8,48.6 102.4,49.9 108.0,50.7 113.5,51.5 119.1,52.2 124.7,53.0 130.3,53.8 135.9,54.5 141.5,55.2 147.1,56.0 152.7,56.7 158.3,57.3 163.9,58.0 169.4,58.7 175.0,59.4 180.6,60.2 186.2,61.0 191.8,61.7 197.4,62.5 203.0,63.1 208.6,63.7 214.2,64.4 219.8,65.1 225.4,65.9 230.9,66.7 236.5,67.6 242.1,68.4 247.7,69.1 253.3,69.8 258.9,70.5 264.5,71.3 270.1,72.0 275.7,72.8 281.3,73.6 286.9,74.3 292.4,75.0 298.0,75.7 303.6,76.4 309.2,77.1 314.8,77.8 320.4,78.5 326.0,79.2 331.6,79.9 337.2,80.5 342.8,81.1 348.3,81.7 353.9,82.4 359.5,83.1 365.1,83.9 370.7,84.7 376.3,85.5 381.9,86.1 387.5,86.7 393.1,87.3 398.7,87.9 404.3,88.6 409.8,89.3 415.4,90.0 421.0,90.7 426.6,91.3 432.2,92.0 437.8,92.7 443.4,93.4 449.0,94.0 454.6,94.6 460.2,95.2 465.7,95.7 471.3,96.3 476.9,97.0 482.5,97.7 488.1,98.4 493.7,99.0 499.3,99.6 504.9,100.2 510.5,100.8 516.1,101.4 521.7,102.1 527.2,102.8 532.8,103.6 538.4,104.3 544.0,104.9 549.6,105.5 555.2,106.2 560.8,106.8 566.4,107.4 572.0,108.0 577.6,108.6 583.1,109.2 588.7,109.8 594.3,110.4 599.9,111.0 605.5,111.6 611.1,112.2 616.7,112.8 622.3,113.4 627.9,114.0 633.5,114.7 639.1,115.3 644.6,116.0 650.2,116.7 655.8,117.4 661.4,118.0 667.0,118.6 672.6,119.3 678.2,119.9 683.8,120.6 689.4,121.3 695.0,122.0 700.6,122.6 706.1,123.2 711.7,123.8 717.3,124.4 722.9,125.0 728.5,125.6 734.1,126.2 739.7,126.8 745.3,127.5 750.9,128.3 756.5,129.2 762.0,130.0 767.6,130.9 773.2,132.0 778.8,133.2 784.4,134.3 790.0,135.5"/>
<line x1="530" y1="89" x2="550" y2="89" stroke="#2ca02c" stroke-width="3"/>
<text x="556" y="93" font-family="Arial" font-size="11">inverse-kv-head-moe-hidden-router</text>
<polyline fill="none" stroke="#9467bd" stroke-width="2.2" points="80.0,45.0 85.6,46.2 91.2,47.4 96.8,48.6 102.4,49.8 108.0,50.9 113.5,51.9 119.1,53.0 124.7,54.1 130.3,54.9 135.9,55.6 141.5,56.4 147.1,57.2 152.7,58.0 158.3,58.8 163.9,59.6 169.4,60.4 175.0,61.3 180.6,62.2 186.2,63.1 191.8,64.1 197.4,64.9 203.0,65.7 208.6,66.5 214.2,67.4 219.8,68.2 225.4,69.0 230.9,69.9 236.5,70.8 242.1,71.6 247.7,72.4 253.3,73.2 258.9,74.1 264.5,74.9 270.1,75.6 275.7,76.4 281.3,77.1 286.9,77.9 292.4,78.6 298.0,79.3 303.6,80.1 309.2,80.8 314.8,81.6 320.4,82.3 326.0,83.1 331.6,83.8 337.2,84.6 342.8,85.4 348.3,86.2 353.9,87.0 359.5,87.7 365.1,88.3 370.7,89.0 376.3,89.7 381.9,90.3 387.5,91.0 393.1,91.8 398.7,92.5 404.3,93.2 409.8,94.0 415.4,94.7 421.0,95.5 426.6,96.2 432.2,96.8 437.8,97.4 443.4,98.1 449.0,98.7 454.6,99.3 460.2,99.9 465.7,100.5 471.3,101.1 476.9,101.9 482.5,102.7 488.1,103.4 493.7,104.2 499.3,104.6 504.9,105.1 510.5,105.6 516.1,106.2 521.7,106.8 527.2,107.4 532.8,108.1 538.4,108.7 544.0,109.3 549.6,109.8 555.2,110.4 560.8,111.0 566.4,111.6 572.0,112.2 577.6,112.9 583.1,113.5 588.7,114.1 594.3,114.8 599.9,115.4 605.5,116.0 611.1,116.6 616.7,117.1 622.3,117.7 627.9,118.3 633.5,118.8 639.1,119.3 644.6,119.9 650.2,120.4 655.8,121.0 661.4,121.6 667.0,122.3 672.6,122.9 678.2,123.6 683.8,124.2 689.4,124.9 695.0,125.5 700.6,126.2 706.1,126.9 711.7,127.6 717.3,128.2 722.9,128.9 728.5,129.6 734.1,130.3 739.7,131.0 745.3,131.7 750.9,132.6 756.5,133.4 762.0,134.3 767.6,135.2 773.2,136.3 778.8,137.4 784.4,138.5 790.0,139.7"/>
<line x1="530" y1="107" x2="550" y2="107" stroke="#9467bd" stroke-width="3"/>
<text x="556" y="111" font-family="Arial" font-size="11">inverse-kv-attn-output-head-moe</text>
</svg>