<svg xmlns="http://www.w3.org/2000/svg" width="820" height="520" viewBox="0 0 820 520">
<rect width="100%" height="100%" fill="white"/>
<text x="80" y="28" font-family="Arial" font-size="18">moe_router</text>
<line x1="80" y1="45" x2="80" y2="445" stroke="#333"/>
<line x1="80" y1="445" x2="790" y2="445" stroke="#333"/>
<text x="350.0" y="495" font-family="Arial" font-size="13">normalized singular-value rank</text>
<text x="18" y="325.0" transform="rotate(-90 18,325.0)" font-family="Arial" font-size="13">singular value / largest</text>
<line x1="80" y1="45.0" x2="790" y2="45.0" stroke="#ddd"/>
<text x="34" y="49.0" font-family="Arial" font-size="11">1</text>
<line x1="80" y1="145.0" x2="790" y2="145.0" stroke="#ddd"/>
<text x="34" y="149.0" font-family="Arial" font-size="11">1e-1</text>
<line x1="80" y1="245.0" x2="790" y2="245.0" stroke="#ddd"/>
<text x="34" y="249.0" font-family="Arial" font-size="11">1e-2</text>
<line x1="80" y1="345.0" x2="790" y2="345.0" stroke="#ddd"/>
<text x="34" y="349.0" font-family="Arial" font-size="11">1e-3</text>
<line x1="80" y1="445.0" x2="790" y2="445.0" stroke="#ddd"/>
<text x="34" y="449.0" font-family="Arial" font-size="11">1e-4</text>
<polyline fill="none" stroke="#1f77b4" stroke-width="2.2" points="80.0,45.0 85.6,45.0 91.2,45.1 96.8,45.1 102.4,45.2 108.0,45.2 113.5,45.3 119.1,45.3 124.7,45.4 130.3,45.4 135.9,45.5 141.5,45.5 147.1,45.6 152.7,45.6 158.3,45.7 163.9,45.7 169.4,45.8 175.0,45.8 180.6,45.8 186.2,45.9 191.8,45.9 197.4,46.0 203.0,46.0 208.6,46.1 214.2,46.1 219.8,46.2 225.4,46.2 230.9,46.3 236.5,46.3 242.1,46.4 247.7,46.4 253.3,46.5 258.9,46.5 264.5,46.6 270.1,46.6 275.7,46.7 281.3,46.7 286.9,46.8 292.4,46.8 298.0,46.9 303.6,46.9 309.2,47.0 314.8,47.0 320.4,47.1 326.0,47.1 331.6,47.2 337.2,47.2 342.8,47.3 348.3,47.3 353.9,47.4 359.5,47.5 365.1,47.5 370.7,47.6 376.3,47.6 381.9,47.7 387.5,47.7 393.1,47.8 398.7,47.9 404.3,47.9 409.8,48.0 415.4,48.0 421.0,48.1 426.6,48.1 432.2,48.2 437.8,48.3 443.4,48.3 449.0,48.4 454.6,48.4 460.2,48.5 465.7,48.6 471.3,48.6 476.9,48.7 482.5,48.7 488.1,48.8 493.7,48.8 499.3,48.9 504.9,49.0 510.5,49.0 516.1,49.1 521.7,49.1 527.2,49.2 532.8,49.3 538.4,49.3 544.0,49.4 549.6,49.4 555.2,49.5 560.8,49.6 566.4,49.7 572.0,49.8 577.6,49.9 583.1,50.0 588.7,50.1 594.3,50.2 599.9,50.3 605.5,50.4 611.1,50.5 616.7,50.6 622.3,50.7 627.9,50.8 633.5,50.9 639.1,51.0 644.6,51.1 650.2,51.2 655.8,51.3 661.4,51.4 667.0,51.5 672.6,51.6 678.2,51.7 683.8,51.8 689.4,51.9 695.0,52.0 700.6,52.1 706.1,52.2 711.7,52.3 717.3,52.4 722.9,52.5 728.5,52.6 734.1,52.7 739.7,52.8 745.3,52.9 750.9,53.0 756.5,53.1 762.0,53.2 767.6,53.3 773.2,53.4 778.8,53.5 784.4,53.6 790.0,53.7"/>
<line x1="530" y1="53" x2="550" y2="53" stroke="#1f77b4" stroke-width="3"/>
<text x="556" y="57" font-family="Arial" font-size="11">inverse-kv-local-h128-l3-top1</text>
<polyline fill="none" stroke="#d62728" stroke-width="2.2" points="80.0,45.0 85.6,45.1 91.2,45.1 96.8,45.2 102.4,45.3 108.0,45.4 113.5,45.4 119.1,45.5 124.7,45.6 130.3,45.6 135.9,45.7 141.5,45.8 147.1,45.9 152.7,45.9 158.3,46.0 163.9,46.1 169.4,46.2 175.0,46.2 180.6,46.3 186.2,46.4 191.8,46.4 197.4,46.5 203.0,46.6 208.6,46.7 214.2,46.7 219.8,46.8 225.4,46.9 230.9,47.0 236.5,47.0 242.1,47.1 247.7,47.2 253.3,47.3 258.9,47.3 264.5,47.4 270.1,47.5 275.7,47.6 281.3,47.6 286.9,47.7 292.4,47.8 298.0,47.9 303.6,47.9 309.2,48.0 314.8,48.1 320.4,48.2 326.0,48.3 331.6,48.4 337.2,48.5 342.8,48.7 348.3,48.8 353.9,48.9 359.5,49.0 365.1,49.1 370.7,49.2 376.3,49.4 381.9,49.5 387.5,49.6 393.1,49.7 398.7,49.8 404.3,50.0 409.8,50.1 415.4,50.2 421.0,50.3 426.6,50.4 432.2,50.6 437.8,50.7 443.4,50.8 449.0,50.9 454.6,51.0 460.2,51.2 465.7,51.3 471.3,51.4 476.9,51.5 482.5,51.7 488.1,51.8 493.7,51.9 499.3,52.0 504.9,52.2 510.5,52.3 516.1,52.4 521.7,52.5 527.2,52.7 532.8,52.8 538.4,52.9 544.0,53.1 549.6,53.2 555.2,53.3 560.8,53.4 566.4,53.5 572.0,53.5 577.6,53.6 583.1,53.7 588.7,53.8 594.3,53.9 599.9,54.0 605.5,54.1 611.1,54.2 616.7,54.2 622.3,54.3 627.9,54.4 633.5,54.5 639.1,54.6 644.6,54.7 650.2,54.8 655.8,54.9 661.4,54.9 667.0,55.0 672.6,55.1 678.2,55.2 683.8,55.3 689.4,55.4 695.0,55.5 700.6,55.6 706.1,55.7 711.7,55.7 717.3,55.8 722.9,55.9 728.5,56.0 734.1,56.1 739.7,56.2 745.3,56.3 750.9,56.4 756.5,56.5 762.0,56.6 767.6,56.6 773.2,56.7 778.8,56.8 784.4,56.9 790.0,57.0"/>
<line x1="530" y1="71" x2="550" y2="71" stroke="#d62728" stroke-width="3"/>
<text x="556" y="75" font-family="Arial" font-size="11">inverse-kv-attn-output-router</text>
<polyline fill="none" stroke="#2ca02c" stroke-width="2.2" points="80.0,45.0 85.6,45.1 91.2,45.2 96.8,45.4 102.4,45.5 108.0,45.6 113.5,45.7 119.1,45.9 124.7,46.0 130.3,46.1 135.9,46.2 141.5,46.4 147.1,46.5 152.7,46.6 158.3,46.8 163.9,46.9 169.4,47.0 175.0,47.1 180.6,47.3 186.2,47.4 191.8,47.5 197.4,47.7 203.0,47.8 208.6,47.9 214.2,48.0 219.8,48.2 225.4,48.3 230.9,48.4 236.5,48.6 242.1,48.7 247.7,48.8 253.3,49.0 258.9,49.1 264.5,49.2 270.1,49.4 275.7,49.5 281.3,49.7 286.9,49.8 292.4,49.9 298.0,50.1 303.6,50.2 309.2,50.3 314.8,50.5 320.4,50.6 326.0,50.8 331.6,51.0 337.2,51.2 342.8,51.4 348.3,51.6 353.9,51.8 359.5,51.9 365.1,52.1 370.7,52.3 376.3,52.5 381.9,52.7 387.5,52.9 393.1,53.1 398.7,53.3 404.3,53.5 409.8,53.7 415.4,53.8 421.0,54.0 426.6,54.2 432.2,54.4 437.8,54.6 443.4,54.8 449.0,55.0 454.6,55.2 460.2,55.4 465.7,55.6 471.3,55.8 476.9,56.1 482.5,56.3 488.1,56.5 493.7,56.7 499.3,56.9 504.9,57.1 510.5,57.3 516.1,57.5 521.7,57.7 527.2,57.9 532.8,58.2 538.4,58.4 544.0,58.6 549.6,58.8 555.2,59.0 560.8,59.2 566.4,59.4 572.0,59.5 577.6,59.7 583.1,59.9 588.7,60.0 594.3,60.2 599.9,60.4 605.5,60.5 611.1,60.7 616.7,60.9 622.3,61.1 627.9,61.2 633.5,61.4 639.1,61.6 644.6,61.8 650.2,61.9 655.8,62.1 661.4,62.3 667.0,62.5 672.6,62.7 678.2,62.8 683.8,63.0 689.4,63.2 695.0,63.4 700.6,63.6 706.1,63.8 711.7,64.0 717.3,64.1 722.9,64.3 728.5,64.5 734.1,64.7 739.7,64.9 745.3,65.1 750.9,65.3 756.5,65.5 762.0,65.7 767.6,65.9 773.2,66.1 778.8,66.3 784.4,66.4 790.0,66.6"/>
<line x1="530" y1="89" x2="550" y2="89" stroke="#2ca02c" stroke-width="3"/>
<text x="556" y="93" font-family="Arial" font-size="11">inverse-kv-head-moe-hidden-router</text>
<polyline fill="none" stroke="#9467bd" stroke-width="2.2" points="80.0,45.0 85.6,45.1 91.2,45.3 96.8,45.4 102.4,45.6 108.0,45.7 113.5,45.9 119.1,46.0 124.7,46.2 130.3,46.3 135.9,46.5 141.5,46.6 147.1,46.8 152.7,46.9 158.3,47.1 163.9,47.2 169.4,47.4 175.0,47.5 180.6,47.7 186.2,47.8 191.8,48.0 197.4,48.1 203.0,48.3 208.6,48.4 214.2,48.6 219.8,48.8 225.4,48.9 230.9,49.1 236.5,49.2 242.1,49.4 247.7,49.5 253.3,49.7 258.9,49.9 264.5,50.0 270.1,50.2 275.7,50.4 281.3,50.5 286.9,50.7 292.4,50.8 298.0,51.0 303.6,51.2 309.2,51.3 314.8,51.5 320.4,51.7 326.0,51.8 331.6,52.0 337.2,52.2 342.8,52.3 348.3,52.5 353.9,52.6 359.5,52.8 365.1,53.0 370.7,53.1 376.3,53.3 381.9,53.5 387.5,53.6 393.1,53.8 398.7,54.0 404.3,54.2 409.8,54.3 415.4,54.5 421.0,54.7 426.6,54.8 432.2,55.0 437.8,55.2 443.4,55.4 449.0,55.5 454.6,55.7 460.2,55.9 465.7,56.1 471.3,56.3 476.9,56.4 482.5,56.6 488.1,56.8 493.7,57.0 499.3,57.2 504.9,57.3 510.5,57.5 516.1,57.7 521.7,57.9 527.2,58.1 532.8,58.3 538.4,58.5 544.0,58.6 549.6,58.8 555.2,59.0 560.8,59.2 566.4,59.4 572.0,59.6 577.6,59.8 583.1,60.0 588.7,60.2 594.3,60.4 599.9,60.6 605.5,60.8 611.1,61.1 616.7,61.3 622.3,61.5 627.9,61.7 633.5,61.9 639.1,62.1 644.6,62.3 650.2,62.5 655.8,62.7 661.4,63.0 667.0,63.2 672.6,63.4 678.2,63.6 683.8,63.8 689.4,64.1 695.0,64.3 700.6,64.5 706.1,64.7 711.7,65.0 717.3,65.2 722.9,65.4 728.5,65.6 734.1,65.9 739.7,66.1 745.3,66.3 750.9,66.6 756.5,66.8 762.0,67.1 767.6,67.3 773.2,67.5 778.8,67.8 784.4,68.0 790.0,68.3"/>
<line x1="530" y1="107" x2="550" y2="107" stroke="#9467bd" stroke-width="3"/>
<text x="556" y="111" font-family="Arial" font-size="11">inverse-kv-attn-output-head-moe</text>
</svg>