<svg xmlns="http://www.w3.org/2000/svg" width="820" height="520" viewBox="0 0 820 520">
<rect width="100%" height="100%" fill="white"/>
<text x="80" y="28" font-family="Arial" font-size="18">moe_expert.down_proj</text>
<line x1="80" y1="45" x2="80" y2="445" stroke="#333"/>
<line x1="80" y1="445" x2="790" y2="445" stroke="#333"/>
<text x="350.0" y="495" font-family="Arial" font-size="13">normalized singular-value rank</text>
<text x="18" y="325.0" transform="rotate(-90 18,325.0)" font-family="Arial" font-size="13">singular value / largest</text>
<line x1="80" y1="45.0" x2="790" y2="45.0" stroke="#ddd"/>
<text x="34" y="49.0" font-family="Arial" font-size="11">1</text>
<line x1="80" y1="145.0" x2="790" y2="145.0" stroke="#ddd"/>
<text x="34" y="149.0" font-family="Arial" font-size="11">1e-1</text>
<line x1="80" y1="245.0" x2="790" y2="245.0" stroke="#ddd"/>
<text x="34" y="249.0" font-family="Arial" font-size="11">1e-2</text>
<line x1="80" y1="345.0" x2="790" y2="345.0" stroke="#ddd"/>
<text x="34" y="349.0" font-family="Arial" font-size="11">1e-3</text>
<line x1="80" y1="445.0" x2="790" y2="445.0" stroke="#ddd"/>
<text x="34" y="449.0" font-family="Arial" font-size="11">1e-4</text>
<polyline fill="none" stroke="#1f77b4" stroke-width="2.2" points="80.0,45.0 85.6,51.1 91.2,53.8 96.8,56.1 102.4,57.7 108.0,59.0 113.5,60.5 119.1,61.7 124.7,63.2 130.3,64.3 135.9,65.5 141.5,66.5 147.1,67.5 152.7,68.3 158.3,69.1 163.9,69.9 169.4,70.8 175.0,71.5 180.6,72.5 186.2,73.4 191.8,74.1 197.4,74.9 203.0,75.7 208.6,76.5 214.2,77.3 219.8,78.2 225.4,79.2 230.9,79.8 236.5,80.5 242.1,81.2 247.7,82.3 253.3,83.0 258.9,83.7 264.5,84.5 270.1,85.4 275.7,86.2 281.3,87.0 286.9,87.9 292.4,88.8 298.0,89.5 303.6,90.3 309.2,90.9 314.8,91.8 320.4,92.6 326.0,93.4 331.6,94.6 337.2,95.3 342.8,96.1 348.3,96.8 353.9,97.8 359.5,98.5 365.1,99.3 370.7,100.4 376.3,101.4 381.9,102.1 387.5,103.0 393.1,103.8 398.7,104.6 404.3,105.6 409.8,106.6 415.4,107.4 421.0,108.2 426.6,109.2 432.2,110.1 437.8,111.0 443.4,111.9 449.0,113.0 454.6,114.0 460.2,114.9 465.7,115.7 471.3,116.7 476.9,117.8 482.5,118.8 488.1,120.1 493.7,121.1 499.3,122.1 504.9,123.2 510.5,124.1 516.1,125.4 521.7,126.5 527.2,127.7 532.8,128.7 538.4,129.7 544.0,130.7 549.6,132.4 555.2,133.5 560.8,134.4 566.4,135.8 572.0,136.9 577.6,138.0 583.1,139.3 588.7,140.7 594.3,142.2 599.9,143.3 605.5,144.7 611.1,146.0 616.7,147.4 622.3,149.1 627.9,151.0 633.5,153.1 639.1,154.4 644.6,155.9 650.2,157.4 655.8,159.5 661.4,161.3 667.0,163.4 672.6,165.5 678.2,167.7 683.8,169.5 689.4,171.8 695.0,174.1 700.6,176.4 706.1,178.6 711.7,182.1 717.3,185.3 722.9,188.5 728.5,192.5 734.1,196.7 739.7,200.7 745.3,205.1 750.9,211.4 756.5,218.0 762.0,224.3 767.6,231.5 773.2,243.8 778.8,261.4 784.4,290.8 790.0,338.6"/>
<line x1="530" y1="53" x2="550" y2="53" stroke="#1f77b4" stroke-width="3"/>
<text x="556" y="57" font-family="Arial" font-size="11">inverse-kv-local-h128-l3-top1</text>
<polyline fill="none" stroke="#d62728" stroke-width="2.2" points="80.0,45.0 85.6,51.3 91.2,53.8 96.8,55.6 102.4,56.9 108.0,58.6 113.5,60.0 119.1,61.0 124.7,62.4 130.3,63.7 135.9,64.7 141.5,65.5 147.1,66.4 152.7,67.3 158.3,68.0 163.9,69.1 169.4,69.7 175.0,70.5 180.6,71.2 186.2,71.9 191.8,72.6 197.4,73.4 203.0,74.4 208.6,75.0 214.2,75.6 219.8,76.3 225.4,77.4 230.9,78.1 236.5,78.8 242.1,79.5 247.7,80.4 253.3,81.1 258.9,81.8 264.5,82.6 270.1,83.2 275.7,84.0 281.3,84.9 286.9,85.5 292.4,86.1 298.0,86.9 303.6,87.8 309.2,88.8 314.8,89.4 320.4,90.3 326.0,91.0 331.6,92.0 337.2,92.8 342.8,93.6 348.3,94.2 353.9,94.9 359.5,96.0 365.1,96.8 370.7,97.6 376.3,98.3 381.9,99.1 387.5,100.2 393.1,101.0 398.7,101.7 404.3,102.6 409.8,103.5 415.4,104.5 421.0,105.2 426.6,106.2 432.2,106.9 437.8,107.9 443.4,109.0 449.0,109.8 454.6,110.6 460.2,111.7 465.7,112.8 471.3,113.6 476.9,114.7 482.5,115.7 488.1,116.5 493.7,117.5 499.3,118.4 504.9,119.4 510.5,120.5 516.1,121.9 521.7,123.1 527.2,124.1 532.8,124.9 538.4,125.9 544.0,127.4 549.6,128.7 555.2,129.6 560.8,130.6 566.4,131.8 572.0,133.1 577.6,134.4 583.1,135.9 588.7,137.0 594.3,138.4 599.9,139.7 605.5,141.1 611.1,142.3 616.7,143.8 622.3,145.4 627.9,147.1 633.5,148.8 639.1,150.2 644.6,152.0 650.2,154.4 655.8,156.2 661.4,158.7 667.0,160.0 672.6,161.7 678.2,164.3 683.8,166.6 689.4,168.9 695.0,170.8 700.6,174.5 706.1,177.1 711.7,179.9 717.3,182.6 722.9,185.6 728.5,189.7 734.1,195.1 739.7,199.1 745.3,204.3 750.9,208.7 756.5,215.1 762.0,223.1 767.6,230.8 773.2,243.3 778.8,260.5 784.4,281.4 790.0,334.8"/>
<line x1="530" y1="71" x2="550" y2="71" stroke="#d62728" stroke-width="3"/>
<text x="556" y="75" font-family="Arial" font-size="11">inverse-kv-attn-output-router</text>
<polyline fill="none" stroke="#2ca02c" stroke-width="2.2" points="80.0,45.0 85.6,46.5 91.2,48.0 96.8,49.6 102.4,51.2 108.0,52.3 113.5,53.4 119.1,54.4 124.7,55.5 130.3,56.4 135.9,57.3 141.5,58.2 147.1,59.1 152.7,59.8 158.3,60.5 163.9,61.2 169.4,61.9 175.0,62.6 180.6,63.5 186.2,64.3 191.8,65.2 197.4,66.0 203.0,66.8 208.6,67.6 214.2,68.4 219.8,69.1 225.4,69.8 230.9,70.4 236.5,71.1 242.1,71.8 247.7,72.4 253.3,73.1 258.9,73.7 264.5,74.4 270.1,75.1 275.7,75.8 281.3,76.6 286.9,77.3 292.4,78.1 298.0,78.8 303.6,79.6 309.2,80.4 314.8,81.0 320.4,81.7 326.0,82.3 331.6,83.0 337.2,83.7 342.8,84.5 348.3,85.3 353.9,86.1 359.5,86.7 365.1,87.4 370.7,88.0 376.3,88.7 381.9,89.3 387.5,90.0 393.1,90.6 398.7,91.3 404.3,91.9 409.8,92.6 415.4,93.3 421.0,94.0 426.6,94.6 432.2,95.3 437.8,96.0 443.4,96.7 449.0,97.4 454.6,98.0 460.2,98.6 465.7,99.2 471.3,99.7 476.9,100.3 482.5,100.8 488.1,101.4 493.7,102.0 499.3,102.6 504.9,103.3 510.5,104.0 516.1,104.6 521.7,105.3 527.2,105.9 532.8,106.5 538.4,107.1 544.0,107.7 549.6,108.3 555.2,108.9 560.8,109.5 566.4,110.0 572.0,110.5 577.6,111.0 583.1,111.5 588.7,112.1 594.3,112.7 599.9,113.3 605.5,113.9 611.1,114.5 616.7,115.1 622.3,115.8 627.9,116.4 633.5,117.0 639.1,117.6 644.6,118.2 650.2,118.8 655.8,119.3 661.4,119.9 667.0,120.5 672.6,121.1 678.2,121.8 683.8,122.4 689.4,123.1 695.0,123.8 700.6,124.4 706.1,125.1 711.7,125.8 717.3,126.5 722.9,127.2 728.5,127.9 734.1,128.6 739.7,129.3 745.3,130.1 750.9,130.8 756.5,131.6 762.0,132.4 767.6,133.2 773.2,134.2 778.8,135.2 784.4,136.2 790.0,137.3"/>
<line x1="530" y1="89" x2="550" y2="89" stroke="#2ca02c" stroke-width="3"/>
<text x="556" y="93" font-family="Arial" font-size="11">inverse-kv-head-moe-hidden-router</text>
<polyline fill="none" stroke="#9467bd" stroke-width="2.2" points="80.0,45.0 85.6,46.4 91.2,47.9 96.8,49.5 102.4,51.1 108.0,52.2 113.5,53.3 119.1,54.5 124.7,55.7 130.3,56.5 135.9,57.3 141.5,58.0 147.1,58.8 152.7,59.7 158.3,60.6 163.9,61.5 169.4,62.4 175.0,63.3 180.6,64.2 186.2,65.1 191.8,66.1 197.4,66.9 203.0,67.6 208.6,68.4 214.2,69.1 219.8,69.9 225.4,70.7 230.9,71.6 236.5,72.4 242.1,73.2 247.7,73.8 253.3,74.5 258.9,75.1 264.5,75.8 270.1,76.5 275.7,77.2 281.3,77.9 286.9,78.6 292.4,79.3 298.0,80.0 303.6,80.7 309.2,81.4 314.8,82.2 320.4,83.0 326.0,83.8 331.6,84.6 337.2,85.2 342.8,85.9 348.3,86.5 353.9,87.2 359.5,87.9 365.1,88.6 370.7,89.4 376.3,90.1 381.9,90.8 387.5,91.3 393.1,91.9 398.7,92.6 404.3,93.2 409.8,93.9 415.4,94.6 421.0,95.2 426.6,95.9 432.2,96.6 437.8,97.3 443.4,98.0 449.0,98.7 454.6,99.3 460.2,100.0 465.7,100.6 471.3,101.2 476.9,101.8 482.5,102.3 488.1,102.9 493.7,103.4 499.3,104.0 504.9,104.6 510.5,105.3 516.1,105.9 521.7,106.4 527.2,106.9 532.8,107.5 538.4,108.0 544.0,108.6 549.6,109.2 555.2,109.8 560.8,110.3 566.4,110.8 572.0,111.3 577.6,111.8 583.1,112.3 588.7,112.8 594.3,113.3 599.9,113.9 605.5,114.4 611.1,115.0 616.7,115.5 622.3,116.0 627.9,116.6 633.5,117.1 639.1,117.7 644.6,118.3 650.2,119.0 655.8,119.6 661.4,120.2 667.0,120.8 672.6,121.4 678.2,122.0 683.8,122.5 689.4,123.1 695.0,123.7 700.6,124.3 706.1,124.9 711.7,125.6 717.3,126.2 722.9,126.9 728.5,127.5 734.1,128.2 739.7,128.9 745.3,129.6 750.9,130.4 756.5,131.2 762.0,131.9 767.6,132.8 773.2,133.8 778.8,134.9 784.4,136.1 790.0,137.2"/>
<line x1="530" y1="107" x2="550" y2="107" stroke="#9467bd" stroke-width="3"/>
<text x="556" y="111" font-family="Arial" font-size="11">inverse-kv-attn-output-head-moe</text>
</svg>