<svg xmlns="http://www.w3.org/2000/svg" width="980" height="660" viewBox="0 0 980 660">
<rect width="100%" height="100%" fill="white"/>
<text x="490" y="28" text-anchor="middle" font-family="Arial" font-size="18">Average number of active features per token (tau=0.9)</text>
<line x1="82" y1="54" x2="82" y2="588" stroke="#333"/>
<line x1="82" y1="588" x2="956" y2="588" stroke="#333"/>
<text x="490" y="638" text-anchor="middle" font-family="Arial" font-size="13">layer + 1</text>
<text transform="translate(20,330) rotate(-90)" text-anchor="middle" font-family="Arial" font-size="13">avg active features</text>
<line x1="82.0" y1="54" x2="82.0" y2="588" stroke="#ddd" stroke-width="0.8"/>
<line x1="82" y1="54.0" x2="956" y2="54.0" stroke="#ddd" stroke-width="0.8"/>
<line x1="300.5" y1="54" x2="300.5" y2="588" stroke="#ddd" stroke-width="0.8"/>
<line x1="82" y1="187.5" x2="956" y2="187.5" stroke="#ddd" stroke-width="0.8"/>
<line x1="519.0" y1="54" x2="519.0" y2="588" stroke="#ddd" stroke-width="0.8"/>
<line x1="82" y1="321.0" x2="956" y2="321.0" stroke="#ddd" stroke-width="0.8"/>
<line x1="737.5" y1="54" x2="737.5" y2="588" stroke="#ddd" stroke-width="0.8"/>
<line x1="82" y1="454.5" x2="956" y2="454.5" stroke="#ddd" stroke-width="0.8"/>
<line x1="956.0" y1="54" x2="956.0" y2="588" stroke="#ddd" stroke-width="0.8"/>
<line x1="82" y1="588.0" x2="956" y2="588.0" stroke="#ddd" stroke-width="0.8"/>
<polyline fill="none" stroke="#1f77b4" stroke-width="1.3" opacity="0.75" points="82.00,563.73"/>
<line x1="836" y1="68" x2="858" y2="68" stroke="#1f77b4" stroke-width="2"/>
<text x="864" y="72" font-family="Arial" font-size="11">k</text>
<polyline fill="none" stroke="#ff7f0e" stroke-width="1.3" opacity="0.75" points="82.00,78.27"/>
<line x1="836" y1="86" x2="858" y2="86" stroke="#ff7f0e" stroke-width="2"/>
<text x="864" y="90" font-family="Arial" font-size="11">o</text>
<polyline fill="none" stroke="#2ca02c" stroke-width="1.3" opacity="0.75" points="82.00,434.18"/>
<line x1="836" y1="104" x2="858" y2="104" stroke="#2ca02c" stroke-width="2"/>
<text x="864" y="108" font-family="Arial" font-size="11">q</text>
<polyline fill="none" stroke="#d62728" stroke-width="1.3" opacity="0.75" points="82.00,114.31"/>
<line x1="836" y1="122" x2="858" y2="122" stroke="#d62728" stroke-width="2"/>
<text x="864" y="126" font-family="Arial" font-size="11">v</text>
</svg>