<svg xmlns="http://www.w3.org/2000/svg" width="980" height="660" viewBox="0 0 980 660">
<rect width="100%" height="100%" fill="white"/>
<text x="490" y="28" text-anchor="middle" font-family="Arial" font-size="18">k: avg |scaled activation| on active tokens</text>
<line x1="82" y1="54" x2="82" y2="588" stroke="#333"/>
<line x1="82" y1="588" x2="956" y2="588" stroke="#333"/>
<text x="490" y="638" text-anchor="middle" font-family="Arial" font-size="13">feature rank by activation frequency</text>
<text transform="translate(20,330) rotate(-90)" text-anchor="middle" font-family="Arial" font-size="13">avg |a_i| when active</text>
<line x1="82.0" y1="54" x2="82.0" y2="588" stroke="#ddd" stroke-width="0.8"/>
<line x1="82" y1="54.0" x2="956" y2="54.0" stroke="#ddd" stroke-width="0.8"/>
<line x1="300.5" y1="54" x2="300.5" y2="588" stroke="#ddd" stroke-width="0.8"/>
<line x1="82" y1="187.5" x2="956" y2="187.5" stroke="#ddd" stroke-width="0.8"/>
<line x1="519.0" y1="54" x2="519.0" y2="588" stroke="#ddd" stroke-width="0.8"/>
<line x1="82" y1="321.0" x2="956" y2="321.0" stroke="#ddd" stroke-width="0.8"/>
<line x1="737.5" y1="54" x2="737.5" y2="588" stroke="#ddd" stroke-width="0.8"/>
<line x1="82" y1="454.5" x2="956" y2="454.5" stroke="#ddd" stroke-width="0.8"/>
<line x1="956.0" y1="54" x2="956.0" y2="588" stroke="#ddd" stroke-width="0.8"/>
<line x1="82" y1="588.0" x2="956" y2="588.0" stroke="#ddd" stroke-width="0.8"/>
<polyline fill="none" stroke="#1f77b4" stroke-width="1.3" opacity="0.75" points="82.00,78.27 185.27,186.00 245.67,333.55 288.53,419.78 321.78,385.00 348.94,374.36 371.91,375.91 391.80,402.64 409.35,376.08 425.04,389.39 439.24,420.59 452.21,390.60 464.13,414.45 475.17,473.27 485.45,467.36 495.07,462.38 504.10,389.41 512.61,469.93 520.67,490.29 528.31,476.35 535.58,498.23 542.51,478.90 549.13,466.93 555.47,481.03 561.56,483.51 567.40,492.19 573.02,485.49 578.44,492.03 583.67,496.85 588.72,503.71 593.60,515.37 598.33,471.04 602.92,511.51 607.37,518.19 611.68,514.18 615.88,491.79 619.96,494.05 623.94,480.24 627.81,523.13 631.58,517.20 635.26,506.80 638.85,490.28 642.35,470.49 645.78,506.19 649.13,513.41 652.40,523.43 655.60,507.56 658.74,512.60 661.81,496.76 664.82,494.75 667.77,491.28 670.67,495.63 673.50,485.79 676.29,501.91 679.02,484.96 681.71,513.54 684.34,503.51 686.93,460.43 689.48,502.10 691.98,489.62 694.45,498.83 696.87,509.82 699.25,472.13 701.60,507.51 703.91,470.19 706.18,521.97 708.42,525.00 710.63,510.62 712.81,499.96 714.95,480.28 717.06,496.34 719.15,494.02 721.20,507.23 723.23,484.10 725.23,491.08 727.20,504.79 729.15,500.50 731.07,499.78 732.97,510.55 734.84,502.35 736.70,490.64 738.52,493.36 740.33,493.84 742.11,487.68 743.88,503.31 745.62,493.68 747.34,500.36 749.04,493.09 750.73,501.10 752.39,499.22 754.04,447.22 755.67,495.62 757.28,498.81 758.87,535.56 760.45,503.80 762.01,484.40 763.55,493.38 765.08,517.82 766.59,500.31 768.09,495.18 769.57,511.21 771.04,503.17 772.49,532.52 773.93,488.27 775.36,507.29 776.77,513.05 778.17,506.03 779.55,520.38 780.93,516.09 782.29,533.54 783.64,501.18 784.97,476.97 786.30,482.78 787.61,508.78 788.91,508.71 790.20,477.98 791.48,505.85 792.75,487.15 794.00,510.92 795.25,501.81 796.49,478.90 797.71,481.05 798.93,474.90 800.14,502.30 801.33,516.95 802.52,495.30 803.70,518.56 804.87,493.76 806.03,518.27 807.18,505.41 808.32,518.89 809.45,488.31 810.58,518.81 811.69,517.49 812.80,511.30 813.90,500.88 814.99,480.46 816.07,483.03 817.15,518.12 818.22,513.77 819.28,489.05 820.33,505.43 821.38,501.77 822.41,517.93 823.45,523.89 824.47,514.66 825.49,503.42 826.50,494.37 827.50,508.48 828.50,454.77 829.49,489.79 830.47,503.38 831.45,496.32 832.42,498.11 833.38,490.82 834.34,520.26 835.29,513.42 836.24,516.02 837.18,510.73 838.11,530.77 839.04,482.84 839.96,481.70 840.88,506.50 841.79,526.02 842.70,509.72 843.60,497.20 844.49,473.47 845.38,535.41 846.26,505.68 847.14,527.62 848.02,514.86 848.89,497.48 849.75,486.28 850.61,507.72 851.46,522.74 852.31,502.37 853.15,526.20 853.99,495.06 854.83,516.93 855.66,508.52 856.48,478.47 857.30,463.76 858.12,516.95 858.93,509.49 859.74,498.38 860.54,526.61 861.34,499.48 862.14,522.95 862.93,512.54 863.71,529.88 864.50,494.47 865.27,526.62 866.05,542.53 866.82,529.56 867.58,487.91 868.35,535.08 869.10,522.50 869.86,499.20 870.61,479.64 871.36,507.55 872.10,517.32 872.84,515.99 873.57,517.63 874.31,502.74 875.03,534.68 875.76,482.66 876.48,516.61 877.20,530.64 877.91,511.21 878.62,477.40 879.33,506.93 880.04,456.22 880.74,525.86 881.44,524.08 882.13,503.38 882.82,527.31 883.51,516.77 884.19,524.07 884.88,520.52 885.56,512.29 886.23,502.79 886.90,520.82 887.57,526.04 888.24,539.36 888.90,502.16 889.56,460.24 890.22,501.93 890.88,492.19 891.53,491.79 892.18,530.95 892.82,522.00 893.47,489.14 894.11,515.45 894.75,480.66 895.38,501.77 896.01,518.84 896.64,514.20 897.27,471.75 897.90,523.14 898.52,522.89 899.14,543.58 899.75,492.85 900.37,529.05 900.98,502.93 901.59,525.26 902.20,501.26 902.80,498.54 903.40,540.35 904.00,524.20 904.60,533.52 905.19,500.21 905.79,498.75 906.38,530.39 906.96,509.55 907.55,536.76 908.13,528.12 908.71,496.23 909.29,550.71 909.87,471.93 910.44,473.47 911.02,531.13 911.58,464.59 912.15,500.74 912.72,549.47 913.28,528.98 913.84,514.64 914.40,483.49 914.96,545.68 915.51,510.29 916.07,521.34 916.62,562.31 917.17,549.84 917.71,452.64 918.26,558.16 918.80,500.91 919.34,540.17 919.88,495.60 920.42,539.69 920.95,507.24 921.48,518.05 922.02,532.15 922.54,501.71 923.07,527.07 923.60,495.25 924.12,530.20 924.64,551.65 925.16,507.90 925.68,528.26 926.20,531.61 926.71,523.68 927.22,496.40 927.74,539.74 928.25,522.52 928.75,527.88 929.26,513.00 929.76,515.03 930.27,495.85 930.77,509.94 931.27,550.91 931.76,540.37 932.26,513.45 932.75,451.26 933.25,503.04 933.74,508.67 934.23,541.02 934.71,458.60 935.20,503.11 935.68,556.17 936.17,526.90 936.65,520.56 937.13,523.45 937.61,480.75 938.08,525.99 938.56,529.70 939.03,563.73 939.50,488.97 939.97,531.97 940.44,505.26 940.91,518.06 941.38,510.96 941.84,555.12 942.31,517.11 942.77,519.45 943.23,550.48 943.69,544.98 944.15,495.44 944.60,485.92 945.06,524.62 945.51,538.74 945.96,511.68 946.41,511.86 946.86,537.86 947.31,493.10 947.76,474.24 948.20,513.73 948.65,495.16 949.09,539.22 949.53,512.68 949.97,524.50 950.41,547.31 950.85,495.68 951.28,518.36 951.72,523.18 952.15,540.15 952.58,477.82 953.02,519.16 953.45,535.74 953.87,490.05 954.30,550.58 954.73,537.69 955.15,497.34 955.58,529.11 956.00,529.08"/>
<line x1="836" y1="68" x2="858" y2="68" stroke="#1f77b4" stroke-width="2"/>
<text x="864" y="72" font-family="Arial" font-size="11">L0</text>
</svg>