<svg xmlns="http://www.w3.org/2000/svg" width="980" height="660" viewBox="0 0 980 660">
<rect width="100%" height="100%" fill="white"/>
<text x="490" y="28" text-anchor="middle" font-family="Arial" font-size="18">k: feature activation frequency</text>
<line x1="82" y1="54" x2="82" y2="588" stroke="#333"/>
<line x1="82" y1="588" x2="956" y2="588" stroke="#333"/>
<text x="490" y="638" text-anchor="middle" font-family="Arial" font-size="13">feature rank by activation frequency</text>
<text transform="translate(20,330) rotate(-90)" text-anchor="middle" font-family="Arial" font-size="13">activation frequency</text>
<line x1="82.0" y1="54" x2="82.0" y2="588" stroke="#ddd" stroke-width="0.8"/>
<line x1="82" y1="54.0" x2="956" y2="54.0" stroke="#ddd" stroke-width="0.8"/>
<line x1="300.5" y1="54" x2="300.5" y2="588" stroke="#ddd" stroke-width="0.8"/>
<line x1="82" y1="187.5" x2="956" y2="187.5" stroke="#ddd" stroke-width="0.8"/>
<line x1="519.0" y1="54" x2="519.0" y2="588" stroke="#ddd" stroke-width="0.8"/>
<line x1="82" y1="321.0" x2="956" y2="321.0" stroke="#ddd" stroke-width="0.8"/>
<line x1="737.5" y1="54" x2="737.5" y2="588" stroke="#ddd" stroke-width="0.8"/>
<line x1="82" y1="454.5" x2="956" y2="454.5" stroke="#ddd" stroke-width="0.8"/>
<line x1="956.0" y1="54" x2="956.0" y2="588" stroke="#ddd" stroke-width="0.8"/>
<line x1="82" y1="588.0" x2="956" y2="588.0" stroke="#ddd" stroke-width="0.8"/>
<polyline fill="none" stroke="#1f77b4" stroke-width="1.3" opacity="0.75" points="82.00,78.27 185.27,87.31 245.67,96.98 288.53,118.57 321.78,118.57 348.94,144.11 371.91,144.11 391.80,158.87 409.35,175.36 425.04,175.36 439.24,175.36 452.21,184.40 464.13,194.07 475.17,215.66 485.45,215.66 495.07,227.85 504.10,241.20 512.61,241.20 520.67,255.96 528.31,272.45 535.58,272.45 542.51,272.45 549.13,272.45 555.47,272.45 561.56,291.16 567.40,291.16 573.02,291.16 578.44,291.16 583.67,291.16 588.72,291.16 593.60,291.16 598.33,312.75 602.92,312.75 607.37,312.75 611.68,312.75 615.88,312.75 619.96,312.75 623.94,338.29 627.81,338.29 631.58,338.29 635.26,338.29 638.85,338.29 642.35,338.29 645.78,338.29 649.13,338.29 652.40,338.29 655.60,338.29 658.74,338.29 661.81,338.29 664.82,338.29 667.77,338.29 670.67,338.29 673.50,338.29 676.29,338.29 679.02,338.29 681.71,338.29 684.34,338.29 686.93,338.29 689.48,338.29 691.98,338.29 694.45,338.29 696.87,338.29 699.25,369.55 701.60,369.55 703.91,369.55 706.18,369.55 708.42,369.55 710.63,369.55 712.81,369.55 714.95,369.55 717.06,369.55 719.15,369.55 721.20,369.55 723.23,369.55 725.23,369.55 727.20,369.55 729.15,369.55 731.07,369.55 732.97,369.55 734.84,369.55 736.70,369.55 738.52,369.55 740.33,369.55 742.11,369.55 743.88,369.55 745.62,369.55 747.34,369.55 749.04,369.55 750.73,369.55 752.39,369.55 754.04,369.55 755.67,369.55 757.28,369.55 758.87,369.55 760.45,369.55 762.01,369.55 763.55,369.55 765.08,369.55 766.59,369.55 768.09,369.55 769.57,409.84 771.04,409.84 772.49,409.84 773.93,409.84 775.36,409.84 776.77,409.84 778.17,409.84 779.55,409.84 780.93,409.84 782.29,409.84 783.64,409.84 784.97,409.84 786.30,409.84 787.61,409.84 788.91,409.84 790.20,409.84 791.48,409.84 792.75,409.84 794.00,409.84 795.25,409.84 796.49,409.84 797.71,409.84 798.93,409.84 800.14,409.84 801.33,409.84 802.52,409.84 803.70,409.84 804.87,409.84 806.03,409.84 807.18,409.84 808.32,409.84 809.45,409.84 810.58,409.84 811.69,409.84 812.80,409.84 813.90,409.84 814.99,409.84 816.07,409.84 817.15,409.84 818.22,409.84 819.28,409.84 820.33,409.84 821.38,409.84 822.41,409.84 823.45,409.84 824.47,409.84 825.49,409.84 826.50,409.84 827.50,409.84 828.50,409.84 829.49,409.84 830.47,409.84 831.45,409.84 832.42,466.64 833.38,466.64 834.34,466.64 835.29,466.64 836.24,466.64 837.18,466.64 838.11,466.64 839.04,466.64 839.96,466.64 840.88,466.64 841.79,466.64 842.70,466.64 843.60,466.64 844.49,466.64 845.38,466.64 846.26,466.64 847.14,466.64 848.02,466.64 848.89,466.64 849.75,466.64 850.61,466.64 851.46,466.64 852.31,466.64 853.15,466.64 853.99,466.64 854.83,466.64 855.66,466.64 856.48,466.64 857.30,466.64 858.12,466.64 858.93,466.64 859.74,466.64 860.54,466.64 861.34,466.64 862.14,466.64 862.93,466.64 863.71,466.64 864.50,466.64 865.27,466.64 866.05,466.64 866.82,466.64 867.58,466.64 868.35,466.64 869.10,466.64 869.86,466.64 870.61,466.64 871.36,466.64 872.10,466.64 872.84,466.64 873.57,466.64 874.31,466.64 875.03,466.64 875.76,466.64 876.48,466.64 877.20,466.64 877.91,466.64 878.62,466.64 879.33,466.64 880.04,466.64 880.74,466.64 881.44,466.64 882.13,466.64 882.82,466.64 883.51,466.64 884.19,466.64 884.88,466.64 885.56,466.64 886.23,466.64 886.90,466.64 887.57,466.64 888.24,466.64 888.90,466.64 889.56,466.64 890.22,466.64 890.88,466.64 891.53,466.64 892.18,466.64 892.82,466.64 893.47,466.64 894.11,466.64 894.75,466.64 895.38,466.64 896.01,466.64 896.64,466.64 897.27,563.73 897.90,563.73 898.52,563.73 899.14,563.73 899.75,563.73 900.37,563.73 900.98,563.73 901.59,563.73 902.20,563.73 902.80,563.73 903.40,563.73 904.00,563.73 904.60,563.73 905.19,563.73 905.79,563.73 906.38,563.73 906.96,563.73 907.55,563.73 908.13,563.73 908.71,563.73 909.29,563.73 909.87,563.73 910.44,563.73 911.02,563.73 911.58,563.73 912.15,563.73 912.72,563.73 913.28,563.73 913.84,563.73 914.40,563.73 914.96,563.73 915.51,563.73 916.07,563.73 916.62,563.73 917.17,563.73 917.71,563.73 918.26,563.73 918.80,563.73 919.34,563.73 919.88,563.73 920.42,563.73 920.95,563.73 921.48,563.73 922.02,563.73 922.54,563.73 923.07,563.73 923.60,563.73 924.12,563.73 924.64,563.73 925.16,563.73 925.68,563.73 926.20,563.73 926.71,563.73 927.22,563.73 927.74,563.73 928.25,563.73 928.75,563.73 929.26,563.73 929.76,563.73 930.27,563.73 930.77,563.73 931.27,563.73 931.76,563.73 932.26,563.73 932.75,563.73 933.25,563.73 933.74,563.73 934.23,563.73 934.71,563.73 935.20,563.73 935.68,563.73 936.17,563.73 936.65,563.73 937.13,563.73 937.61,563.73 938.08,563.73 938.56,563.73 939.03,563.73 939.50,563.73 939.97,563.73 940.44,563.73 940.91,563.73 941.38,563.73 941.84,563.73 942.31,563.73 942.77,563.73 943.23,563.73 943.69,563.73 944.15,563.73 944.60,563.73 945.06,563.73 945.51,563.73 945.96,563.73 946.41,563.73 946.86,563.73 947.31,563.73 947.76,563.73 948.20,563.73 948.65,563.73 949.09,563.73 949.53,563.73 949.97,563.73 950.41,563.73 950.85,563.73 951.28,563.73 951.72,563.73 952.15,563.73 952.58,563.73 953.02,563.73 953.45,563.73 953.87,563.73 954.30,563.73 954.73,563.73 955.15,563.73 955.58,563.73 956.00,563.73"/>
<line x1="836" y1="68" x2="858" y2="68" stroke="#1f77b4" stroke-width="2"/>
<text x="864" y="72" font-family="Arial" font-size="11">L0</text>
</svg>