<svg xmlns="http://www.w3.org/2000/svg" width="980" height="660" viewBox="0 0 980 660">
<rect width="100%" height="100%" fill="white"/>
<text x="490" y="28" text-anchor="middle" font-family="Arial" font-size="18">o: avg |scaled activation| on active tokens</text>
<line x1="82" y1="54" x2="82" y2="588" stroke="#333"/>
<line x1="82" y1="588" x2="956" y2="588" stroke="#333"/>
<text x="490" y="638" text-anchor="middle" font-family="Arial" font-size="13">feature rank by activation frequency</text>
<text transform="translate(20,330) rotate(-90)" text-anchor="middle" font-family="Arial" font-size="13">avg |a_i| when active</text>
<line x1="82.0" y1="54" x2="82.0" y2="588" stroke="#ddd" stroke-width="0.8"/>
<line x1="82" y1="54.0" x2="956" y2="54.0" stroke="#ddd" stroke-width="0.8"/>
<line x1="300.5" y1="54" x2="300.5" y2="588" stroke="#ddd" stroke-width="0.8"/>
<line x1="82" y1="187.5" x2="956" y2="187.5" stroke="#ddd" stroke-width="0.8"/>
<line x1="519.0" y1="54" x2="519.0" y2="588" stroke="#ddd" stroke-width="0.8"/>
<line x1="82" y1="321.0" x2="956" y2="321.0" stroke="#ddd" stroke-width="0.8"/>
<line x1="737.5" y1="54" x2="737.5" y2="588" stroke="#ddd" stroke-width="0.8"/>
<line x1="82" y1="454.5" x2="956" y2="454.5" stroke="#ddd" stroke-width="0.8"/>
<line x1="956.0" y1="54" x2="956.0" y2="588" stroke="#ddd" stroke-width="0.8"/>
<line x1="82" y1="588.0" x2="956" y2="588.0" stroke="#ddd" stroke-width="0.8"/>
<polyline fill="none" stroke="#1f77b4" stroke-width="1.3" opacity="0.75" points="82.00,78.27 169.55,408.05 220.76,376.05 257.10,371.25 285.28,378.74 308.31,392.19 327.78,405.04 344.65,407.36 359.52,353.09 372.83,395.64 384.87,395.79 395.86,395.53 405.97,352.31 415.33,329.79 424.04,315.58 432.20,314.70 439.85,386.25 447.07,323.05 453.90,407.28 460.38,435.84 466.54,389.62 472.42,385.47 478.03,391.25 483.41,438.72 488.56,358.51 493.52,395.69 498.29,339.08 502.88,351.77 507.31,326.49 511.59,359.17 515.73,452.00 519.74,312.34 523.63,325.70 527.40,435.84 531.06,392.01 534.62,372.26 538.08,402.89 541.45,389.09 544.73,391.14 547.93,362.91 551.05,362.26 554.09,390.40 557.06,360.83 559.97,388.17 562.81,455.98 565.58,409.58 568.30,449.40 570.96,415.31 573.56,435.96 576.11,433.00 578.61,395.85 581.07,297.92 583.47,402.19 585.83,403.81 588.15,310.74 590.43,370.18 592.66,382.16 594.86,402.45 597.02,471.01 599.14,379.64 601.23,367.96 603.28,364.52 605.30,345.29 607.29,432.07 609.25,420.11 611.18,336.32 613.08,415.75 614.95,466.65 616.79,446.71 618.61,438.89 620.40,417.74 622.17,411.57 623.91,387.60 625.63,418.55 627.33,387.95 629.00,431.24 630.65,375.53 632.28,441.44 633.89,422.97 635.48,348.61 637.05,488.99 638.60,432.66 640.13,448.76 641.64,450.11 643.14,396.65 644.61,392.01 646.07,368.60 647.52,427.04 648.94,423.21 650.35,405.34 651.75,367.55 653.13,362.29 654.50,407.75 655.85,406.67 657.18,325.75 658.51,354.86 659.82,453.86 661.11,456.05 662.39,457.13 663.66,422.73 664.92,335.68 666.16,415.43 667.40,378.29 668.62,452.39 669.82,415.80 671.02,404.29 672.21,409.69 673.38,465.92 674.55,397.96 675.70,457.26 676.84,404.49 677.98,449.42 679.10,348.85 680.21,491.36 681.32,441.47 682.41,444.80 683.49,474.76 684.57,363.07 685.63,347.04 686.69,414.03 687.74,473.64 688.78,475.66 689.81,328.90 690.83,449.02 691.85,387.79 692.85,442.92 693.85,450.55 694.84,451.67 695.83,385.16 696.80,424.66 697.77,438.12 698.73,471.33 699.68,379.29 700.63,442.64 701.57,484.91 702.50,468.45 703.42,334.53 704.34,444.71 705.26,439.59 706.16,457.61 707.06,433.04 707.95,441.27 708.84,402.35 709.72,482.94 710.59,437.96 711.46,420.91 712.32,429.98 713.18,452.57 714.03,463.55 714.88,459.71 715.71,437.92 716.55,381.23 717.38,422.57 718.20,473.26 719.02,420.07 719.83,409.01 720.64,432.12 721.44,485.10 722.23,386.82 723.03,446.58 723.81,457.28 724.60,438.90 725.37,335.95 726.15,483.72 726.91,425.68 727.68,458.51 728.44,384.57 729.19,453.72 729.94,360.80 730.68,450.99 731.42,395.91 732.16,463.43 732.89,493.22 733.62,378.57 734.35,471.39 735.06,425.63 735.78,464.18 736.49,484.94 737.20,452.94 737.90,398.72 738.60,481.38 739.30,465.31 739.99,460.03 740.68,428.39 741.36,421.26 742.04,411.07 742.72,451.07 743.40,475.56 744.07,418.77 744.73,461.94 745.40,472.66 746.06,474.28 746.71,445.73 747.36,431.68 748.01,444.89 748.66,443.88 749.30,460.19 749.94,394.63 750.58,474.86 751.21,449.69 751.84,459.49 752.47,450.04 753.09,473.12 753.71,476.73 754.33,443.84 754.94,457.10 755.56,431.27 756.16,481.72 756.77,466.35 757.37,423.45 757.97,473.18 758.57,449.57 759.17,462.90 759.76,475.59 760.35,465.95 760.93,449.62 761.52,417.79 762.10,450.39 762.67,393.26 763.25,365.99 763.82,488.16 764.39,459.13 764.96,451.03 765.53,453.55 766.09,426.30 766.65,467.36 767.21,457.92 767.76,473.59 768.31,460.79 768.86,371.92 769.41,424.90 769.96,485.64 770.50,479.79 771.04,480.19 771.58,493.46 772.12,395.94 772.65,464.48 773.18,446.47 773.71,430.93 774.24,412.48 774.76,443.95 775.29,420.36 775.81,454.65 776.33,476.79 776.84,422.80 777.36,449.32 777.87,425.07 778.38,462.74 778.89,489.55 779.40,454.73 779.90,469.34 780.40,374.20 780.90,426.63 781.40,490.79 781.90,450.44 782.39,442.50 782.88,469.28 783.37,473.63 783.86,463.80 784.35,452.40 784.83,438.69 785.32,454.25 785.80,467.45 786.28,475.32 786.76,427.68 787.23,433.09 787.70,480.70 788.18,456.74 788.65,496.61 789.12,471.93 789.58,438.24 790.05,499.78 790.51,429.10 790.97,454.83 791.43,444.96 791.89,462.53 792.35,431.09 792.80,442.47 793.26,452.28 793.71,493.67 794.16,467.59 794.61,465.75 795.06,426.18 795.50,452.16 795.95,410.59 796.39,490.46 796.83,443.07 797.27,445.20 797.71,455.56 798.14,380.98 798.58,464.20 799.01,418.88 799.44,476.17 799.87,457.06 800.30,455.74 800.73,443.34 801.15,472.42 801.58,461.34 802.00,467.32 802.42,422.48 802.84,402.53 803.26,402.23 803.68,481.09 804.10,459.32 804.51,480.34 804.93,492.71 805.34,443.64 805.75,484.97 806.16,447.34 806.57,427.88 806.97,465.80 807.38,404.45 807.78,392.46 808.18,459.33 808.59,494.49 808.99,443.85 809.39,355.28 809.78,406.84 810.18,427.88 810.58,472.65 810.97,430.55 811.36,466.27 811.75,401.22 812.14,483.81 812.53,448.77 812.92,482.33 813.31,435.97 813.69,420.69 814.08,458.06 814.46,431.11 814.84,433.69 815.23,478.85 815.61,456.80 815.98,464.83 816.36,467.71 816.74,451.04 817.11,457.18 817.49,493.59 817.86,480.74 818.23,434.14 818.60,455.14 818.97,430.94 819.34,435.30 819.71,447.87 820.08,487.56 820.44,492.25 820.81,444.10 821.17,461.68 821.53,447.58 821.89,420.85 822.25,493.66 822.61,492.78 822.97,430.68 823.33,449.31 823.69,454.33 824.04,430.22 824.40,476.28 824.75,482.07 825.10,424.51 825.45,446.75 825.80,493.54 826.15,476.58 826.50,450.89 826.85,500.95 827.19,396.22 827.54,434.32 827.88,485.05 828.23,456.49 828.57,441.77 828.91,448.51 829.25,434.62 829.59,386.88 829.93,500.44 830.27,454.48 830.61,484.01 830.94,433.32 831.28,434.22 831.61,404.66 831.95,465.30 832.28,482.62 832.61,485.58 832.94,460.73 833.27,455.08 833.60,481.11 833.93,502.26 834.26,430.03 834.59,498.55 834.91,477.07 835.24,430.39 835.56,490.12 835.89,459.44 836.21,428.23 836.53,488.01 836.85,418.53 837.17,456.25 837.49,481.04 837.81,494.54 838.13,477.01 838.44,497.84 838.76,458.40 839.08,411.37 839.39,471.93 839.70,475.38 840.02,455.34 840.33,477.82 840.64,506.29 840.95,438.21 841.26,450.29 841.57,470.50 841.88,460.59 842.19,454.58 842.49,492.04 842.80,469.26 843.11,432.40 843.41,489.16 843.71,420.57 844.02,412.53 844.32,440.72 844.62,446.43 844.92,451.28 845.22,433.89 845.52,487.14 845.82,456.58 846.12,431.64 846.42,478.70 846.71,461.07 847.01,421.27 847.31,492.62 847.60,406.99 847.89,482.25 848.19,413.04 848.48,483.55 848.77,470.76 849.06,434.52 849.35,446.98 849.64,483.89 849.93,441.72 850.22,463.53 850.51,510.50 850.80,419.01 851.09,522.26 851.37,411.90 851.66,464.99 851.94,432.64 852.23,450.29 852.51,460.95 852.79,445.61 853.07,446.76 853.36,456.43 853.64,473.58 853.92,467.94 854.20,387.60 854.48,429.77 854.75,488.67 855.03,453.54 855.31,419.39 855.59,453.47 855.86,479.31 856.14,468.67 856.41,439.35 856.69,458.15 856.96,454.94 857.23,469.18 857.51,456.45 857.78,471.22 858.05,471.46 858.32,414.22 858.59,485.03 858.86,415.62 859.13,516.77 859.40,464.85 859.67,470.05 859.93,400.47 860.20,480.92 860.47,429.62 860.73,422.28 861.00,496.19 861.26,426.15 861.52,433.99 861.79,480.18 862.05,454.11 862.31,497.08 862.58,500.79 862.84,441.10 863.10,520.98 863.36,409.45 863.62,470.19 863.88,479.65 864.13,438.72 864.39,483.69 864.65,485.90 864.91,455.34 865.16,420.99 865.42,455.30 865.68,477.62 865.93,527.17 866.18,431.14 866.44,476.03 866.69,466.32 866.94,455.55 867.20,476.19 867.45,456.45 867.70,407.99 867.95,483.09 868.20,399.34 868.45,426.45 868.70,444.69 868.95,476.24 869.20,473.75 869.45,471.26 869.69,441.38 869.94,485.29 870.19,437.85 870.43,466.14 870.68,436.36 870.92,441.20 871.17,476.31 871.41,447.81 871.66,446.88 871.90,430.76 872.14,469.70 872.38,492.33 872.62,499.69 872.87,375.42 873.11,459.91 873.35,500.64 873.59,454.43 873.83,483.54 874.07,385.59 874.30,439.29 874.54,455.01 874.78,446.91 875.02,414.22 875.25,485.51 875.49,477.92 875.73,518.73 875.96,470.81 876.20,436.20 876.43,421.93 876.67,481.25 876.90,457.33 877.13,437.83 877.36,478.15 877.60,537.28 877.83,483.80 878.06,461.63 878.29,452.41 878.52,489.22 878.75,449.03 878.98,515.84 879.21,440.77 879.44,525.65 879.67,481.93 879.90,470.91 880.13,455.90 880.35,479.34 880.58,460.77 880.81,421.88 881.03,398.87 881.26,473.07 881.48,417.68 881.71,429.27 881.93,489.85 882.16,497.68 882.38,490.94 882.60,425.90 882.83,443.14 883.05,458.82 883.27,465.13 883.49,437.97 883.72,472.61 883.94,489.36 884.16,454.24 884.38,501.73 884.60,472.14 884.82,462.70 885.04,472.78 885.25,457.26 885.47,497.07 885.69,420.55 885.91,529.20 886.13,444.32 886.34,468.36 886.56,445.61 886.78,451.36 886.99,440.60 887.21,453.14 887.42,426.07 887.64,451.26 887.85,461.23 888.06,473.61 888.28,460.81 888.49,425.38 888.70,491.41 888.92,471.50 889.13,463.03 889.34,489.29 889.55,501.75 889.76,455.43 889.97,486.30 890.18,499.27 890.39,465.41 890.60,499.92 890.81,478.29 891.02,515.94 891.23,474.36 891.44,473.99 891.65,473.11 891.85,436.88 892.06,484.84 892.27,474.15 892.47,449.68 892.68,465.61 892.89,514.77 893.09,446.72 893.30,438.07 893.50,428.41 893.71,449.96 893.91,495.28 894.11,477.28 894.32,462.20 894.52,491.72 894.72,462.19 894.93,480.19 895.13,498.42 895.33,497.16 895.53,444.95 895.73,445.78 895.93,466.74 896.14,526.42 896.34,493.16 896.54,507.84 896.74,465.27 896.93,502.85 897.13,466.33 897.33,450.32 897.53,452.83 897.73,495.18 897.93,464.76 898.12,450.26 898.32,444.01 898.52,424.19 898.72,423.38 898.91,500.89 899.11,471.53 899.30,493.18 899.50,470.20 899.69,412.67 899.89,435.58 900.08,493.64 900.28,450.74 900.47,417.33 900.66,500.99 900.86,493.09 901.05,450.76 901.24,490.51 901.44,513.40 901.63,509.49 901.82,479.20 902.01,478.52 902.20,451.00 902.39,511.55 902.58,508.63 902.77,500.30 902.96,526.18 903.15,489.56 903.34,453.51 903.53,438.07 903.72,521.95 903.91,438.14 904.10,499.40 904.29,483.04 904.47,510.87 904.66,426.24 904.85,457.84 905.04,423.51 905.22,476.80 905.41,504.52 905.60,442.85 905.78,438.04 905.97,440.80 906.15,429.51 906.34,466.83 906.52,492.00 906.71,515.21 906.89,472.64 907.08,517.55 907.26,443.97 907.44,527.06 907.63,470.87 907.81,478.69 907.99,409.79 908.17,517.99 908.36,486.21 908.54,507.25 908.72,451.67 908.90,387.91 909.08,496.41 909.26,471.99 909.44,520.68 909.62,505.65 909.80,476.98 909.98,461.14 910.16,472.75 910.34,396.03 910.52,422.60 910.70,431.45 910.88,472.84 911.06,444.63 911.23,516.82 911.41,506.60 911.59,522.32 911.77,466.00 911.94,480.18 912.12,514.30 912.30,459.30 912.47,467.51 912.65,488.17 912.83,515.02 913.00,451.18 913.18,471.40 913.35,515.69 913.53,449.09 913.70,401.13 913.88,490.15 914.05,509.59 914.22,411.40 914.40,452.46 914.57,496.01 914.74,426.10 914.92,431.58 915.09,471.79 915.26,439.73 915.43,483.82 915.61,465.08 915.78,410.95 915.95,491.70 916.12,475.89 916.29,455.56 916.46,466.89 916.63,427.25 916.80,504.34 916.97,470.01 917.14,521.28 917.31,496.87 917.48,442.51 917.65,504.00 917.82,465.18 917.99,453.72 918.16,459.07 918.33,478.54 918.49,531.61 918.66,439.00 918.83,480.81 919.00,471.21 919.16,512.29 919.33,445.39 919.50,504.49 919.66,478.93 919.83,498.75 920.00,528.05 920.16,532.68 920.33,487.18 920.49,479.37 920.66,485.14 920.82,504.99 920.99,446.17 921.15,483.91 921.32,508.66 921.48,478.08 921.65,482.72 921.81,454.18 921.97,471.62 922.14,474.05 922.30,512.75 922.46,511.83 922.62,458.11 922.79,461.54 922.95,444.06 923.11,450.04 923.27,448.54 923.43,503.94 923.60,459.55 923.76,422.52 923.92,455.55 924.08,483.32 924.24,448.97 924.40,516.05 924.56,437.94 924.72,513.15 924.88,454.32 925.04,445.03 925.20,505.75 925.36,485.43 925.52,503.14 925.68,488.10 925.83,472.28 925.99,474.82 926.15,442.27 926.31,451.02 926.47,492.21 926.62,501.15 926.78,497.84 926.94,418.44 927.10,492.50 927.25,444.95 927.41,444.74 927.57,489.06 927.72,477.75 927.88,478.38 928.03,407.70 928.19,428.28 928.34,487.64 928.50,447.61 928.66,510.23 928.81,437.06 928.96,484.98 929.12,368.92 929.27,516.17 929.43,476.53 929.58,420.37 929.74,503.57 929.89,491.84 930.04,509.17 930.20,449.73 930.35,424.90 930.50,445.62 930.65,475.27 930.81,507.75 930.96,503.43 931.11,551.61 931.26,453.79 931.41,428.00 931.57,493.55 931.72,449.44 931.87,487.45 932.02,473.98 932.17,493.74 932.32,442.91 932.47,534.75 932.62,482.25 932.77,534.88 932.92,484.14 933.07,478.53 933.22,518.61 933.37,478.21 933.52,497.12 933.67,485.58 933.82,457.93 933.97,414.60 934.11,530.35 934.26,459.09 934.41,515.00 934.56,488.17 934.71,494.16 934.85,538.16 935.00,501.74 935.15,439.99 935.30,508.71 935.44,534.35 935.59,500.72 935.74,490.55 935.88,467.30 936.03,508.51 936.18,516.24 936.32,517.72 936.47,440.36 936.61,504.86 936.76,538.68 936.90,531.15 937.05,460.47 937.19,510.38 937.34,530.70 937.48,450.35 937.63,501.54 937.77,507.01 937.92,518.65 938.06,458.38 938.20,559.57 938.35,557.62 938.49,487.45 938.63,449.99 938.78,470.75 938.92,456.23 939.06,450.98 939.21,532.89 939.35,496.91 939.49,520.18 939.63,540.05 939.77,483.74 939.92,494.90 940.06,541.21 940.20,542.33 940.34,478.61 940.48,482.37 940.62,513.35 940.76,527.84 940.90,549.37 941.05,547.57 941.19,490.20 941.33,485.44 941.47,493.36 941.61,519.42 941.75,529.06 941.89,531.43 942.02,446.95 942.16,471.83 942.30,522.96 942.44,464.34 942.58,464.07 942.72,497.64 942.86,495.97 943.00,543.07 943.14,521.14 943.27,512.48 943.41,516.63 943.55,446.85 943.69,487.64 943.82,464.47 943.96,481.97 944.10,480.86 944.24,507.02 944.37,476.29 944.51,405.60 944.65,540.65 944.78,515.55 944.92,455.18 945.06,542.33 945.19,547.05 945.33,500.45 945.46,404.07 945.60,475.95 945.73,434.21 945.87,515.97 946.00,523.41 946.14,475.43 946.27,451.04 946.41,457.82 946.54,507.07 946.68,505.35 946.81,504.07 946.95,509.47 947.08,486.27 947.21,464.51 947.35,521.48 947.48,468.95 947.62,522.94 947.75,563.73 947.88,540.09 948.01,487.86 948.15,449.82 948.28,506.74 948.41,488.01 948.55,552.72 948.68,452.05 948.81,541.57 948.94,485.41 949.07,492.31 949.21,525.72 949.34,485.14 949.47,490.06 949.60,503.78 949.73,471.23 949.86,533.57 949.99,442.14 950.12,439.41 950.25,489.65 950.39,504.55 950.52,490.73 950.65,447.90 950.78,491.67 950.91,497.71 951.04,548.39 951.17,506.18 951.30,503.81 951.43,487.57 951.55,484.45 951.68,539.55 951.81,412.51 951.94,549.16 952.07,492.67 952.20,494.49 952.33,533.50 952.46,493.80 952.58,515.66 952.71,501.01 952.84,511.19 952.97,454.83 953.10,517.36 953.22,521.62 953.35,481.04 953.48,477.70 953.61,521.41 953.73,529.44 953.86,508.73 953.99,481.94 954.11,479.83 954.24,520.39 954.37,526.45 954.49,492.61 954.62,522.52 954.75,466.67 954.87,457.95 955.00,494.88 955.12,466.52 955.25,515.28 955.37,526.06 955.50,456.04 955.63,521.42 955.75,518.39 955.88,543.04 956.00,533.85"/>
<line x1="836" y1="68" x2="858" y2="68" stroke="#1f77b4" stroke-width="2"/>
<text x="864" y="72" font-family="Arial" font-size="11">L0</text>
</svg>