<svg xmlns="http://www.w3.org/2000/svg" width="980" height="660" viewBox="0 0 980 660">
<rect width="100%" height="100%" fill="white"/>
<text x="490" y="28" text-anchor="middle" font-family="Arial" font-size="18">o: feature activation frequency</text>
<line x1="82" y1="54" x2="82" y2="588" stroke="#333"/>
<line x1="82" y1="588" x2="956" y2="588" stroke="#333"/>
<text x="490" y="638" text-anchor="middle" font-family="Arial" font-size="13">feature rank by activation frequency</text>
<text transform="translate(20,330) rotate(-90)" text-anchor="middle" font-family="Arial" font-size="13">activation frequency</text>
<line x1="82.0" y1="54" x2="82.0" y2="588" stroke="#ddd" stroke-width="0.8"/>
<line x1="82" y1="54.0" x2="956" y2="54.0" stroke="#ddd" stroke-width="0.8"/>
<line x1="300.5" y1="54" x2="300.5" y2="588" stroke="#ddd" stroke-width="0.8"/>
<line x1="82" y1="187.5" x2="956" y2="187.5" stroke="#ddd" stroke-width="0.8"/>
<line x1="519.0" y1="54" x2="519.0" y2="588" stroke="#ddd" stroke-width="0.8"/>
<line x1="82" y1="321.0" x2="956" y2="321.0" stroke="#ddd" stroke-width="0.8"/>
<line x1="737.5" y1="54" x2="737.5" y2="588" stroke="#ddd" stroke-width="0.8"/>
<line x1="82" y1="454.5" x2="956" y2="454.5" stroke="#ddd" stroke-width="0.8"/>
<line x1="956.0" y1="54" x2="956.0" y2="588" stroke="#ddd" stroke-width="0.8"/>
<line x1="82" y1="588.0" x2="956" y2="588.0" stroke="#ddd" stroke-width="0.8"/>
<polyline fill="none" stroke="#1f77b4" stroke-width="1.3" opacity="0.75" points="82.00,78.27 169.55,92.06 220.76,96.98 257.10,96.98 285.28,96.98 308.31,102.07 327.78,102.07 344.65,102.07 359.52,107.36 372.83,107.36 384.87,107.36 395.86,107.36 405.97,107.36 415.33,107.36 424.04,107.36 432.20,112.85 439.85,112.85 447.07,112.85 453.90,112.85 460.38,112.85 466.54,112.85 472.42,112.85 478.03,112.85 483.41,112.85 488.56,112.85 493.52,118.57 498.29,118.57 502.88,118.57 507.31,118.57 511.59,118.57 515.73,118.57 519.74,118.57 523.63,118.57 527.40,118.57 531.06,118.57 534.62,118.57 538.08,124.53 541.45,124.53 544.73,124.53 547.93,124.53 551.05,124.53 554.09,124.53 557.06,124.53 559.97,124.53 562.81,124.53 565.58,124.53 568.30,124.53 570.96,124.53 573.56,130.76 576.11,130.76 578.61,130.76 581.07,130.76 583.47,130.76 585.83,130.76 588.15,130.76 590.43,130.76 592.66,130.76 594.86,130.76 597.02,130.76 599.14,130.76 601.23,130.76 603.28,137.27 605.30,137.27 607.29,137.27 609.25,137.27 611.18,137.27 613.08,137.27 614.95,137.27 616.79,137.27 618.61,137.27 620.40,137.27 622.17,137.27 623.91,137.27 625.63,137.27 627.33,137.27 629.00,144.11 630.65,144.11 632.28,144.11 633.89,144.11 635.48,144.11 637.05,144.11 638.60,144.11 640.13,144.11 641.64,144.11 643.14,144.11 644.61,144.11 646.07,144.11 647.52,144.11 648.94,144.11 650.35,144.11 651.75,144.11 653.13,144.11 654.50,144.11 655.85,144.11 657.18,144.11 658.51,144.11 659.82,144.11 661.11,144.11 662.39,144.11 663.66,144.11 664.92,144.11 666.16,144.11 667.40,144.11 668.62,144.11 669.82,144.11 671.02,144.11 672.21,144.11 673.38,151.29 674.55,151.29 675.70,151.29 676.84,151.29 677.98,151.29 679.10,151.29 680.21,151.29 681.32,151.29 682.41,151.29 683.49,151.29 684.57,151.29 685.63,151.29 686.69,151.29 687.74,151.29 688.78,151.29 689.81,151.29 690.83,151.29 691.85,151.29 692.85,151.29 693.85,158.87 694.84,158.87 695.83,158.87 696.80,158.87 697.77,158.87 698.73,158.87 699.68,158.87 700.63,158.87 701.57,158.87 702.50,158.87 703.42,158.87 704.34,158.87 705.26,158.87 706.16,158.87 707.06,158.87 707.95,158.87 708.84,158.87 709.72,158.87 710.59,158.87 711.46,158.87 712.32,158.87 713.18,158.87 714.03,158.87 714.88,158.87 715.71,166.87 716.55,166.87 717.38,166.87 718.20,166.87 719.02,166.87 719.83,166.87 720.64,166.87 721.44,166.87 722.23,166.87 723.03,166.87 723.81,166.87 724.60,166.87 725.37,166.87 726.15,166.87 726.91,166.87 727.68,166.87 728.44,166.87 729.19,166.87 729.94,166.87 730.68,166.87 731.42,166.87 732.16,166.87 732.89,166.87 733.62,166.87 734.35,166.87 735.06,166.87 735.78,166.87 736.49,166.87 737.20,166.87 737.90,175.36 738.60,175.36 739.30,175.36 739.99,175.36 740.68,175.36 741.36,175.36 742.04,175.36 742.72,175.36 743.40,175.36 744.07,175.36 744.73,175.36 745.40,175.36 746.06,175.36 746.71,175.36 747.36,175.36 748.01,175.36 748.66,175.36 749.30,175.36 749.94,175.36 750.58,175.36 751.21,175.36 751.84,175.36 752.47,175.36 753.09,175.36 753.71,175.36 754.33,175.36 754.94,175.36 755.56,175.36 756.16,175.36 756.77,175.36 757.37,175.36 757.97,175.36 758.57,175.36 759.17,175.36 759.76,175.36 760.35,175.36 760.93,175.36 761.52,175.36 762.10,175.36 762.67,175.36 763.25,175.36 763.82,175.36 764.39,175.36 764.96,175.36 765.53,175.36 766.09,175.36 766.65,175.36 767.21,184.40 767.76,184.40 768.31,184.40 768.86,184.40 769.41,184.40 769.96,184.40 770.50,184.40 771.04,184.40 771.58,184.40 772.12,184.40 772.65,184.40 773.18,184.40 773.71,184.40 774.24,184.40 774.76,184.40 775.29,184.40 775.81,184.40 776.33,184.40 776.84,184.40 777.36,184.40 777.87,184.40 778.38,184.40 778.89,184.40 779.40,184.40 779.90,184.40 780.40,184.40 780.90,184.40 781.40,184.40 781.90,184.40 782.39,184.40 782.88,184.40 783.37,184.40 783.86,184.40 784.35,184.40 784.83,184.40 785.32,184.40 785.80,184.40 786.28,184.40 786.76,184.40 787.23,184.40 787.70,184.40 788.18,194.07 788.65,194.07 789.12,194.07 789.58,194.07 790.05,194.07 790.51,194.07 790.97,194.07 791.43,194.07 791.89,194.07 792.35,194.07 792.80,194.07 793.26,194.07 793.71,194.07 794.16,194.07 794.61,194.07 795.06,194.07 795.50,194.07 795.95,194.07 796.39,194.07 796.83,194.07 797.27,194.07 797.71,194.07 798.14,194.07 798.58,194.07 799.01,194.07 799.44,194.07 799.87,194.07 800.30,194.07 800.73,194.07 801.15,194.07 801.58,194.07 802.00,194.07 802.42,194.07 802.84,194.07 803.26,194.07 803.68,194.07 804.10,194.07 804.51,194.07 804.93,194.07 805.34,194.07 805.75,194.07 806.16,194.07 806.57,194.07 806.97,194.07 807.38,194.07 807.78,194.07 808.18,194.07 808.59,194.07 808.99,194.07 809.39,194.07 809.78,194.07 810.18,194.07 810.58,194.07 810.97,194.07 811.36,204.45 811.75,204.45 812.14,204.45 812.53,204.45 812.92,204.45 813.31,204.45 813.69,204.45 814.08,204.45 814.46,204.45 814.84,204.45 815.23,204.45 815.61,204.45 815.98,204.45 816.36,204.45 816.74,204.45 817.11,204.45 817.49,204.45 817.86,204.45 818.23,204.45 818.60,204.45 818.97,204.45 819.34,204.45 819.71,204.45 820.08,204.45 820.44,204.45 820.81,204.45 821.17,204.45 821.53,204.45 821.89,204.45 822.25,204.45 822.61,204.45 822.97,204.45 823.33,204.45 823.69,204.45 824.04,204.45 824.40,204.45 824.75,204.45 825.10,204.45 825.45,204.45 825.80,204.45 826.15,204.45 826.50,204.45 826.85,204.45 827.19,204.45 827.54,204.45 827.88,204.45 828.23,204.45 828.57,204.45 828.91,204.45 829.25,204.45 829.59,204.45 829.93,204.45 830.27,204.45 830.61,204.45 830.94,204.45 831.28,204.45 831.61,215.66 831.95,215.66 832.28,215.66 832.61,215.66 832.94,215.66 833.27,215.66 833.60,215.66 833.93,215.66 834.26,215.66 834.59,215.66 834.91,215.66 835.24,215.66 835.56,215.66 835.89,215.66 836.21,215.66 836.53,215.66 836.85,215.66 837.17,215.66 837.49,215.66 837.81,215.66 838.13,215.66 838.44,215.66 838.76,215.66 839.08,215.66 839.39,215.66 839.70,215.66 840.02,215.66 840.33,215.66 840.64,215.66 840.95,215.66 841.26,215.66 841.57,215.66 841.88,215.66 842.19,215.66 842.49,215.66 842.80,215.66 843.11,215.66 843.41,215.66 843.71,215.66 844.02,215.66 844.32,215.66 844.62,215.66 844.92,215.66 845.22,215.66 845.52,215.66 845.82,215.66 846.12,215.66 846.42,215.66 846.71,215.66 847.01,215.66 847.31,215.66 847.60,215.66 847.89,215.66 848.19,215.66 848.48,215.66 848.77,215.66 849.06,227.85 849.35,227.85 849.64,227.85 849.93,227.85 850.22,227.85 850.51,227.85 850.80,227.85 851.09,227.85 851.37,227.85 851.66,227.85 851.94,227.85 852.23,227.85 852.51,227.85 852.79,227.85 853.07,227.85 853.36,227.85 853.64,227.85 853.92,227.85 854.20,227.85 854.48,227.85 854.75,227.85 855.03,227.85 855.31,227.85 855.59,227.85 855.86,227.85 856.14,227.85 856.41,227.85 856.69,227.85 856.96,227.85 857.23,227.85 857.51,227.85 857.78,227.85 858.05,227.85 858.32,227.85 858.59,227.85 858.86,227.85 859.13,227.85 859.40,227.85 859.67,227.85 859.93,227.85 860.20,227.85 860.47,227.85 860.73,227.85 861.00,227.85 861.26,227.85 861.52,227.85 861.79,227.85 862.05,227.85 862.31,227.85 862.58,227.85 862.84,227.85 863.10,227.85 863.36,227.85 863.62,227.85 863.88,227.85 864.13,227.85 864.39,227.85 864.65,227.85 864.91,227.85 865.16,227.85 865.42,227.85 865.68,227.85 865.93,227.85 866.18,227.85 866.44,227.85 866.69,227.85 866.94,227.85 867.20,227.85 867.45,227.85 867.70,227.85 867.95,227.85 868.20,227.85 868.45,227.85 868.70,227.85 868.95,227.85 869.20,227.85 869.45,227.85 869.69,227.85 869.94,227.85 870.19,227.85 870.43,227.85 870.68,241.20 870.92,241.20 871.17,241.20 871.41,241.20 871.66,241.20 871.90,241.20 872.14,241.20 872.38,241.20 872.62,241.20 872.87,241.20 873.11,241.20 873.35,241.20 873.59,241.20 873.83,241.20 874.07,241.20 874.30,241.20 874.54,241.20 874.78,241.20 875.02,241.20 875.25,241.20 875.49,241.20 875.73,241.20 875.96,241.20 876.20,241.20 876.43,241.20 876.67,241.20 876.90,241.20 877.13,241.20 877.36,241.20 877.60,241.20 877.83,241.20 878.06,241.20 878.29,241.20 878.52,241.20 878.75,241.20 878.98,241.20 879.21,241.20 879.44,241.20 879.67,241.20 879.90,241.20 880.13,241.20 880.35,241.20 880.58,241.20 880.81,241.20 881.03,241.20 881.26,241.20 881.48,241.20 881.71,241.20 881.93,241.20 882.16,241.20 882.38,241.20 882.60,241.20 882.83,241.20 883.05,241.20 883.27,241.20 883.49,241.20 883.72,241.20 883.94,241.20 884.16,241.20 884.38,241.20 884.60,241.20 884.82,241.20 885.04,241.20 885.25,241.20 885.47,241.20 885.69,241.20 885.91,241.20 886.13,241.20 886.34,241.20 886.56,241.20 886.78,241.20 886.99,241.20 887.21,241.20 887.42,241.20 887.64,241.20 887.85,241.20 888.06,241.20 888.28,241.20 888.49,241.20 888.70,241.20 888.92,241.20 889.13,255.96 889.34,255.96 889.55,255.96 889.76,255.96 889.97,255.96 890.18,255.96 890.39,255.96 890.60,255.96 890.81,255.96 891.02,255.96 891.23,255.96 891.44,255.96 891.65,255.96 891.85,255.96 892.06,255.96 892.27,255.96 892.47,255.96 892.68,255.96 892.89,255.96 893.09,255.96 893.30,255.96 893.50,255.96 893.71,255.96 893.91,255.96 894.11,255.96 894.32,255.96 894.52,255.96 894.72,255.96 894.93,255.96 895.13,255.96 895.33,255.96 895.53,255.96 895.73,255.96 895.93,255.96 896.14,255.96 896.34,255.96 896.54,255.96 896.74,255.96 896.93,255.96 897.13,255.96 897.33,255.96 897.53,255.96 897.73,255.96 897.93,255.96 898.12,255.96 898.32,255.96 898.52,255.96 898.72,255.96 898.91,255.96 899.11,255.96 899.30,255.96 899.50,255.96 899.69,255.96 899.89,255.96 900.08,255.96 900.28,255.96 900.47,255.96 900.66,255.96 900.86,255.96 901.05,255.96 901.24,255.96 901.44,255.96 901.63,255.96 901.82,255.96 902.01,255.96 902.20,255.96 902.39,255.96 902.58,255.96 902.77,255.96 902.96,255.96 903.15,255.96 903.34,255.96 903.53,255.96 903.72,255.96 903.91,255.96 904.10,255.96 904.29,255.96 904.47,255.96 904.66,255.96 904.85,255.96 905.04,255.96 905.22,255.96 905.41,255.96 905.60,255.96 905.78,255.96 905.97,255.96 906.15,255.96 906.34,272.45 906.52,272.45 906.71,272.45 906.89,272.45 907.08,272.45 907.26,272.45 907.44,272.45 907.63,272.45 907.81,272.45 907.99,272.45 908.17,272.45 908.36,272.45 908.54,272.45 908.72,272.45 908.90,272.45 909.08,272.45 909.26,272.45 909.44,272.45 909.62,272.45 909.80,272.45 909.98,272.45 910.16,272.45 910.34,272.45 910.52,272.45 910.70,272.45 910.88,272.45 911.06,272.45 911.23,272.45 911.41,272.45 911.59,272.45 911.77,272.45 911.94,272.45 912.12,272.45 912.30,272.45 912.47,272.45 912.65,272.45 912.83,272.45 913.00,272.45 913.18,272.45 913.35,272.45 913.53,272.45 913.70,272.45 913.88,272.45 914.05,272.45 914.22,272.45 914.40,272.45 914.57,272.45 914.74,272.45 914.92,272.45 915.09,272.45 915.26,272.45 915.43,272.45 915.61,272.45 915.78,272.45 915.95,272.45 916.12,272.45 916.29,272.45 916.46,272.45 916.63,272.45 916.80,272.45 916.97,272.45 917.14,272.45 917.31,272.45 917.48,272.45 917.65,272.45 917.82,272.45 917.99,272.45 918.16,272.45 918.33,272.45 918.49,272.45 918.66,272.45 918.83,291.16 919.00,291.16 919.16,291.16 919.33,291.16 919.50,291.16 919.66,291.16 919.83,291.16 920.00,291.16 920.16,291.16 920.33,291.16 920.49,291.16 920.66,291.16 920.82,291.16 920.99,291.16 921.15,291.16 921.32,291.16 921.48,291.16 921.65,291.16 921.81,291.16 921.97,291.16 922.14,291.16 922.30,291.16 922.46,291.16 922.62,291.16 922.79,291.16 922.95,291.16 923.11,291.16 923.27,291.16 923.43,291.16 923.60,291.16 923.76,291.16 923.92,291.16 924.08,291.16 924.24,291.16 924.40,291.16 924.56,291.16 924.72,291.16 924.88,291.16 925.04,291.16 925.20,291.16 925.36,291.16 925.52,291.16 925.68,291.16 925.83,291.16 925.99,291.16 926.15,291.16 926.31,312.75 926.47,312.75 926.62,312.75 926.78,312.75 926.94,312.75 927.10,312.75 927.25,312.75 927.41,312.75 927.57,312.75 927.72,312.75 927.88,312.75 928.03,312.75 928.19,312.75 928.34,312.75 928.50,312.75 928.66,312.75 928.81,312.75 928.96,312.75 929.12,312.75 929.27,312.75 929.43,312.75 929.58,312.75 929.74,312.75 929.89,312.75 930.04,312.75 930.20,312.75 930.35,312.75 930.50,312.75 930.65,312.75 930.81,312.75 930.96,312.75 931.11,312.75 931.26,312.75 931.41,312.75 931.57,312.75 931.72,312.75 931.87,312.75 932.02,312.75 932.17,312.75 932.32,312.75 932.47,312.75 932.62,312.75 932.77,312.75 932.92,312.75 933.07,312.75 933.22,312.75 933.37,312.75 933.52,312.75 933.67,312.75 933.82,312.75 933.97,312.75 934.11,338.29 934.26,338.29 934.41,338.29 934.56,338.29 934.71,338.29 934.85,338.29 935.00,338.29 935.15,338.29 935.30,338.29 935.44,338.29 935.59,338.29 935.74,338.29 935.88,338.29 936.03,338.29 936.18,338.29 936.32,338.29 936.47,338.29 936.61,338.29 936.76,338.29 936.90,338.29 937.05,338.29 937.19,338.29 937.34,338.29 937.48,338.29 937.63,338.29 937.77,338.29 937.92,338.29 938.06,338.29 938.20,338.29 938.35,338.29 938.49,338.29 938.63,338.29 938.78,338.29 938.92,338.29 939.06,338.29 939.21,338.29 939.35,338.29 939.49,338.29 939.63,338.29 939.77,338.29 939.92,338.29 940.06,338.29 940.20,338.29 940.34,338.29 940.48,338.29 940.62,369.55 940.76,369.55 940.90,369.55 941.05,369.55 941.19,369.55 941.33,369.55 941.47,369.55 941.61,369.55 941.75,369.55 941.89,369.55 942.02,369.55 942.16,369.55 942.30,369.55 942.44,369.55 942.58,369.55 942.72,369.55 942.86,369.55 943.00,369.55 943.14,369.55 943.27,369.55 943.41,369.55 943.55,369.55 943.69,369.55 943.82,369.55 943.96,369.55 944.10,369.55 944.24,369.55 944.37,369.55 944.51,369.55 944.65,369.55 944.78,369.55 944.92,369.55 945.06,369.55 945.19,369.55 945.33,369.55 945.46,369.55 945.60,369.55 945.73,369.55 945.87,369.55 946.00,369.55 946.14,369.55 946.27,369.55 946.41,369.55 946.54,369.55 946.68,369.55 946.81,369.55 946.95,369.55 947.08,369.55 947.21,369.55 947.35,369.55 947.48,409.84 947.62,409.84 947.75,409.84 947.88,409.84 948.01,409.84 948.15,409.84 948.28,409.84 948.41,409.84 948.55,409.84 948.68,409.84 948.81,409.84 948.94,409.84 949.07,409.84 949.21,409.84 949.34,409.84 949.47,409.84 949.60,409.84 949.73,409.84 949.86,409.84 949.99,409.84 950.12,409.84 950.25,409.84 950.39,409.84 950.52,409.84 950.65,409.84 950.78,409.84 950.91,409.84 951.04,409.84 951.17,409.84 951.30,409.84 951.43,409.84 951.55,409.84 951.68,409.84 951.81,409.84 951.94,466.64 952.07,466.64 952.20,466.64 952.33,466.64 952.46,466.64 952.58,466.64 952.71,466.64 952.84,466.64 952.97,466.64 953.10,466.64 953.22,466.64 953.35,466.64 953.48,466.64 953.61,466.64 953.73,466.64 953.86,466.64 953.99,466.64 954.11,466.64 954.24,466.64 954.37,466.64 954.49,563.73 954.62,563.73 954.75,563.73 954.87,563.73 955.00,563.73 955.12,563.73 955.25,563.73 955.37,563.73 955.50,563.73 955.63,563.73 955.75,563.73 955.88,563.73 956.00,563.73"/>
<line x1="836" y1="68" x2="858" y2="68" stroke="#1f77b4" stroke-width="2"/>
<text x="864" y="72" font-family="Arial" font-size="11">L0</text>
</svg>