<svg xmlns="http://www.w3.org/2000/svg" width="980" height="660" viewBox="0 0 980 660">
<rect width="100%" height="100%" fill="white"/>
<text x="490" y="28" text-anchor="middle" font-family="Arial" font-size="18">q: avg |scaled activation| on active tokens</text>
<line x1="82" y1="54" x2="82" y2="588" stroke="#333"/>
<line x1="82" y1="588" x2="956" y2="588" stroke="#333"/>
<text x="490" y="638" text-anchor="middle" font-family="Arial" font-size="13">feature rank by activation frequency</text>
<text transform="translate(20,330) rotate(-90)" text-anchor="middle" font-family="Arial" font-size="13">avg |a_i| when active</text>
<line x1="82.0" y1="54" x2="82.0" y2="588" stroke="#ddd" stroke-width="0.8"/>
<line x1="82" y1="54.0" x2="956" y2="54.0" stroke="#ddd" stroke-width="0.8"/>
<line x1="300.5" y1="54" x2="300.5" y2="588" stroke="#ddd" stroke-width="0.8"/>
<line x1="82" y1="187.5" x2="956" y2="187.5" stroke="#ddd" stroke-width="0.8"/>
<line x1="519.0" y1="54" x2="519.0" y2="588" stroke="#ddd" stroke-width="0.8"/>
<line x1="82" y1="321.0" x2="956" y2="321.0" stroke="#ddd" stroke-width="0.8"/>
<line x1="737.5" y1="54" x2="737.5" y2="588" stroke="#ddd" stroke-width="0.8"/>
<line x1="82" y1="454.5" x2="956" y2="454.5" stroke="#ddd" stroke-width="0.8"/>
<line x1="956.0" y1="54" x2="956.0" y2="588" stroke="#ddd" stroke-width="0.8"/>
<line x1="82" y1="588.0" x2="956" y2="588.0" stroke="#ddd" stroke-width="0.8"/>
<polyline fill="none" stroke="#1f77b4" stroke-width="1.3" opacity="0.75" points="82.00,237.14 173.02,78.27 226.27,321.55 264.05,234.59 293.35,342.35 317.30,394.89 337.54,412.37 355.07,294.95 370.54,383.85 384.38,382.79 396.89,396.04 408.32,451.15 418.83,451.18 428.56,455.48 437.62,415.62 446.10,435.01 454.06,451.10 461.57,468.16 468.67,443.44 475.40,415.13 481.81,415.72 487.92,375.30 493.76,436.87 499.35,455.41 504.71,438.23 509.86,476.26 514.81,473.70 519.59,477.32 524.20,459.80 528.65,448.07 532.96,477.39 537.12,470.78 541.17,443.49 545.09,457.25 548.89,465.72 552.59,472.02 556.19,469.36 559.69,450.17 563.10,479.35 566.43,462.78 569.67,476.74 572.84,458.80 575.93,482.53 578.94,481.09 581.90,463.14 584.78,471.84 587.61,484.35 590.37,489.78 593.08,491.72 595.73,484.23 598.33,469.73 600.88,459.78 603.38,438.98 605.84,474.61 608.25,512.01 610.61,480.26 612.94,480.71 615.22,488.77 617.47,479.38 619.67,486.17 621.84,473.16 623.98,496.63 626.08,461.50 628.15,492.18 630.19,481.79 632.19,480.16 634.17,472.92 636.11,470.72 638.03,495.55 639.92,482.00 641.78,479.63 643.62,479.82 645.43,484.80 647.21,459.38 648.98,503.69 650.72,500.95 652.43,458.88 654.13,490.71 655.80,457.04 657.45,482.28 659.08,484.56 660.70,490.32 662.29,477.82 663.86,500.80 665.41,455.89 666.95,477.06 668.47,484.48 669.97,488.80 671.45,484.47 672.92,477.44 674.37,477.87 675.81,480.06 677.23,485.15 678.63,469.12 680.02,500.06 681.40,478.29 682.76,509.40 684.10,460.54 685.44,458.91 686.76,493.41 688.06,491.14 689.36,483.78 690.64,475.64 691.91,473.06 693.16,469.45 694.41,467.40 695.64,505.16 696.86,484.91 698.07,494.08 699.27,488.25 700.46,457.71 701.64,463.08 702.81,506.81 703.96,500.73 705.11,480.15 706.25,487.85 707.37,504.36 708.49,492.48 709.60,481.17 710.70,497.02 711.79,486.23 712.87,487.30 713.94,456.14 715.00,490.80 716.06,489.41 717.11,503.49 718.14,486.18 719.17,493.57 720.20,493.26 721.21,489.36 722.22,466.67 723.22,492.67 724.21,470.33 725.19,469.96 726.17,462.25 727.14,491.34 728.10,474.29 729.05,486.04 730.00,481.43 730.94,492.52 731.88,474.24 732.80,478.77 733.73,484.68 734.64,507.13 735.55,501.58 736.45,477.61 737.35,472.31 738.24,490.29 739.12,472.80 740.00,507.08 740.87,472.47 741.74,482.77 742.60,464.88 743.46,487.11 744.31,512.41 745.15,492.96 745.99,472.70 746.83,491.08 747.65,471.87 748.48,481.62 749.30,510.37 750.11,498.11 750.92,526.06 751.72,488.48 752.52,512.92 753.31,478.82 754.10,477.23 754.88,504.57 755.66,477.42 756.44,498.29 757.21,501.15 757.97,496.75 758.74,509.16 759.49,478.38 760.25,481.53 760.99,496.03 761.74,504.31 762.48,481.70 763.21,500.44 763.95,481.06 764.67,460.31 765.40,485.35 766.12,493.02 766.83,484.51 767.54,504.38 768.25,507.47 768.96,481.15 769.66,467.69 770.35,474.93 771.05,501.12 771.73,499.25 772.42,481.82 773.10,479.36 773.78,481.88 774.46,504.93 775.13,482.22 775.80,482.05 776.46,442.33 777.12,505.07 777.78,493.83 778.44,490.58 779.09,497.95 779.74,471.77 780.38,504.78 781.02,475.77 781.66,499.98 782.30,508.38 782.93,497.87 783.56,453.53 784.19,511.78 784.81,470.36 785.43,467.41 786.05,512.17 786.67,489.92 787.28,495.11 787.89,488.25 788.49,518.29 789.10,486.91 789.70,479.52 790.30,510.29 790.89,491.90 791.49,502.87 792.08,449.70 792.66,493.07 793.25,495.90 793.83,502.32 794.41,480.88 794.99,482.58 795.56,514.42 796.13,489.66 796.70,506.47 797.27,517.17 797.84,440.56 798.40,492.82 798.96,484.83 799.52,516.74 800.07,485.50 800.62,476.31 801.18,478.03 801.72,497.45 802.27,484.54 802.81,510.16 803.36,496.52 803.89,478.38 804.43,473.29 804.97,507.89 805.50,468.30 806.03,500.66 806.56,485.07 807.08,478.34 807.61,471.24 808.13,516.68 808.65,486.87 809.17,498.54 809.69,478.45 810.20,463.43 810.71,506.80 811.22,457.89 811.73,492.92 812.24,481.55 812.74,488.55 813.24,496.60 813.74,498.44 814.24,491.71 814.74,511.15 815.23,494.47 815.72,496.48 816.21,475.83 816.70,476.13 817.19,486.12 817.68,492.40 818.16,493.24 818.64,493.46 819.12,500.38 819.60,533.88 820.08,481.94 820.55,505.55 821.03,521.94 821.50,470.71 821.97,470.48 822.44,512.93 822.90,492.44 823.37,492.37 823.83,515.54 824.29,505.08 824.75,518.07 825.21,490.90 825.67,518.23 826.12,482.94 826.58,502.90 827.03,527.89 827.48,462.31 827.93,497.56 828.37,525.61 828.82,475.69 829.26,497.33 829.71,494.13 830.15,504.02 830.59,514.45 831.03,493.99 831.46,485.78 831.90,501.40 832.33,491.73 832.77,513.71 833.20,518.66 833.63,510.15 834.06,486.82 834.48,499.63 834.91,506.36 835.33,490.27 835.76,504.79 836.18,487.59 836.60,505.74 837.02,489.73 837.43,508.18 837.85,529.42 838.27,493.18 838.68,509.06 839.09,463.34 839.50,522.27 839.91,444.05 840.32,506.73 840.73,494.58 841.13,521.58 841.54,504.59 841.94,476.01 842.34,508.23 842.75,502.35 843.14,504.28 843.54,506.94 843.94,499.96 844.34,514.18 844.73,496.57 845.13,516.96 845.52,518.76 845.91,520.62 846.30,504.76 846.69,516.16 847.08,501.07 847.46,506.53 847.85,524.54 848.23,496.62 848.62,505.73 849.00,474.14 849.38,510.05 849.76,509.25 850.14,497.89 850.52,506.92 850.89,507.52 851.27,512.67 851.65,453.91 852.02,512.19 852.39,510.90 852.76,487.51 853.13,513.45 853.50,514.58 853.87,529.05 854.24,495.39 854.60,497.75 854.97,513.06 855.33,522.11 855.70,489.87 856.06,483.85 856.42,499.66 856.78,520.31 857.14,481.79 857.50,514.37 857.86,499.08 858.21,519.35 858.57,495.15 858.92,479.25 859.28,511.11 859.63,494.59 859.98,504.58 860.33,510.67 860.68,514.04 861.03,520.96 861.38,480.76 861.72,517.85 862.07,539.62 862.42,500.25 862.76,505.64 863.10,515.15 863.45,530.73 863.79,514.34 864.13,500.38 864.47,509.82 864.81,513.85 865.14,503.66 865.48,501.96 865.82,503.54 866.15,503.58 866.49,511.14 866.82,493.81 867.15,518.53 867.49,512.81 867.82,513.91 868.15,484.56 868.48,487.38 868.81,502.76 869.13,528.57 869.46,509.78 869.79,518.31 870.11,499.31 870.44,527.03 870.76,470.71 871.08,501.79 871.41,535.08 871.73,521.48 872.05,522.63 872.37,504.33 872.69,517.82 873.01,493.58 873.32,495.99 873.64,475.30 873.96,502.40 874.27,490.77 874.59,512.28 874.90,500.30 875.21,487.45 875.53,532.15 875.84,517.30 876.15,506.44 876.46,515.52 876.77,506.93 877.08,479.80 877.38,507.09 877.69,508.64 878.00,520.75 878.30,530.84 878.61,522.21 878.91,478.81 879.22,512.41 879.52,521.55 879.82,511.34 880.12,524.39 880.42,523.24 880.72,529.77 881.02,466.20 881.32,517.39 881.62,500.79 881.92,529.90 882.21,528.09 882.51,499.72 882.81,513.96 883.10,516.92 883.39,510.55 883.69,508.39 883.98,513.59 884.27,526.42 884.56,503.28 884.86,528.26 885.15,518.65 885.44,469.05 885.72,534.27 886.01,532.75 886.30,507.05 886.59,528.85 886.87,501.76 887.16,521.40 887.44,512.74 887.73,521.90 888.01,483.32 888.30,476.33 888.58,497.60 888.86,505.51 889.14,485.71 889.42,475.99 889.70,505.00 889.98,498.96 890.26,512.32 890.54,504.04 890.82,526.62 891.10,496.61 891.37,470.21 891.65,488.71 891.93,523.05 892.20,535.76 892.47,492.59 892.75,473.49 893.02,513.34 893.29,492.75 893.57,498.38 893.84,494.03 894.11,537.14 894.38,511.23 894.65,482.69 894.92,533.09 895.19,531.28 895.46,509.79 895.72,485.46 895.99,490.04 896.26,524.84 896.52,494.57 896.79,517.34 897.05,524.51 897.32,501.10 897.58,496.58 897.85,479.16 898.11,524.03 898.37,488.56 898.63,519.34 898.89,483.76 899.16,519.24 899.42,505.58 899.68,484.81 899.94,522.38 900.19,527.28 900.45,524.65 900.71,508.65 900.97,507.72 901.22,503.33 901.48,494.37 901.74,507.50 901.99,534.19 902.25,504.00 902.50,521.60 902.75,493.80 903.01,409.77 903.26,538.99 903.51,478.15 903.76,463.66 904.02,510.46 904.27,548.29 904.52,529.28 904.77,512.17 905.02,514.31 905.26,491.58 905.51,503.11 905.76,540.01 906.01,504.46 906.26,539.95 906.50,534.15 906.75,531.37 906.99,539.99 907.24,490.01 907.48,521.24 907.73,517.32 907.97,475.55 908.22,471.88 908.46,501.01 908.70,489.20 908.94,516.53 909.19,510.95 909.43,524.53 909.67,528.26 909.91,503.22 910.15,485.63 910.39,523.96 910.63,536.48 910.86,528.06 911.10,520.43 911.34,541.52 911.58,530.97 911.81,540.70 912.05,447.71 912.29,536.59 912.52,486.31 912.76,433.36 912.99,480.22 913.23,495.22 913.46,460.89 913.69,519.95 913.93,521.03 914.16,524.55 914.39,516.32 914.62,501.10 914.85,480.73 915.09,537.38 915.32,510.88 915.55,537.45 915.78,523.23 916.01,518.40 916.23,536.54 916.46,510.23 916.69,529.35 916.92,491.58 917.15,477.92 917.37,534.65 917.60,512.29 917.83,541.05 918.05,502.74 918.28,515.77 918.50,514.49 918.73,529.91 918.95,526.85 919.18,509.30 919.40,496.90 919.62,524.62 919.84,522.07 920.07,483.89 920.29,538.80 920.51,511.71 920.73,510.28 920.95,527.47 921.17,530.15 921.39,540.14 921.61,525.26 921.83,501.42 922.05,498.19 922.27,479.89 922.49,521.86 922.71,517.81 922.92,480.02 923.14,512.61 923.36,522.60 923.58,495.02 923.79,521.15 924.01,529.67 924.22,539.47 924.44,535.08 924.65,532.13 924.87,456.30 925.08,476.59 925.29,532.26 925.51,492.47 925.72,512.59 925.93,529.47 926.15,517.73 926.36,542.50 926.57,512.95 926.78,492.02 926.99,493.71 927.20,510.06 927.41,517.05 927.62,520.75 927.83,513.40 928.04,540.70 928.25,485.94 928.46,508.26 928.67,538.74 928.88,538.46 929.08,532.81 929.29,485.63 929.50,519.07 929.70,529.89 929.91,520.87 930.12,516.03 930.32,547.88 930.53,532.04 930.73,431.42 930.94,486.86 931.14,507.32 931.35,529.89 931.55,483.20 931.75,513.22 931.96,562.53 932.16,560.39 932.36,540.28 932.56,494.48 932.77,551.72 932.97,534.86 933.17,484.60 933.37,521.23 933.57,498.10 933.77,552.08 933.97,513.93 934.17,540.17 934.37,523.96 934.57,522.24 934.77,477.78 934.97,538.70 935.16,514.34 935.36,544.69 935.56,513.59 935.76,482.53 935.95,529.85 936.15,556.22 936.35,509.74 936.54,534.20 936.74,518.89 936.93,510.73 937.13,539.34 937.32,468.39 937.52,512.50 937.71,523.29 937.91,505.22 938.10,535.37 938.30,533.39 938.49,518.53 938.68,502.38 938.87,518.94 939.07,516.85 939.26,562.16 939.45,530.94 939.64,514.50 939.83,489.25 940.02,496.88 940.22,532.98 940.41,519.58 940.60,549.62 940.79,536.66 940.98,505.14 941.16,545.76 941.35,492.26 941.54,506.81 941.73,509.27 941.92,540.18 942.11,502.54 942.30,519.42 942.48,510.55 942.67,500.22 942.86,490.74 943.04,537.11 943.23,479.09 943.42,514.19 943.60,535.62 943.79,530.52 943.97,538.88 944.16,519.86 944.34,529.13 944.53,499.03 944.71,499.49 944.90,544.21 945.08,542.68 945.26,527.73 945.45,519.68 945.63,563.73 945.81,518.30 945.99,550.63 946.18,488.05 946.36,538.48 946.54,509.25 946.72,521.66 946.90,506.72 947.08,534.22 947.27,462.66 947.45,541.31 947.63,510.54 947.81,536.80 947.99,523.75 948.17,510.59 948.34,527.58 948.52,504.04 948.70,504.79 948.88,509.67 949.06,522.35 949.24,536.14 949.42,510.73 949.59,526.82 949.77,513.16 949.95,519.57 950.12,500.63 950.30,533.77 950.48,491.96 950.65,519.02 950.83,514.23 951.00,516.72 951.18,528.28 951.36,514.38 951.53,480.00 951.71,477.70 951.88,535.29 952.05,544.49 952.23,524.28 952.40,488.62 952.58,515.82 952.75,490.07 952.92,524.27 953.09,505.91 953.27,512.93 953.44,488.09 953.61,542.33 953.78,521.94 953.96,516.58 954.13,544.33 954.30,547.32 954.47,502.67 954.64,536.63 954.81,562.80 954.98,478.46 955.15,507.72 955.32,487.45 955.49,539.63 955.66,508.68 955.83,538.39 956.00,482.68"/>
<line x1="836" y1="68" x2="858" y2="68" stroke="#1f77b4" stroke-width="2"/>
<text x="864" y="72" font-family="Arial" font-size="11">L0</text>
</svg>