<svg xmlns="http://www.w3.org/2000/svg" width="980" height="660" viewBox="0 0 980 660">
<rect width="100%" height="100%" fill="white"/>
<text x="490" y="28" text-anchor="middle" font-family="Arial" font-size="18">q: feature activation frequency</text>
<line x1="82" y1="54" x2="82" y2="588" stroke="#333"/>
<line x1="82" y1="588" x2="956" y2="588" stroke="#333"/>
<text x="490" y="638" text-anchor="middle" font-family="Arial" font-size="13">feature rank by activation frequency</text>
<text transform="translate(20,330) rotate(-90)" text-anchor="middle" font-family="Arial" font-size="13">activation frequency</text>
<line x1="82.0" y1="54" x2="82.0" y2="588" stroke="#ddd" stroke-width="0.8"/>
<line x1="82" y1="54.0" x2="956" y2="54.0" stroke="#ddd" stroke-width="0.8"/>
<line x1="300.5" y1="54" x2="300.5" y2="588" stroke="#ddd" stroke-width="0.8"/>
<line x1="82" y1="187.5" x2="956" y2="187.5" stroke="#ddd" stroke-width="0.8"/>
<line x1="519.0" y1="54" x2="519.0" y2="588" stroke="#ddd" stroke-width="0.8"/>
<line x1="82" y1="321.0" x2="956" y2="321.0" stroke="#ddd" stroke-width="0.8"/>
<line x1="737.5" y1="54" x2="737.5" y2="588" stroke="#ddd" stroke-width="0.8"/>
<line x1="82" y1="454.5" x2="956" y2="454.5" stroke="#ddd" stroke-width="0.8"/>
<line x1="956.0" y1="54" x2="956.0" y2="588" stroke="#ddd" stroke-width="0.8"/>
<line x1="82" y1="588.0" x2="956" y2="588.0" stroke="#ddd" stroke-width="0.8"/>
<polyline fill="none" stroke="#1f77b4" stroke-width="1.3" opacity="0.75" points="82.00,78.27 173.02,78.27 226.27,87.31 264.05,92.06 293.35,102.07 317.30,107.36 337.54,107.36 355.07,112.85 370.54,118.57 384.38,137.27 396.89,144.11 408.32,144.11 418.83,151.29 428.56,151.29 437.62,151.29 446.10,158.87 454.06,158.87 461.57,158.87 468.67,166.87 475.40,166.87 481.81,166.87 487.92,166.87 493.76,175.36 499.35,175.36 504.71,184.40 509.86,184.40 514.81,184.40 519.59,194.07 524.20,194.07 528.65,194.07 532.96,194.07 537.12,194.07 541.17,194.07 545.09,194.07 548.89,204.45 552.59,204.45 556.19,204.45 559.69,204.45 563.10,204.45 566.43,204.45 569.67,204.45 572.84,204.45 575.93,204.45 578.94,204.45 581.90,204.45 584.78,215.66 587.61,215.66 590.37,215.66 593.08,215.66 595.73,215.66 598.33,215.66 600.88,215.66 603.38,215.66 605.84,215.66 608.25,215.66 610.61,215.66 612.94,215.66 615.22,215.66 617.47,215.66 619.67,227.85 621.84,227.85 623.98,227.85 626.08,227.85 628.15,227.85 630.19,227.85 632.19,227.85 634.17,227.85 636.11,227.85 638.03,241.20 639.92,241.20 641.78,241.20 643.62,241.20 645.43,241.20 647.21,241.20 648.98,241.20 650.72,241.20 652.43,241.20 654.13,241.20 655.80,241.20 657.45,241.20 659.08,241.20 660.70,241.20 662.29,241.20 663.86,241.20 665.41,241.20 666.95,241.20 668.47,241.20 669.97,241.20 671.45,241.20 672.92,255.96 674.37,255.96 675.81,255.96 677.23,255.96 678.63,255.96 680.02,255.96 681.40,255.96 682.76,255.96 684.10,255.96 685.44,255.96 686.76,255.96 688.06,255.96 689.36,255.96 690.64,255.96 691.91,255.96 693.16,255.96 694.41,255.96 695.64,255.96 696.86,255.96 698.07,255.96 699.27,255.96 700.46,255.96 701.64,255.96 702.81,255.96 703.96,255.96 705.11,255.96 706.25,255.96 707.37,255.96 708.49,255.96 709.60,255.96 710.70,255.96 711.79,255.96 712.87,255.96 713.94,255.96 715.00,255.96 716.06,255.96 717.11,272.45 718.14,272.45 719.17,272.45 720.20,272.45 721.21,272.45 722.22,272.45 723.22,272.45 724.21,272.45 725.19,272.45 726.17,272.45 727.14,272.45 728.10,272.45 729.05,272.45 730.00,272.45 730.94,272.45 731.88,272.45 732.80,272.45 733.73,272.45 734.64,272.45 735.55,272.45 736.45,272.45 737.35,272.45 738.24,272.45 739.12,272.45 740.00,272.45 740.87,272.45 741.74,272.45 742.60,272.45 743.46,272.45 744.31,272.45 745.15,272.45 745.99,272.45 746.83,272.45 747.65,272.45 748.48,272.45 749.30,272.45 750.11,291.16 750.92,291.16 751.72,291.16 752.52,291.16 753.31,291.16 754.10,291.16 754.88,291.16 755.66,291.16 756.44,291.16 757.21,291.16 757.97,291.16 758.74,291.16 759.49,291.16 760.25,291.16 760.99,291.16 761.74,291.16 762.48,291.16 763.21,291.16 763.95,291.16 764.67,291.16 765.40,291.16 766.12,291.16 766.83,291.16 767.54,291.16 768.25,291.16 768.96,291.16 769.66,291.16 770.35,291.16 771.05,291.16 771.73,291.16 772.42,291.16 773.10,291.16 773.78,291.16 774.46,291.16 775.13,291.16 775.80,291.16 776.46,291.16 777.12,291.16 777.78,291.16 778.44,291.16 779.09,291.16 779.74,291.16 780.38,291.16 781.02,291.16 781.66,291.16 782.30,312.75 782.93,312.75 783.56,312.75 784.19,312.75 784.81,312.75 785.43,312.75 786.05,312.75 786.67,312.75 787.28,312.75 787.89,312.75 788.49,312.75 789.10,312.75 789.70,312.75 790.30,312.75 790.89,312.75 791.49,312.75 792.08,312.75 792.66,312.75 793.25,312.75 793.83,312.75 794.41,312.75 794.99,312.75 795.56,312.75 796.13,312.75 796.70,312.75 797.27,312.75 797.84,312.75 798.40,312.75 798.96,312.75 799.52,312.75 800.07,312.75 800.62,312.75 801.18,312.75 801.72,312.75 802.27,312.75 802.81,312.75 803.36,312.75 803.89,312.75 804.43,312.75 804.97,312.75 805.50,312.75 806.03,312.75 806.56,312.75 807.08,312.75 807.61,312.75 808.13,312.75 808.65,312.75 809.17,312.75 809.69,312.75 810.20,312.75 810.71,312.75 811.22,312.75 811.73,312.75 812.24,312.75 812.74,312.75 813.24,312.75 813.74,312.75 814.24,338.29 814.74,338.29 815.23,338.29 815.72,338.29 816.21,338.29 816.70,338.29 817.19,338.29 817.68,338.29 818.16,338.29 818.64,338.29 819.12,338.29 819.60,338.29 820.08,338.29 820.55,338.29 821.03,338.29 821.50,338.29 821.97,338.29 822.44,338.29 822.90,338.29 823.37,338.29 823.83,338.29 824.29,338.29 824.75,338.29 825.21,338.29 825.67,338.29 826.12,338.29 826.58,338.29 827.03,338.29 827.48,338.29 827.93,338.29 828.37,338.29 828.82,338.29 829.26,338.29 829.71,338.29 830.15,338.29 830.59,338.29 831.03,338.29 831.46,338.29 831.90,338.29 832.33,338.29 832.77,338.29 833.20,338.29 833.63,338.29 834.06,338.29 834.48,338.29 834.91,338.29 835.33,338.29 835.76,338.29 836.18,338.29 836.60,338.29 837.02,338.29 837.43,338.29 837.85,338.29 838.27,338.29 838.68,338.29 839.09,338.29 839.50,338.29 839.91,338.29 840.32,338.29 840.73,338.29 841.13,338.29 841.54,338.29 841.94,338.29 842.34,338.29 842.75,338.29 843.14,338.29 843.54,338.29 843.94,338.29 844.34,338.29 844.73,338.29 845.13,338.29 845.52,338.29 845.91,338.29 846.30,338.29 846.69,338.29 847.08,369.55 847.46,369.55 847.85,369.55 848.23,369.55 848.62,369.55 849.00,369.55 849.38,369.55 849.76,369.55 850.14,369.55 850.52,369.55 850.89,369.55 851.27,369.55 851.65,369.55 852.02,369.55 852.39,369.55 852.76,369.55 853.13,369.55 853.50,369.55 853.87,369.55 854.24,369.55 854.60,369.55 854.97,369.55 855.33,369.55 855.70,369.55 856.06,369.55 856.42,369.55 856.78,369.55 857.14,369.55 857.50,369.55 857.86,369.55 858.21,369.55 858.57,369.55 858.92,369.55 859.28,369.55 859.63,369.55 859.98,369.55 860.33,369.55 860.68,369.55 861.03,369.55 861.38,369.55 861.72,369.55 862.07,369.55 862.42,369.55 862.76,369.55 863.10,369.55 863.45,369.55 863.79,369.55 864.13,369.55 864.47,369.55 864.81,369.55 865.14,369.55 865.48,369.55 865.82,369.55 866.15,369.55 866.49,369.55 866.82,369.55 867.15,369.55 867.49,369.55 867.82,369.55 868.15,369.55 868.48,369.55 868.81,369.55 869.13,369.55 869.46,369.55 869.79,369.55 870.11,369.55 870.44,369.55 870.76,369.55 871.08,369.55 871.41,369.55 871.73,369.55 872.05,369.55 872.37,369.55 872.69,369.55 873.01,369.55 873.32,369.55 873.64,369.55 873.96,369.55 874.27,369.55 874.59,369.55 874.90,369.55 875.21,369.55 875.53,369.55 875.84,369.55 876.15,369.55 876.46,369.55 876.77,369.55 877.08,369.55 877.38,369.55 877.69,409.84 878.00,409.84 878.30,409.84 878.61,409.84 878.91,409.84 879.22,409.84 879.52,409.84 879.82,409.84 880.12,409.84 880.42,409.84 880.72,409.84 881.02,409.84 881.32,409.84 881.62,409.84 881.92,409.84 882.21,409.84 882.51,409.84 882.81,409.84 883.10,409.84 883.39,409.84 883.69,409.84 883.98,409.84 884.27,409.84 884.56,409.84 884.86,409.84 885.15,409.84 885.44,409.84 885.72,409.84 886.01,409.84 886.30,409.84 886.59,409.84 886.87,409.84 887.16,409.84 887.44,409.84 887.73,409.84 888.01,409.84 888.30,409.84 888.58,409.84 888.86,409.84 889.14,409.84 889.42,409.84 889.70,409.84 889.98,409.84 890.26,409.84 890.54,409.84 890.82,409.84 891.10,409.84 891.37,409.84 891.65,409.84 891.93,409.84 892.20,409.84 892.47,409.84 892.75,409.84 893.02,409.84 893.29,409.84 893.57,409.84 893.84,409.84 894.11,409.84 894.38,409.84 894.65,409.84 894.92,409.84 895.19,409.84 895.46,409.84 895.72,409.84 895.99,409.84 896.26,409.84 896.52,409.84 896.79,409.84 897.05,409.84 897.32,409.84 897.58,409.84 897.85,409.84 898.11,409.84 898.37,409.84 898.63,409.84 898.89,409.84 899.16,409.84 899.42,409.84 899.68,409.84 899.94,409.84 900.19,409.84 900.45,409.84 900.71,409.84 900.97,409.84 901.22,409.84 901.48,409.84 901.74,409.84 901.99,409.84 902.25,466.64 902.50,466.64 902.75,466.64 903.01,466.64 903.26,466.64 903.51,466.64 903.76,466.64 904.02,466.64 904.27,466.64 904.52,466.64 904.77,466.64 905.02,466.64 905.26,466.64 905.51,466.64 905.76,466.64 906.01,466.64 906.26,466.64 906.50,466.64 906.75,466.64 906.99,466.64 907.24,466.64 907.48,466.64 907.73,466.64 907.97,466.64 908.22,466.64 908.46,466.64 908.70,466.64 908.94,466.64 909.19,466.64 909.43,466.64 909.67,466.64 909.91,466.64 910.15,466.64 910.39,466.64 910.63,466.64 910.86,466.64 911.10,466.64 911.34,466.64 911.58,466.64 911.81,466.64 912.05,466.64 912.29,466.64 912.52,466.64 912.76,466.64 912.99,466.64 913.23,466.64 913.46,466.64 913.69,466.64 913.93,466.64 914.16,466.64 914.39,466.64 914.62,466.64 914.85,466.64 915.09,466.64 915.32,466.64 915.55,466.64 915.78,466.64 916.01,466.64 916.23,466.64 916.46,466.64 916.69,466.64 916.92,466.64 917.15,466.64 917.37,466.64 917.60,466.64 917.83,466.64 918.05,466.64 918.28,466.64 918.50,466.64 918.73,466.64 918.95,466.64 919.18,466.64 919.40,466.64 919.62,466.64 919.84,466.64 920.07,466.64 920.29,466.64 920.51,466.64 920.73,466.64 920.95,466.64 921.17,466.64 921.39,466.64 921.61,466.64 921.83,466.64 922.05,466.64 922.27,466.64 922.49,466.64 922.71,466.64 922.92,466.64 923.14,466.64 923.36,466.64 923.58,466.64 923.79,466.64 924.01,466.64 924.22,466.64 924.44,466.64 924.65,466.64 924.87,466.64 925.08,466.64 925.29,466.64 925.51,466.64 925.72,466.64 925.93,466.64 926.15,466.64 926.36,466.64 926.57,466.64 926.78,466.64 926.99,466.64 927.20,466.64 927.41,466.64 927.62,466.64 927.83,466.64 928.04,466.64 928.25,466.64 928.46,466.64 928.67,466.64 928.88,466.64 929.08,466.64 929.29,466.64 929.50,466.64 929.70,563.73 929.91,563.73 930.12,563.73 930.32,563.73 930.53,563.73 930.73,563.73 930.94,563.73 931.14,563.73 931.35,563.73 931.55,563.73 931.75,563.73 931.96,563.73 932.16,563.73 932.36,563.73 932.56,563.73 932.77,563.73 932.97,563.73 933.17,563.73 933.37,563.73 933.57,563.73 933.77,563.73 933.97,563.73 934.17,563.73 934.37,563.73 934.57,563.73 934.77,563.73 934.97,563.73 935.16,563.73 935.36,563.73 935.56,563.73 935.76,563.73 935.95,563.73 936.15,563.73 936.35,563.73 936.54,563.73 936.74,563.73 936.93,563.73 937.13,563.73 937.32,563.73 937.52,563.73 937.71,563.73 937.91,563.73 938.10,563.73 938.30,563.73 938.49,563.73 938.68,563.73 938.87,563.73 939.07,563.73 939.26,563.73 939.45,563.73 939.64,563.73 939.83,563.73 940.02,563.73 940.22,563.73 940.41,563.73 940.60,563.73 940.79,563.73 940.98,563.73 941.16,563.73 941.35,563.73 941.54,563.73 941.73,563.73 941.92,563.73 942.11,563.73 942.30,563.73 942.48,563.73 942.67,563.73 942.86,563.73 943.04,563.73 943.23,563.73 943.42,563.73 943.60,563.73 943.79,563.73 943.97,563.73 944.16,563.73 944.34,563.73 944.53,563.73 944.71,563.73 944.90,563.73 945.08,563.73 945.26,563.73 945.45,563.73 945.63,563.73 945.81,563.73 945.99,563.73 946.18,563.73 946.36,563.73 946.54,563.73 946.72,563.73 946.90,563.73 947.08,563.73 947.27,563.73 947.45,563.73 947.63,563.73 947.81,563.73 947.99,563.73 948.17,563.73 948.34,563.73 948.52,563.73 948.70,563.73 948.88,563.73 949.06,563.73 949.24,563.73 949.42,563.73 949.59,563.73 949.77,563.73 949.95,563.73 950.12,563.73 950.30,563.73 950.48,563.73 950.65,563.73 950.83,563.73 951.00,563.73 951.18,563.73 951.36,563.73 951.53,563.73 951.71,563.73 951.88,563.73 952.05,563.73 952.23,563.73 952.40,563.73 952.58,563.73 952.75,563.73 952.92,563.73 953.09,563.73 953.27,563.73 953.44,563.73 953.61,563.73 953.78,563.73 953.96,563.73 954.13,563.73 954.30,563.73 954.47,563.73 954.64,563.73 954.81,563.73 954.98,563.73 955.15,563.73 955.32,563.73 955.49,563.73 955.66,563.73 955.83,563.73 956.00,563.73"/>
<line x1="836" y1="68" x2="858" y2="68" stroke="#1f77b4" stroke-width="2"/>
<text x="864" y="72" font-family="Arial" font-size="11">L0</text>
</svg>