<svg xmlns="http://www.w3.org/2000/svg" width="980" height="660" viewBox="0 0 980 660">
<rect width="100%" height="100%" fill="white"/>
<text x="490" y="28" text-anchor="middle" font-family="Arial" font-size="18">v: avg |scaled activation| on active tokens</text>
<line x1="82" y1="54" x2="82" y2="588" stroke="#333"/>
<line x1="82" y1="588" x2="956" y2="588" stroke="#333"/>
<text x="490" y="638" text-anchor="middle" font-family="Arial" font-size="13">feature rank by activation frequency</text>
<text transform="translate(20,330) rotate(-90)" text-anchor="middle" font-family="Arial" font-size="13">avg |a_i| when active</text>
<line x1="82.0" y1="54" x2="82.0" y2="588" stroke="#ddd" stroke-width="0.8"/>
<line x1="82" y1="54.0" x2="956" y2="54.0" stroke="#ddd" stroke-width="0.8"/>
<line x1="300.5" y1="54" x2="300.5" y2="588" stroke="#ddd" stroke-width="0.8"/>
<line x1="82" y1="187.5" x2="956" y2="187.5" stroke="#ddd" stroke-width="0.8"/>
<line x1="519.0" y1="54" x2="519.0" y2="588" stroke="#ddd" stroke-width="0.8"/>
<line x1="82" y1="321.0" x2="956" y2="321.0" stroke="#ddd" stroke-width="0.8"/>
<line x1="737.5" y1="54" x2="737.5" y2="588" stroke="#ddd" stroke-width="0.8"/>
<line x1="82" y1="454.5" x2="956" y2="454.5" stroke="#ddd" stroke-width="0.8"/>
<line x1="956.0" y1="54" x2="956.0" y2="588" stroke="#ddd" stroke-width="0.8"/>
<line x1="82" y1="588.0" x2="956" y2="588.0" stroke="#ddd" stroke-width="0.8"/>
<polyline fill="none" stroke="#1f77b4" stroke-width="1.3" opacity="0.75" points="82.00,78.27 172.12,168.02 224.83,213.39 262.23,393.41 291.24,335.15 314.94,390.88 334.99,340.91 352.35,327.23 367.66,353.99 381.36,317.81 393.75,404.50 405.06,310.96 415.47,317.77 425.10,382.96 434.07,392.31 442.46,365.81 450.34,369.84 457.77,376.91 464.80,416.36 471.47,371.16 477.81,352.84 483.86,376.05 489.64,347.53 495.17,338.79 500.48,312.51 505.58,356.46 510.49,361.96 515.22,433.32 519.78,343.26 524.19,415.13 528.45,389.15 532.58,324.33 536.58,373.94 540.46,381.79 544.23,289.99 547.89,353.76 551.45,405.62 554.92,336.10 558.29,367.17 561.59,375.48 564.80,349.23 567.93,420.85 570.99,359.14 573.98,409.15 576.90,396.38 579.76,305.46 582.55,405.51 585.29,398.45 587.97,392.87 590.60,361.10 593.17,369.31 595.70,280.61 598.17,354.41 600.60,420.60 602.99,430.59 605.33,366.31 607.63,383.84 609.89,375.17 612.12,391.46 614.30,343.20 616.45,361.27 618.56,393.34 620.64,413.26 622.69,377.44 624.71,407.64 626.69,402.95 628.65,359.13 630.57,430.61 632.47,378.54 634.34,349.14 636.19,398.94 638.00,292.33 639.80,396.87 641.57,351.10 643.31,401.56 645.03,359.96 646.73,288.63 648.41,365.48 650.07,374.86 651.70,345.00 653.32,383.45 654.91,411.20 656.49,324.19 658.04,298.18 659.58,383.42 661.10,329.23 662.61,339.83 664.09,404.67 665.56,387.77 667.01,394.52 668.45,412.70 669.87,375.12 671.28,378.91 672.67,389.35 674.04,435.77 675.40,321.65 676.75,364.42 678.09,362.64 679.41,428.94 680.71,292.65 682.01,348.18 683.29,342.73 684.55,425.94 685.81,381.73 687.06,335.73 688.29,377.82 689.51,390.00 690.72,246.82 691.92,364.76 693.10,361.40 694.28,341.85 695.45,355.19 696.60,346.41 697.75,384.40 698.88,449.73 700.01,289.17 701.12,360.89 702.23,300.79 703.33,430.57 704.42,348.55 705.49,392.84 706.56,445.98 707.63,352.68 708.68,357.49 709.72,357.03 710.76,394.96 711.79,322.39 712.81,385.89 713.82,404.70 714.82,369.96 715.82,403.92 716.81,319.84 717.79,382.87 718.76,266.43 719.73,326.01 720.69,310.76 721.64,417.92 722.59,386.74 723.52,381.35 724.46,402.84 725.38,412.74 726.30,404.46 727.21,438.12 728.12,421.58 729.02,455.75 729.91,389.56 730.80,389.41 731.68,421.59 732.56,286.51 733.43,318.51 734.29,385.55 735.15,445.59 736.00,394.45 736.85,349.77 737.69,373.10 738.52,380.84 739.36,409.07 740.18,322.96 741.00,425.02 741.82,403.29 742.63,427.07 743.43,435.69 744.23,370.71 745.03,315.91 745.82,427.10 746.60,337.80 747.38,349.72 748.16,335.22 748.93,350.60 749.70,432.45 750.46,340.08 751.22,370.41 751.97,365.05 752.72,406.06 753.47,352.89 754.21,391.55 754.94,386.15 755.68,422.54 756.41,347.51 757.13,412.38 757.85,389.92 758.57,412.12 759.28,337.69 759.99,417.75 760.69,372.20 761.39,405.70 762.09,301.35 762.78,398.34 763.47,434.05 764.16,280.09 764.84,425.36 765.52,410.90 766.20,368.55 766.87,399.27 767.54,306.27 768.20,338.06 768.86,393.28 769.52,376.74 770.18,381.13 770.83,336.98 771.48,370.05 772.12,376.97 772.76,359.91 773.40,386.85 774.04,393.57 774.67,365.26 775.30,434.45 775.93,431.28 776.55,368.69 777.17,416.56 777.79,360.83 778.40,395.61 779.01,398.15 779.62,363.99 780.23,403.67 780.83,428.12 781.43,369.99 782.03,406.97 782.63,415.34 783.22,433.77 783.81,398.31 784.39,435.15 784.98,394.24 785.56,358.90 786.14,403.81 786.72,376.49 787.29,338.42 787.86,402.79 788.43,346.91 789.00,421.87 789.56,374.25 790.12,423.12 790.68,406.11 791.24,457.05 791.79,368.41 792.35,439.88 792.90,368.82 793.44,403.39 793.99,326.15 794.53,380.47 795.07,378.10 795.61,355.22 796.15,353.06 796.68,329.82 797.21,401.99 797.74,450.59 798.27,399.52 798.79,335.71 799.32,432.34 799.84,410.55 800.36,474.51 800.87,409.28 801.39,355.56 801.90,419.76 802.41,402.95 802.92,344.11 803.43,358.42 803.93,433.24 804.44,392.70 804.94,399.04 805.44,389.68 805.93,452.16 806.43,366.11 806.92,451.55 807.41,391.71 807.90,324.45 808.39,380.92 808.88,436.50 809.36,406.68 809.84,400.82 810.32,473.85 810.80,407.96 811.28,458.80 811.76,414.33 812.23,379.85 812.70,387.46 813.17,360.24 813.64,417.26 814.11,426.29 814.57,326.14 815.03,359.92 815.50,341.88 815.96,361.60 816.42,380.21 816.87,381.69 817.33,378.84 817.78,318.95 818.23,366.45 818.68,338.91 819.13,388.83 819.58,399.23 820.03,377.31 820.47,398.77 820.91,375.54 821.36,351.89 821.80,444.83 822.23,346.66 822.67,398.84 823.11,367.98 823.54,311.83 823.97,445.61 824.40,350.62 824.83,414.63 825.26,351.44 825.69,391.11 826.12,401.18 826.54,382.17 826.96,428.98 827.38,373.83 827.80,406.11 828.22,350.86 828.64,381.29 829.06,416.36 829.47,306.09 829.88,437.38 830.30,380.32 830.71,400.20 831.12,374.30 831.52,359.19 831.93,465.23 832.34,446.17 832.74,407.85 833.14,446.76 833.55,382.61 833.95,378.24 834.35,396.33 834.74,367.20 835.14,421.14 835.54,346.22 835.93,425.63 836.33,390.89 836.72,386.28 837.11,342.07 837.50,433.37 837.89,353.59 838.27,360.95 838.66,358.05 839.05,411.23 839.43,431.65 839.81,369.50 840.20,459.09 840.58,363.55 840.96,345.35 841.33,391.26 841.71,402.48 842.09,410.66 842.46,357.25 842.84,350.19 843.21,419.51 843.58,375.73 843.95,264.98 844.32,292.38 844.69,440.19 845.06,396.41 845.43,346.08 845.79,385.49 846.16,381.94 846.52,336.79 846.88,351.74 847.24,421.04 847.61,427.98 847.96,422.01 848.32,445.27 848.68,363.56 849.04,417.27 849.39,400.40 849.75,401.91 850.10,367.58 850.45,403.01 850.81,365.87 851.16,351.06 851.51,451.60 851.86,401.20 852.20,322.68 852.55,370.03 852.90,375.39 853.24,491.13 853.59,426.91 853.93,378.95 854.27,319.55 854.62,357.36 854.96,337.24 855.30,419.85 855.63,447.05 855.97,337.38 856.31,397.79 856.65,319.99 856.98,374.36 857.32,401.71 857.65,369.47 857.98,396.96 858.32,356.62 858.65,420.92 858.98,410.61 859.31,409.77 859.64,452.14 859.96,347.72 860.29,359.80 860.62,366.96 860.94,400.34 861.27,407.86 861.59,383.37 861.91,431.38 862.24,413.51 862.56,337.58 862.88,416.09 863.20,375.66 863.52,429.78 863.83,341.14 864.15,378.89 864.47,408.30 864.79,302.20 865.10,429.22 865.41,436.13 865.73,370.73 866.04,308.71 866.35,411.41 866.66,396.51 866.98,402.78 867.29,428.59 867.59,373.58 867.90,345.87 868.21,436.06 868.52,371.58 868.82,413.41 869.13,399.09 869.43,440.04 869.74,362.53 870.04,439.06 870.34,406.60 870.65,387.92 870.95,432.54 871.25,486.97 871.55,386.92 871.85,369.19 872.15,378.41 872.44,391.16 872.74,289.24 873.04,331.03 873.33,361.13 873.63,392.66 873.92,338.65 874.22,311.24 874.51,334.34 874.80,380.51 875.09,345.64 875.39,357.28 875.68,359.31 875.97,403.35 876.26,354.42 876.54,317.97 876.83,321.39 877.12,378.98 877.41,465.23 877.69,403.95 877.98,365.43 878.26,325.52 878.55,348.38 878.83,410.09 879.11,482.08 879.39,413.98 879.68,402.48 879.96,390.77 880.24,410.61 880.52,459.90 880.80,434.27 881.08,399.67 881.35,365.00 881.63,436.95 881.91,398.27 882.18,409.41 882.46,461.25 882.74,333.11 883.01,437.26 883.28,419.87 883.56,339.57 883.83,432.29 884.10,452.69 884.37,430.31 884.65,359.82 884.92,423.27 885.19,433.78 885.46,519.05 885.72,355.38 885.99,383.73 886.26,377.97 886.53,419.04 886.79,365.68 887.06,371.20 887.33,400.54 887.59,385.98 887.86,446.61 888.12,393.71 888.38,393.13 888.65,360.26 888.91,444.64 889.17,365.39 889.43,475.47 889.69,440.47 889.95,408.82 890.21,420.28 890.47,347.41 890.73,481.12 890.99,424.57 891.25,399.08 891.50,415.20 891.76,377.26 892.02,463.13 892.27,378.31 892.53,463.90 892.78,359.48 893.04,370.77 893.29,314.27 893.54,411.20 893.80,376.23 894.05,394.36 894.30,404.26 894.55,362.52 894.80,302.93 895.05,432.13 895.30,460.31 895.55,400.83 895.80,418.92 896.05,476.79 896.30,429.19 896.54,443.86 896.79,387.80 897.04,460.03 897.28,411.33 897.53,359.04 897.77,317.07 898.02,341.67 898.26,509.55 898.51,387.98 898.75,433.70 898.99,402.68 899.23,347.87 899.48,463.58 899.72,327.12 899.96,442.61 900.20,352.84 900.44,361.42 900.68,378.83 900.92,370.64 901.16,450.37 901.39,388.55 901.63,445.72 901.87,390.76 902.11,387.13 902.34,347.76 902.58,392.94 902.82,421.95 903.05,384.43 903.29,421.51 903.52,360.53 903.75,419.95 903.99,335.92 904.22,375.53 904.45,483.82 904.69,417.55 904.92,299.47 905.15,384.89 905.38,433.24 905.61,367.09 905.84,453.57 906.07,398.65 906.30,406.54 906.53,469.55 906.76,445.53 906.99,434.97 907.22,386.92 907.44,413.42 907.67,483.47 907.90,364.95 908.12,432.57 908.35,340.80 908.57,499.96 908.80,356.23 909.02,368.81 909.25,424.68 909.47,470.51 909.70,426.62 909.92,375.21 910.14,390.28 910.36,325.33 910.59,381.04 910.81,384.01 911.03,470.17 911.25,451.35 911.47,408.43 911.69,483.53 911.91,452.81 912.13,441.28 912.35,429.00 912.57,419.27 912.79,454.06 913.00,415.83 913.22,390.18 913.44,455.68 913.66,474.27 913.87,447.06 914.09,403.24 914.30,440.54 914.52,375.58 914.74,389.65 914.95,395.25 915.16,439.38 915.38,387.76 915.59,453.62 915.81,396.75 916.02,352.52 916.23,415.28 916.44,409.80 916.65,398.16 916.87,413.81 917.08,347.15 917.29,408.35 917.50,498.42 917.71,472.34 917.92,341.96 918.13,438.21 918.34,403.30 918.55,411.80 918.76,430.13 918.96,450.09 919.17,422.51 919.38,446.25 919.59,417.76 919.79,497.69 920.00,462.69 920.21,384.73 920.41,485.92 920.62,424.06 920.82,369.77 921.03,390.81 921.23,375.29 921.44,486.70 921.64,428.31 921.84,387.26 922.05,359.98 922.25,438.64 922.45,478.53 922.65,431.31 922.86,439.84 923.06,406.73 923.26,438.77 923.46,421.76 923.66,372.03 923.86,410.48 924.06,469.06 924.26,342.55 924.46,402.11 924.66,370.21 924.86,495.97 925.06,477.42 925.26,429.88 925.46,472.53 925.65,454.39 925.85,385.03 926.05,443.61 926.24,373.19 926.44,330.29 926.64,413.64 926.83,429.30 927.03,435.54 927.22,432.66 927.42,427.03 927.61,522.12 927.81,409.86 928.00,440.38 928.20,357.41 928.39,413.46 928.58,420.50 928.78,415.27 928.97,361.17 929.16,406.69 929.35,426.49 929.55,417.62 929.74,437.12 929.93,483.20 930.12,417.21 930.31,420.62 930.50,378.06 930.69,430.18 930.88,444.48 931.07,445.77 931.26,460.10 931.45,357.33 931.64,438.50 931.83,417.77 932.01,382.07 932.20,433.19 932.39,477.02 932.58,430.69 932.77,434.89 932.95,361.14 933.14,481.63 933.33,420.26 933.51,417.21 933.70,447.38 933.88,388.92 934.07,429.35 934.25,455.94 934.44,397.87 934.62,467.56 934.81,399.49 934.99,393.61 935.17,384.40 935.36,363.90 935.54,424.73 935.72,467.67 935.91,436.73 936.09,461.84 936.27,361.59 936.45,478.29 936.64,520.25 936.82,440.31 937.00,458.71 937.18,421.34 937.36,467.49 937.54,497.16 937.72,460.38 937.90,466.51 938.08,434.20 938.26,425.24 938.44,436.29 938.62,476.18 938.80,453.08 938.97,476.89 939.15,470.16 939.33,401.69 939.51,475.52 939.69,482.72 939.86,492.02 940.04,446.86 940.22,521.61 940.39,478.23 940.57,433.51 940.75,457.83 940.92,440.87 941.10,478.31 941.27,469.78 941.45,436.28 941.62,428.14 941.80,446.60 941.97,480.73 942.15,470.12 942.32,476.95 942.49,474.98 942.67,448.49 942.84,425.26 943.01,462.08 943.19,451.32 943.36,443.71 943.53,469.04 943.70,475.65 943.87,446.62 944.05,475.77 944.22,487.95 944.39,458.07 944.56,386.62 944.73,421.14 944.90,452.67 945.07,417.20 945.24,546.60 945.41,450.50 945.58,415.96 945.75,453.40 945.92,499.07 946.09,488.70 946.26,456.73 946.43,450.96 946.59,421.65 946.76,487.92 946.93,483.89 947.10,504.73 947.26,479.96 947.43,489.91 947.60,453.21 947.77,439.61 947.93,482.28 948.10,502.97 948.26,423.09 948.43,481.27 948.60,463.30 948.76,483.49 948.93,507.54 949.09,396.89 949.26,540.92 949.42,491.31 949.59,487.92 949.75,519.78 949.91,486.62 950.08,482.35 950.24,449.76 950.41,471.61 950.57,472.47 950.73,467.28 950.89,479.61 951.06,536.85 951.22,475.70 951.38,563.73 951.54,525.74 951.71,404.59 951.87,487.65 952.03,467.90 952.19,479.09 952.35,479.32 952.51,512.67 952.67,502.33 952.83,446.92 952.99,457.74 953.15,563.56 953.31,466.55 953.47,523.69 953.63,327.82 953.79,472.17 953.95,537.19 954.11,502.12 954.27,503.48 954.43,483.06 954.58,552.66 954.74,487.77 954.90,503.60 955.06,560.37 955.22,496.68 955.37,472.33 955.53,548.51 955.69,463.62 955.84,497.96 956.00,501.09"/>
<line x1="836" y1="68" x2="858" y2="68" stroke="#1f77b4" stroke-width="2"/>
<text x="864" y="72" font-family="Arial" font-size="11">L0</text>
</svg>