<svg xmlns="http://www.w3.org/2000/svg" width="980" height="660" viewBox="0 0 980 660">
<rect width="100%" height="100%" fill="white"/>
<text x="490" y="28" text-anchor="middle" font-family="Arial" font-size="18">v: feature activation frequency</text>
<line x1="82" y1="54" x2="82" y2="588" stroke="#333"/>
<line x1="82" y1="588" x2="956" y2="588" stroke="#333"/>
<text x="490" y="638" text-anchor="middle" font-family="Arial" font-size="13">feature rank by activation frequency</text>
<text transform="translate(20,330) rotate(-90)" text-anchor="middle" font-family="Arial" font-size="13">activation frequency</text>
<line x1="82.0" y1="54" x2="82.0" y2="588" stroke="#ddd" stroke-width="0.8"/>
<line x1="82" y1="54.0" x2="956" y2="54.0" stroke="#ddd" stroke-width="0.8"/>
<line x1="300.5" y1="54" x2="300.5" y2="588" stroke="#ddd" stroke-width="0.8"/>
<line x1="82" y1="187.5" x2="956" y2="187.5" stroke="#ddd" stroke-width="0.8"/>
<line x1="519.0" y1="54" x2="519.0" y2="588" stroke="#ddd" stroke-width="0.8"/>
<line x1="82" y1="321.0" x2="956" y2="321.0" stroke="#ddd" stroke-width="0.8"/>
<line x1="737.5" y1="54" x2="737.5" y2="588" stroke="#ddd" stroke-width="0.8"/>
<line x1="82" y1="454.5" x2="956" y2="454.5" stroke="#ddd" stroke-width="0.8"/>
<line x1="956.0" y1="54" x2="956.0" y2="588" stroke="#ddd" stroke-width="0.8"/>
<line x1="82" y1="588.0" x2="956" y2="588.0" stroke="#ddd" stroke-width="0.8"/>
<polyline fill="none" stroke="#1f77b4" stroke-width="1.3" opacity="0.75" points="82.00,78.27 172.12,87.31 224.83,96.98 262.23,102.07 291.24,107.36 314.94,107.36 334.99,107.36 352.35,112.85 367.66,112.85 381.36,112.85 393.75,112.85 405.06,112.85 415.47,112.85 425.10,118.57 434.07,118.57 442.46,118.57 450.34,118.57 457.77,118.57 464.80,118.57 471.47,124.53 477.81,124.53 483.86,124.53 489.64,124.53 495.17,124.53 500.48,124.53 505.58,124.53 510.49,124.53 515.22,124.53 519.78,124.53 524.19,124.53 528.45,124.53 532.58,130.76 536.58,130.76 540.46,130.76 544.23,130.76 547.89,130.76 551.45,130.76 554.92,130.76 558.29,130.76 561.59,130.76 564.80,130.76 567.93,130.76 570.99,130.76 573.98,130.76 576.90,130.76 579.76,130.76 582.55,137.27 585.29,137.27 587.97,137.27 590.60,137.27 593.17,137.27 595.70,137.27 598.17,137.27 600.60,137.27 602.99,137.27 605.33,137.27 607.63,137.27 609.89,137.27 612.12,137.27 614.30,137.27 616.45,137.27 618.56,137.27 620.64,137.27 622.69,137.27 624.71,137.27 626.69,137.27 628.65,137.27 630.57,137.27 632.47,137.27 634.34,137.27 636.19,137.27 638.00,137.27 639.80,137.27 641.57,144.11 643.31,144.11 645.03,144.11 646.73,144.11 648.41,144.11 650.07,144.11 651.70,144.11 653.32,144.11 654.91,144.11 656.49,144.11 658.04,144.11 659.58,144.11 661.10,144.11 662.61,144.11 664.09,144.11 665.56,144.11 667.01,144.11 668.45,144.11 669.87,144.11 671.28,144.11 672.67,144.11 674.04,144.11 675.40,144.11 676.75,144.11 678.09,144.11 679.41,144.11 680.71,144.11 682.01,144.11 683.29,144.11 684.55,144.11 685.81,144.11 687.06,144.11 688.29,144.11 689.51,144.11 690.72,151.29 691.92,151.29 693.10,151.29 694.28,151.29 695.45,151.29 696.60,151.29 697.75,151.29 698.88,151.29 700.01,151.29 701.12,151.29 702.23,151.29 703.33,151.29 704.42,151.29 705.49,151.29 706.56,151.29 707.63,151.29 708.68,151.29 709.72,151.29 710.76,151.29 711.79,151.29 712.81,151.29 713.82,151.29 714.82,151.29 715.82,151.29 716.81,151.29 717.79,151.29 718.76,151.29 719.73,151.29 720.69,151.29 721.64,151.29 722.59,151.29 723.52,158.87 724.46,158.87 725.38,158.87 726.30,158.87 727.21,158.87 728.12,158.87 729.02,158.87 729.91,158.87 730.80,158.87 731.68,158.87 732.56,158.87 733.43,158.87 734.29,158.87 735.15,158.87 736.00,158.87 736.85,158.87 737.69,158.87 738.52,158.87 739.36,158.87 740.18,158.87 741.00,158.87 741.82,158.87 742.63,158.87 743.43,158.87 744.23,158.87 745.03,158.87 745.82,158.87 746.60,158.87 747.38,158.87 748.16,158.87 748.93,158.87 749.70,158.87 750.46,158.87 751.22,158.87 751.97,158.87 752.72,158.87 753.47,158.87 754.21,158.87 754.94,158.87 755.68,158.87 756.41,158.87 757.13,158.87 757.85,158.87 758.57,158.87 759.28,158.87 759.99,158.87 760.69,158.87 761.39,158.87 762.09,158.87 762.78,158.87 763.47,166.87 764.16,166.87 764.84,166.87 765.52,166.87 766.20,166.87 766.87,166.87 767.54,166.87 768.20,166.87 768.86,166.87 769.52,166.87 770.18,166.87 770.83,166.87 771.48,166.87 772.12,166.87 772.76,166.87 773.40,166.87 774.04,166.87 774.67,166.87 775.30,166.87 775.93,166.87 776.55,166.87 777.17,166.87 777.79,166.87 778.40,166.87 779.01,166.87 779.62,166.87 780.23,166.87 780.83,166.87 781.43,166.87 782.03,166.87 782.63,166.87 783.22,166.87 783.81,166.87 784.39,166.87 784.98,166.87 785.56,166.87 786.14,166.87 786.72,166.87 787.29,166.87 787.86,166.87 788.43,166.87 789.00,166.87 789.56,166.87 790.12,166.87 790.68,166.87 791.24,166.87 791.79,166.87 792.35,166.87 792.90,166.87 793.44,166.87 793.99,166.87 794.53,166.87 795.07,166.87 795.61,175.36 796.15,175.36 796.68,175.36 797.21,175.36 797.74,175.36 798.27,175.36 798.79,175.36 799.32,175.36 799.84,175.36 800.36,175.36 800.87,175.36 801.39,175.36 801.90,175.36 802.41,175.36 802.92,175.36 803.43,175.36 803.93,175.36 804.44,175.36 804.94,175.36 805.44,175.36 805.93,175.36 806.43,175.36 806.92,175.36 807.41,175.36 807.90,175.36 808.39,175.36 808.88,175.36 809.36,175.36 809.84,175.36 810.32,175.36 810.80,175.36 811.28,175.36 811.76,175.36 812.23,175.36 812.70,175.36 813.17,175.36 813.64,175.36 814.11,175.36 814.57,175.36 815.03,175.36 815.50,175.36 815.96,175.36 816.42,175.36 816.87,175.36 817.33,175.36 817.78,175.36 818.23,175.36 818.68,175.36 819.13,175.36 819.58,175.36 820.03,175.36 820.47,175.36 820.91,175.36 821.36,175.36 821.80,175.36 822.23,175.36 822.67,175.36 823.11,175.36 823.54,175.36 823.97,175.36 824.40,175.36 824.83,175.36 825.26,175.36 825.69,184.40 826.12,184.40 826.54,184.40 826.96,184.40 827.38,184.40 827.80,184.40 828.22,184.40 828.64,184.40 829.06,184.40 829.47,184.40 829.88,184.40 830.30,184.40 830.71,184.40 831.12,184.40 831.52,184.40 831.93,184.40 832.34,184.40 832.74,184.40 833.14,184.40 833.55,184.40 833.95,184.40 834.35,184.40 834.74,184.40 835.14,184.40 835.54,184.40 835.93,184.40 836.33,184.40 836.72,184.40 837.11,184.40 837.50,184.40 837.89,184.40 838.27,184.40 838.66,184.40 839.05,184.40 839.43,184.40 839.81,184.40 840.20,184.40 840.58,184.40 840.96,184.40 841.33,184.40 841.71,184.40 842.09,184.40 842.46,184.40 842.84,184.40 843.21,184.40 843.58,184.40 843.95,184.40 844.32,194.07 844.69,194.07 845.06,194.07 845.43,194.07 845.79,194.07 846.16,194.07 846.52,194.07 846.88,194.07 847.24,194.07 847.61,194.07 847.96,194.07 848.32,194.07 848.68,194.07 849.04,194.07 849.39,194.07 849.75,194.07 850.10,194.07 850.45,194.07 850.81,194.07 851.16,194.07 851.51,194.07 851.86,194.07 852.20,194.07 852.55,194.07 852.90,194.07 853.24,194.07 853.59,194.07 853.93,194.07 854.27,194.07 854.62,194.07 854.96,194.07 855.30,194.07 855.63,194.07 855.97,194.07 856.31,194.07 856.65,194.07 856.98,194.07 857.32,194.07 857.65,194.07 857.98,194.07 858.32,194.07 858.65,194.07 858.98,194.07 859.31,194.07 859.64,194.07 859.96,194.07 860.29,194.07 860.62,194.07 860.94,194.07 861.27,194.07 861.59,194.07 861.91,194.07 862.24,194.07 862.56,194.07 862.88,194.07 863.20,194.07 863.52,194.07 863.83,194.07 864.15,194.07 864.47,194.07 864.79,204.45 865.10,204.45 865.41,204.45 865.73,204.45 866.04,204.45 866.35,204.45 866.66,204.45 866.98,204.45 867.29,204.45 867.59,204.45 867.90,204.45 868.21,204.45 868.52,204.45 868.82,204.45 869.13,204.45 869.43,204.45 869.74,204.45 870.04,204.45 870.34,204.45 870.65,204.45 870.95,204.45 871.25,204.45 871.55,204.45 871.85,204.45 872.15,204.45 872.44,204.45 872.74,204.45 873.04,204.45 873.33,204.45 873.63,204.45 873.92,204.45 874.22,204.45 874.51,204.45 874.80,204.45 875.09,204.45 875.39,204.45 875.68,204.45 875.97,204.45 876.26,204.45 876.54,204.45 876.83,204.45 877.12,204.45 877.41,204.45 877.69,204.45 877.98,204.45 878.26,204.45 878.55,215.66 878.83,215.66 879.11,215.66 879.39,215.66 879.68,215.66 879.96,215.66 880.24,215.66 880.52,215.66 880.80,215.66 881.08,215.66 881.35,215.66 881.63,215.66 881.91,215.66 882.18,215.66 882.46,215.66 882.74,215.66 883.01,215.66 883.28,215.66 883.56,215.66 883.83,215.66 884.10,215.66 884.37,215.66 884.65,215.66 884.92,215.66 885.19,215.66 885.46,215.66 885.72,215.66 885.99,215.66 886.26,215.66 886.53,215.66 886.79,215.66 887.06,215.66 887.33,215.66 887.59,215.66 887.86,215.66 888.12,215.66 888.38,215.66 888.65,215.66 888.91,215.66 889.17,215.66 889.43,215.66 889.69,215.66 889.95,215.66 890.21,215.66 890.47,215.66 890.73,227.85 890.99,227.85 891.25,227.85 891.50,227.85 891.76,227.85 892.02,227.85 892.27,227.85 892.53,227.85 892.78,227.85 893.04,227.85 893.29,227.85 893.54,227.85 893.80,227.85 894.05,227.85 894.30,227.85 894.55,227.85 894.80,227.85 895.05,227.85 895.30,227.85 895.55,227.85 895.80,227.85 896.05,227.85 896.30,227.85 896.54,227.85 896.79,227.85 897.04,227.85 897.28,227.85 897.53,227.85 897.77,227.85 898.02,227.85 898.26,227.85 898.51,227.85 898.75,227.85 898.99,227.85 899.23,227.85 899.48,227.85 899.72,227.85 899.96,227.85 900.20,227.85 900.44,227.85 900.68,227.85 900.92,227.85 901.16,227.85 901.39,227.85 901.63,227.85 901.87,227.85 902.11,227.85 902.34,227.85 902.58,227.85 902.82,227.85 903.05,227.85 903.29,227.85 903.52,227.85 903.75,227.85 903.99,227.85 904.22,227.85 904.45,241.20 904.69,241.20 904.92,241.20 905.15,241.20 905.38,241.20 905.61,241.20 905.84,241.20 906.07,241.20 906.30,241.20 906.53,241.20 906.76,241.20 906.99,241.20 907.22,241.20 907.44,241.20 907.67,241.20 907.90,241.20 908.12,241.20 908.35,241.20 908.57,241.20 908.80,241.20 909.02,241.20 909.25,241.20 909.47,241.20 909.70,241.20 909.92,241.20 910.14,241.20 910.36,241.20 910.59,241.20 910.81,241.20 911.03,241.20 911.25,241.20 911.47,241.20 911.69,241.20 911.91,241.20 912.13,241.20 912.35,241.20 912.57,241.20 912.79,241.20 913.00,241.20 913.22,241.20 913.44,241.20 913.66,241.20 913.87,241.20 914.09,241.20 914.30,241.20 914.52,241.20 914.74,241.20 914.95,241.20 915.16,241.20 915.38,241.20 915.59,241.20 915.81,241.20 916.02,255.96 916.23,255.96 916.44,255.96 916.65,255.96 916.87,255.96 917.08,255.96 917.29,255.96 917.50,255.96 917.71,255.96 917.92,255.96 918.13,255.96 918.34,255.96 918.55,255.96 918.76,255.96 918.96,255.96 919.17,255.96 919.38,255.96 919.59,255.96 919.79,255.96 920.00,255.96 920.21,255.96 920.41,255.96 920.62,255.96 920.82,255.96 921.03,255.96 921.23,255.96 921.44,255.96 921.64,255.96 921.84,255.96 922.05,255.96 922.25,255.96 922.45,255.96 922.65,255.96 922.86,255.96 923.06,255.96 923.26,272.45 923.46,272.45 923.66,272.45 923.86,272.45 924.06,272.45 924.26,272.45 924.46,272.45 924.66,272.45 924.86,272.45 925.06,272.45 925.26,272.45 925.46,272.45 925.65,272.45 925.85,272.45 926.05,272.45 926.24,272.45 926.44,272.45 926.64,272.45 926.83,272.45 927.03,272.45 927.22,272.45 927.42,272.45 927.61,272.45 927.81,272.45 928.00,272.45 928.20,272.45 928.39,272.45 928.58,272.45 928.78,272.45 928.97,272.45 929.16,272.45 929.35,272.45 929.55,272.45 929.74,272.45 929.93,291.16 930.12,291.16 930.31,291.16 930.50,291.16 930.69,291.16 930.88,291.16 931.07,291.16 931.26,291.16 931.45,291.16 931.64,291.16 931.83,291.16 932.01,291.16 932.20,291.16 932.39,291.16 932.58,291.16 932.77,291.16 932.95,291.16 933.14,291.16 933.33,291.16 933.51,291.16 933.70,312.75 933.88,312.75 934.07,312.75 934.25,312.75 934.44,312.75 934.62,312.75 934.81,312.75 934.99,312.75 935.17,312.75 935.36,312.75 935.54,312.75 935.72,312.75 935.91,312.75 936.09,312.75 936.27,312.75 936.45,312.75 936.64,312.75 936.82,312.75 937.00,312.75 937.18,312.75 937.36,312.75 937.54,312.75 937.72,312.75 937.90,338.29 938.08,338.29 938.26,338.29 938.44,338.29 938.62,338.29 938.80,338.29 938.97,338.29 939.15,338.29 939.33,338.29 939.51,338.29 939.69,338.29 939.86,338.29 940.04,338.29 940.22,338.29 940.39,338.29 940.57,338.29 940.75,338.29 940.92,338.29 941.10,338.29 941.27,338.29 941.45,338.29 941.62,338.29 941.80,338.29 941.97,338.29 942.15,369.55 942.32,369.55 942.49,369.55 942.67,369.55 942.84,369.55 943.01,369.55 943.19,369.55 943.36,369.55 943.53,369.55 943.70,369.55 943.87,369.55 944.05,409.84 944.22,409.84 944.39,409.84 944.56,409.84 944.73,409.84 944.90,409.84 945.07,409.84 945.24,409.84 945.41,409.84 945.58,409.84 945.75,409.84 945.92,409.84 946.09,409.84 946.26,409.84 946.43,409.84 946.59,409.84 946.76,466.64 946.93,466.64 947.10,466.64 947.26,466.64 947.43,466.64 947.60,466.64 947.77,466.64 947.93,466.64 948.10,466.64 948.26,466.64 948.43,466.64 948.60,466.64 948.76,466.64 948.93,466.64 949.09,466.64 949.26,466.64 949.42,466.64 949.59,466.64 949.75,466.64 949.91,466.64 950.08,466.64 950.24,466.64 950.41,466.64 950.57,466.64 950.73,466.64 950.89,466.64 951.06,466.64 951.22,466.64 951.38,563.73 951.54,563.73 951.71,563.73 951.87,563.73 952.03,563.73 952.19,563.73 952.35,563.73 952.51,563.73 952.67,563.73 952.83,563.73 952.99,563.73 953.15,563.73 953.31,563.73 953.47,563.73 953.63,563.73 953.79,563.73 953.95,563.73 954.11,563.73 954.27,563.73 954.43,563.73 954.58,563.73 954.74,563.73 954.90,563.73 955.06,563.73 955.22,563.73 955.37,563.73 955.53,563.73 955.69,563.73 955.84,563.73 956.00,563.73"/>
<line x1="836" y1="68" x2="858" y2="68" stroke="#1f77b4" stroke-width="2"/>
<text x="864" y="72" font-family="Arial" font-size="11">L0</text>
</svg>