<svg xmlns="http://www.w3.org/2000/svg" width="980" height="660" viewBox="0 0 980 660">
<rect width="100%" height="100%" fill="white"/>
<text x="490" y="28" text-anchor="middle" font-family="Arial" font-size="18">Average number of active features per token (tau=0.9)</text>
<line x1="82" y1="54" x2="82" y2="588" stroke="#333"/>
<line x1="82" y1="588" x2="956" y2="588" stroke="#333"/>
<text x="490" y="638" text-anchor="middle" font-family="Arial" font-size="13">layer + 1</text>
<text transform="translate(20,330) rotate(-90)" text-anchor="middle" font-family="Arial" font-size="13">avg active features</text>
<line x1="82.0" y1="54" x2="82.0" y2="588" stroke="#ddd" stroke-width="0.8"/>
<line x1="82" y1="54.0" x2="956" y2="54.0" stroke="#ddd" stroke-width="0.8"/>
<line x1="300.5" y1="54" x2="300.5" y2="588" stroke="#ddd" stroke-width="0.8"/>
<line x1="82" y1="187.5" x2="956" y2="187.5" stroke="#ddd" stroke-width="0.8"/>
<line x1="519.0" y1="54" x2="519.0" y2="588" stroke="#ddd" stroke-width="0.8"/>
<line x1="82" y1="321.0" x2="956" y2="321.0" stroke="#ddd" stroke-width="0.8"/>
<line x1="737.5" y1="54" x2="737.5" y2="588" stroke="#ddd" stroke-width="0.8"/>
<line x1="82" y1="454.5" x2="956" y2="454.5" stroke="#ddd" stroke-width="0.8"/>
<line x1="956.0" y1="54" x2="956.0" y2="588" stroke="#ddd" stroke-width="0.8"/>
<line x1="82" y1="588.0" x2="956" y2="588.0" stroke="#ddd" stroke-width="0.8"/>
<polyline fill="none" stroke="#1f77b4" stroke-width="1.3" opacity="0.75" points="82.00,563.73 114.37,485.87 146.74,482.39 179.11,385.50 211.48,432.36 243.85,402.12 276.22,416.50 308.59,405.62 340.96,384.34 373.33,394.54 405.70,400.63 438.07,422.97 470.44,422.15 502.81,440.61 535.19,438.70 567.56,410.79 599.93,423.27 632.30,453.04 664.67,388.31 697.04,408.51 729.41,365.99 761.78,364.97 794.15,348.08 826.52,386.78 858.89,434.77 891.26,436.78 923.63,433.99 956.00,521.49"/>
<line x1="836" y1="68" x2="858" y2="68" stroke="#1f77b4" stroke-width="2"/>
<text x="864" y="72" font-family="Arial" font-size="11">k</text>
<polyline fill="none" stroke="#ff7f0e" stroke-width="1.3" opacity="0.75" points="82.00,129.95 114.37,231.55 146.74,227.02 179.11,192.09 211.48,101.89 243.85,103.47 276.22,142.66 308.59,130.45 340.96,131.02 373.33,123.98 405.70,124.36 438.07,164.54 470.44,136.28 502.81,132.91 535.19,129.17 567.56,149.60 599.93,190.94 632.30,155.52 664.67,186.66 697.04,218.93 729.41,185.85 761.78,220.71 794.15,134.63 826.52,126.74 858.89,245.52 891.26,245.34 923.63,153.44 956.00,111.99"/>
<line x1="836" y1="86" x2="858" y2="86" stroke="#ff7f0e" stroke-width="2"/>
<text x="864" y="90" font-family="Arial" font-size="11">o</text>
<polyline fill="none" stroke="#2ca02c" stroke-width="1.3" opacity="0.75" points="82.00,466.89 114.37,363.67 146.74,375.34 179.11,414.44 211.48,361.66 243.85,343.61 276.22,446.80 308.59,358.74 340.96,367.59 373.33,404.56 405.70,374.12 438.07,477.35 470.44,421.20 502.81,447.08 535.19,410.00 567.56,416.22 599.93,444.52 632.30,433.75 664.67,436.73 697.04,426.79 729.41,388.00 761.78,338.93 794.15,311.90 826.52,393.92 858.89,460.77 891.26,451.76 923.63,316.23 956.00,435.68"/>
<line x1="836" y1="104" x2="858" y2="104" stroke="#2ca02c" stroke-width="2"/>
<text x="864" y="108" font-family="Arial" font-size="11">q</text>
<polyline fill="none" stroke="#d62728" stroke-width="1.3" opacity="0.75" points="82.00,133.29 114.37,251.35 146.74,226.48 179.11,165.25 211.48,165.60 243.85,174.61 276.22,176.77 308.59,174.59 340.96,243.93 373.33,194.40 405.70,229.28 438.07,242.22 470.44,314.44 502.81,285.39 535.19,273.84 567.56,179.28 599.93,188.72 632.30,172.41 664.67,142.90 697.04,163.55 729.41,156.04 761.78,214.07 794.15,167.58 826.52,166.16 858.89,216.88 891.26,233.28 923.63,227.12 956.00,78.27"/>
<line x1="836" y1="122" x2="858" y2="122" stroke="#d62728" stroke-width="2"/>
<text x="864" y="126" font-family="Arial" font-size="11">v</text>
</svg>